<svg xmlns="http://www.w3.org/2000/svg" xml:space="preserve" viewBox="0 0 1000 1000">
  <path fill="none" d="M501 1001c-165.167 0-330.333-.016-495.5.096-3.766.003-4.596-.83-4.595-4.596.103-330.333.103-660.667 0-991C.904 1.734 1.734.903 5.5.905c330.333.103 660.667.103 991 0 3.766-.002 4.597.829 4.596 4.595-.104 330.333-.104 660.667 0 991 .001 3.766-.83 4.599-4.596 4.596-165.167-.112-330.333-.096-495.5-.096zm41.772-287.29c-1.341.757-.43.242.481-.272-.479-.816-.801-1.806-1.467-2.42-3.179-2.934-6.928-5.38-9.614-8.696-16.935-20.908-34.186-41.595-50.248-63.163-12.777-17.156-24.359-35.242-35.83-53.322a1705.87 1705.87 0 0 1-36.383-60.091c-11.54-19.961-22.841-40.094-33.322-60.624-9.479-18.566-18.29-37.528-26.298-56.772-5.84-14.037-9.885-28.819-14.772-43.255-.394-1.163-1.114-2.217-1.682-3.32-.92.872-2.216 1.573-2.702 2.643-3.788 8.329-7.104 16.885-11.154 25.08-16.907 34.207-33.13 68.797-51.363 102.289-12.643 23.225-26.274 46.407-42.817 66.902-26.773 33.17-59.97 59.848-95.407 83.641-2.497 1.677-4.599 7.921-3.433 10.45 10.094 21.896 19.993 43.993 31.968 64.872 8.282 14.441 19.588 27.185 29.991 40.332 1.458 1.842 5.897 2.928 8.22 2.153 4.946-1.649 9.329-4.913 14.083-7.229 16.058-7.826 31.582-17.35 48.414-22.844 24.688-8.06 50.014-16.172 75.637-18.872 35.609-3.752 71.759-3.582 107.65-3.1 32.561.438 65.086 3.545 100.048 5.618zm-279.17 69.98c-4.143-8.209-6.994-15.55-11.416-21.774-1.716-2.415-7.908-4.252-10.482-3.029-15.639 7.432-30.66 16.16-46.277 23.642-3.671 1.759-8.841.366-13.321.467-2.542.058-5.239-.302-7.584.432-3.23 1.011-6.546 2.422-9.194 4.476-4.574 3.547-14.136 3.536-11.646 12.661 5.44 19.934 11.587 39.676 17.592 59.451 2.21 7.278 4.513 14.56 7.337 21.614 5.348 13.359 11.338 26.462 16.637 39.84 8.629 21.788 18.796 42.746 34.849 60.057 5.473 5.9 11.747 12.979 21.973 8.544 8.819-3.825 17.796-7.282 26.666-10.992 19.853-8.304 38.029-19.387 52.671-35.213 3.308-3.575 4.732-10.64 4.102-15.737-1.207-9.758-17.193-21.476-29.085-22.724-7.473-.784-10.575-4.32-9.548-11.961 2.274-16.916-1.947-25.29-17.457-32.236-8.361-3.745-10.043-8.688-7.49-17.005 3.611-11.761-4.889-27.795-15.466-30.499-10.739-2.745-11.659-6.726-4.11-15.015 4.088-4.493 7.35-9.738 11.249-14.999zm315.273-304.813c9.152-3.042 18.057-5.563 26.625-8.937 20.022-7.882 39.801-16.387 59.84-24.225 13.739-5.374 27.834-9.833 41.626-15.082a10605.67 10605.67 0 0 0 98.498-38.051c2.431-.953 5.594-3.604 5.804-5.726.247-2.493-1.705-6.085-3.833-7.796-20.866-16.781-42.143-33.056-62.945-49.915-14.873-12.053-15.033-12.931.385-23.703 21.252-14.848 43.104-28.848 64.856-42.969 21.993-14.278 44.225-28.189 66.267-42.394a5915.292 5915.292 0 0 0 58.413-38.152c2.105-1.393 3.524-3.824 5.262-5.774-2.719.329-5.675.08-8.117 1.084-13.283 5.459-26.357 11.433-39.664 16.835-15.01 6.094-30.227 11.679-45.285 17.656-12.977 5.15-25.806 10.675-38.795 15.792-14.335 5.647-28.861 10.812-43.152 16.564-17.38 6.995-34.525 14.571-51.91 21.554-21.828 8.767-43.851 17.051-65.676 25.823-8.432 3.389-8.78 7.011-2.527 13.579 18.368 19.297 36.725 38.607 54.869 58.114 5.432 5.839 5.646 11.698-1.644 16.852-4.056 2.866-7.441 6.66-11.374 9.723-26.35 20.525-52.816 40.9-79.134 61.468-9.818 7.674-19.354 15.712-28.956 23.66-.785.649-1.082 1.888-1.604 2.853.804.434 1.61.866 2.171 1.167zm-2.191-435.796c-.646-.879-1.506-2.57-1.881-2.469-1.63.441-3.558 1.029-4.591 2.237-7.785 9.1-15.307 18.425-23.057 27.556-22.397 26.391-44.987 52.621-67.269 79.109-21.309 25.332-42.325 50.909-63.469 76.38-3.846 4.632-2.042 7.618 2.935 9.374 24.099 8.501 48.203 16.989 72.35 25.349 7.197 2.491 8.158 7.112 5.168 13.312-1.507 3.126-3.603 5.99-4.914 9.186-5.277 12.86-10.295 25.826-15.52 38.708-4.185 10.32-8.583 20.555-12.734 30.888-.476 1.185.032 2.764.083 4.159 1.332-.345 2.839-.408 3.953-1.102 1.529-.952 2.847-2.299 4.107-3.619 18.271-19.146 36.447-38.384 54.79-57.461 18.81-19.563 37.798-38.954 56.657-58.47 3.52-3.642 4.297-7.498-1.828-8.691-25.254-4.923-50.538-9.709-75.889-14.098-10.436-1.807-13.269-5.625-8.636-15.137 6.936-14.238 14.378-28.229 21.614-42.321 18.063-35.179 36.131-70.356 54.204-105.531 1.217-2.359 2.498-4.684 3.927-7.359zm349.852 526.22c.024.34.05.679.075 1.019 9.642-.49 19.287-.915 28.92-1.547 1.371-.09 2.677-1.183 4.013-1.811-1.193-.682-2.322-1.788-3.59-1.979-17.224-2.606-34.451-5.204-51.71-7.569-28.158-3.858-56.348-7.489-84.51-11.322-21.035-2.862-42.039-5.962-63.076-8.81-7.408-1.003-14.909-1.341-22.309-2.396-9.365-1.335-18.627-3.485-28.018-4.515-5.4-.592-8.811 2.609-7.305 8.402 5.143 19.781 10.723 39.45 15.775 59.254 1.34 5.253 2.348 10.965 1.65 16.22-.403 3.046-4.153 7.56-7.002 8.075-27.419 4.961-54.973 9.176-82.466 13.74-1.896.315-3.614 1.716-5.414 2.611 1.684 1.328 3.224 2.938 5.099 3.892 1.408.717 3.262.515 4.891.851 22.799 4.699 45.636 9.223 68.376 14.189 27.173 5.935 54.257 12.272 81.396 18.365 2.09.47 5.009 1.315 6.309.341 2.329-1.746 5.795-5.563 5.19-7.097-8.588-21.756-17.123-43.582-27.054-64.742-6.855-14.608-4.278-20.87 11.59-21.733 1.494-.082 2.98-.318 4.473-.452 48.233-4.331 96.465-8.658 144.697-12.986zM353.98 347.356c.708 4.935.687 9.055 1.944 12.737 3.731 10.936 7.633 21.837 12.088 32.493 5.417 12.959 11.31 25.729 17.291 38.44 4.436 9.428 9.35 18.63 14.037 27.938 7.5 14.894 14.557 30.03 22.604 44.622 7.805 14.153 16.573 27.778 25.007 41.581 9.246 15.132 18.148 30.501 28.01 45.224 12.277 18.328 25.201 36.233 38.176 54.08 16.162 22.229 32.788 44.115 55.074 60.794 1.721 1.288 4.738 2.084 6.61 1.466 1.119-.37 2.125-4.227 1.576-6.025-6.29-20.632-11.621-41.687-19.745-61.594-8.886-21.771-20.756-42.307-30.647-63.694-3.748-8.104-7.419-7.667-14.17-3.728-5.592 3.264-12.352 6.37-18.579 6.34-15.563-.073-24.66-11.398-32.41-22.992-9.017-13.489-17.423-27.439-25.276-41.642-11.883-21.492-17.247-44.447 13.602-60.282 1.061-.544 1.907-4.091 1.209-5.093-14.483-20.808-28.362-42.121-44.147-61.91-12.446-15.603-27.18-29.401-41.202-43.703-2.143-2.187-5.927-2.764-8.953-4.085l-2.099 9.033zM36.903 714.43c1.702 7.269 1.838 12.036 3.862 15.784 9.912 18.359 19.721 36.828 30.813 54.473 5.728 9.112 12.606 19.699 26.354 15.956 8.156-2.22 16.146-5.62 23.641-9.57 14.031-7.396 27.76-15.396 41.292-23.671 1.663-1.017 2.815-6.247 1.73-7.86-12.085-17.968-25.619-35.03-36.761-53.541-7.377-12.255-11.444-26.49-17.259-39.722-.384-.874-3.473-1.549-4.566-.956-5.818 3.151-11.386 6.764-17.069 10.168-14.324 8.579-28.992 16.646-42.809 25.976-4.476 3.02-6.74 9.318-9.228 12.963zm408.581-228.719c1.342 4.196 2.066 8.729 4.134 12.53 8.143 14.967 16.501 29.827 25.184 44.488 7.087 11.966 19.387 17.499 29.255 13.873 14.999-5.511 24.381-23.811 19.587-39.051-2.999-9.537-6.375-18.991-10.213-28.221-6.333-15.231-31.103-28.132-47.163-25.023-9.814 1.899-19.921 12.643-20.784 21.404zM33.11 794.496l18.139-13.245c-5.125-6.962-9.327-15.027-15.767-20.42-3.221-2.697-19.033 10.757-18.975 15.132.121 9.182 7.045 18.729 16.603 18.533z"/>
  <path fill-rule="evenodd" d="M542.772 713.71c-34.963-2.073-67.487-5.18-100.048-5.618-35.892-.482-72.041-.652-107.65 3.1-25.623 2.7-50.949 10.812-75.637 18.872-16.832 5.494-32.355 15.018-48.414 22.844-4.753 2.315-9.137 5.579-14.083 7.229-2.322.774-6.762-.312-8.22-2.153-10.403-13.147-21.709-25.891-29.991-40.332-11.975-20.879-21.875-42.976-31.968-64.872-1.166-2.529.936-8.773 3.433-10.45 35.437-23.793 68.634-50.471 95.407-83.641 16.543-20.495 30.174-43.678 42.817-66.902 18.232-33.492 34.456-68.082 51.363-102.289 4.05-8.195 7.367-16.751 11.154-25.08.486-1.069 1.782-1.771 2.702-2.643.568 1.104 1.288 2.157 1.682 3.32 4.887 14.436 8.932 29.218 14.772 43.255 8.008 19.244 16.819 38.206 26.298 56.772 10.481 20.53 21.783 40.663 33.322 60.624a1705.87 1705.87 0 0 0 36.383 60.091c11.471 18.08 23.053 36.166 35.83 53.322 16.062 21.568 33.313 42.255 50.248 63.163 2.687 3.316 6.436 5.763 9.614 8.696.666.614.987 1.604 1.467 2.42l-.481.272zM297.225 589.652c-4.782-8.12-8.676-15.152-12.97-21.932-7.5-11.842-10.532-11.468-21.473-2.971-22.667 17.605-45.594 34.949-69.257 51.173-17.598 12.065-36.514 22.212-54.857 33.188-7.026 4.204-8.471 9.731-4.405 16.878 1.64 2.883 2.833 6.018 4.253 9.026 3.298 6.982 9.542 8.705 16.11 4.657 16.139-9.947 32.19-20.047 48.533-29.648 28.589-16.796 57.452-33.125 85.96-50.055 3.369-2 5.231-6.539 8.106-10.316zm4.224-56.216c1.527 3.106 2.625 5.812 4.115 8.281 5.314 8.809 11.224 17.294 16 26.379 3.339 6.353 6.973 7.838 13.077 4.24 20.44-12.044 41.114-23.711 61.184-36.342 2.589-1.629 4.244-9.094 2.768-12.111-8.077-16.503-17.215-32.489-26.093-48.597-6.47-11.738-11.83-11.981-20.453-2.008-15.104 17.47-30.652 34.553-45.867 51.927-1.966 2.244-3.056 5.256-4.731 8.231zM263.602 783.69c-3.899 5.261-7.161 10.506-11.251 14.997-7.549 8.289-6.628 12.27 4.11 15.015 10.577 2.704 19.077 18.738 15.466 30.499-2.553 8.316-.871 13.26 7.49 17.005 15.51 6.946 19.731 15.32 17.457 32.236-1.027 7.641 2.076 11.177 9.548 11.961 11.893 1.248 27.878 12.966 29.085 22.724.63 5.098-.794 12.162-4.102 15.737-14.642 15.826-32.818 26.909-52.671 35.213-8.87 3.71-17.847 7.167-26.666 10.992-10.226 4.436-16.5-2.644-21.973-8.544-16.053-17.311-26.219-38.269-34.849-60.057-5.299-13.378-11.289-26.48-16.637-39.84-2.824-7.055-5.127-14.336-7.337-21.614-6.005-19.775-12.151-39.518-17.592-59.451-2.491-9.125 7.071-9.114 11.646-12.661 2.648-2.054 5.963-3.465 9.194-4.476 2.345-.733 5.042-.374 7.584-.432 4.479-.101 9.65 1.292 13.321-.467 15.617-7.481 30.638-16.21 46.277-23.642 2.574-1.223 8.767.614 10.482 3.029 4.424 6.227 7.275 13.567 11.418 21.776zM578.875 478.877l-2.173-1.166c.522-.965.819-2.203 1.604-2.853 9.602-7.948 19.138-15.986 28.956-23.66 26.317-20.567 52.784-40.942 79.134-61.468 3.933-3.062 7.318-6.856 11.374-9.723 7.29-5.153 7.075-11.013 1.644-16.852-18.145-19.507-36.501-38.817-54.869-58.114-6.253-6.568-5.904-10.19 2.527-13.579 21.825-8.772 43.848-17.057 65.676-25.823 17.385-6.982 34.53-14.559 51.91-21.554 14.291-5.752 28.817-10.917 43.152-16.564 12.989-5.117 25.818-10.642 38.795-15.792 15.059-5.978 30.275-11.562 45.285-17.656 13.307-5.402 26.381-11.376 39.664-16.835 2.442-1.004 5.398-.755 8.117-1.084-1.737 1.95-3.156 4.382-5.262 5.774a5897.292 5897.292 0 0 1-58.413 38.152c-22.042 14.204-44.273 28.115-66.267 42.394-21.752 14.121-43.604 28.121-64.856 42.969-15.418 10.772-15.258 11.65-.385 23.703 20.803 16.859 42.079 33.134 62.945 49.915 2.128 1.711 4.08 5.303 3.833 7.796-.21 2.121-3.373 4.772-5.804 5.726a10616.587 10616.587 0 0 1-98.498 38.051c-13.792 5.249-27.887 9.708-41.626 15.082-20.039 7.838-39.817 16.343-59.84 24.225-8.566 3.372-17.471 5.894-26.623 8.936zM576.684 43.081c-1.429 2.675-2.71 5-3.923 7.359a457009.95 457009.95 0 0 0-54.204 105.531c-7.236 14.092-14.679 28.083-21.614 42.321-4.633 9.512-1.8 13.33 8.636 15.137 25.351 4.389 50.635 9.175 75.889 14.098 6.125 1.193 5.348 5.05 1.828 8.691-18.859 19.516-37.848 38.906-56.657 58.47-18.343 19.077-36.519 38.315-54.79 57.461-1.26 1.32-2.578 2.667-4.107 3.619-1.114.693-2.621.757-3.953 1.102-.051-1.396-.559-2.975-.083-4.159 4.151-10.333 8.549-20.567 12.734-30.888 5.225-12.882 10.243-25.848 15.52-38.708 1.311-3.195 3.407-6.06 4.914-9.186 2.99-6.2 2.029-10.821-5.168-13.312-24.147-8.359-48.251-16.848-72.35-25.349-4.977-1.756-6.781-4.742-2.935-9.374 21.144-25.471 42.16-51.048 63.469-76.38 22.281-26.488 44.871-52.719 67.269-79.109 7.75-9.131 15.271-18.456 23.057-27.556 1.033-1.208 2.961-1.796 4.591-2.237.371-.101 1.23 1.59 1.877 2.469zM926.536 569.301c-48.232 4.328-96.464 8.655-144.696 12.986-1.492.134-2.979.37-4.473.452-15.868.863-18.445 7.125-11.59 21.733 9.931 21.16 18.466 42.986 27.054 64.742.604 1.533-2.861 5.351-5.19 7.097-1.3.975-4.219.129-6.309-.341-27.139-6.093-54.223-12.431-81.396-18.365-22.74-4.967-45.577-9.49-68.376-14.189-1.629-.336-3.482-.134-4.891-.851-1.875-.953-3.415-2.563-5.099-3.892 1.8-.896 3.518-2.296 5.414-2.611 27.493-4.564 55.047-8.779 82.466-13.74 2.849-.516 6.599-5.029 7.002-8.075.697-5.255-.311-10.967-1.65-16.22-5.053-19.804-10.633-39.473-15.775-59.254-1.506-5.793 1.904-8.994 7.305-8.402 9.391 1.029 18.652 3.18 28.018 4.515 7.399 1.055 14.9 1.393 22.309 2.396 21.037 2.848 42.041 5.947 63.076 8.81 28.162 3.833 56.352 7.464 84.51 11.322 17.259 2.365 34.486 4.963 51.71 7.569 1.268.191 2.396 1.298 3.59 1.979-1.336.628-2.642 1.721-4.013 1.811-9.633.632-19.278 1.057-28.92 1.547a377.14 377.14 0 0 1-.076-1.019zM353.98 347.356l2.1-9.032c3.025 1.321 6.81 1.898 8.953 4.085 14.021 14.302 28.756 28.101 41.202 43.703 15.785 19.789 29.664 41.103 44.147 61.91.698 1.002-.148 4.549-1.209 5.093-30.848 15.835-25.485 38.79-13.602 60.282 7.853 14.202 16.259 28.152 25.276 41.642 7.75 11.594 16.847 22.919 32.41 22.992 6.227.03 12.987-3.076 18.579-6.34 6.751-3.939 10.422-4.376 14.17 3.728 9.892 21.388 21.762 41.923 30.647 63.694 8.124 19.907 13.455 40.962 19.745 61.594.549 1.799-.457 5.655-1.576 6.025-1.872.618-4.89-.178-6.61-1.466-22.286-16.679-38.912-38.564-55.074-60.794-12.976-17.847-25.899-35.752-38.176-54.08-9.862-14.723-18.764-30.092-28.01-45.224-8.434-13.803-17.202-27.428-25.007-41.581-8.047-14.592-15.104-29.729-22.604-44.622-4.688-9.309-9.601-18.511-14.037-27.938-5.981-12.712-11.874-25.481-17.291-38.44-4.455-10.656-8.357-21.558-12.088-32.493-1.258-3.683-1.237-7.803-1.945-12.738zM36.903 714.43c2.487-3.645 4.751-9.942 9.228-12.964 13.817-9.329 28.484-17.396 42.809-25.976 5.683-3.404 11.251-7.017 17.069-10.168 1.094-.593 4.182.082 4.566.956 5.815 13.231 9.882 27.467 17.259 39.722 11.142 18.511 24.675 35.573 36.761 53.541 1.085 1.613-.067 6.844-1.73 7.86-13.532 8.275-27.261 16.274-41.292 23.671-7.495 3.95-15.485 7.351-23.641 9.57-13.748 3.743-20.626-6.844-26.354-15.956-11.093-17.645-20.901-36.113-30.813-54.473-2.023-3.747-2.16-8.515-3.862-15.783z" clip-rule="evenodd"/>
  <path fill-rule="evenodd" d="M445.484 485.711c.863-8.761 10.97-19.505 20.784-21.403 16.061-3.108 40.83 9.792 47.163 25.023 3.838 9.229 7.214 18.684 10.213 28.221 4.794 15.24-4.588 33.54-19.587 39.051-9.868 3.626-22.168-1.907-29.255-13.873-8.682-14.661-17.041-29.521-25.184-44.488-2.068-3.803-2.792-8.335-4.134-12.531zM33.11 794.496c-9.558.196-16.481-9.352-16.603-18.533-.058-4.375 15.754-17.829 18.975-15.132 6.439 5.393 10.641 13.458 15.767 20.42L33.11 794.496z" clip-rule="evenodd"/>
  <path fill="none" d="M297.225 589.652c-2.875 3.776-4.737 8.315-8.105 10.316-28.508 16.93-57.372 33.259-85.96 50.055-16.343 9.602-32.394 19.701-48.533 29.648-6.568 4.048-12.812 2.325-16.11-4.657-1.421-3.009-2.614-6.144-4.253-9.026-4.065-7.146-2.621-12.674 4.405-16.878 18.344-10.976 37.259-21.122 54.857-33.188 23.663-16.224 46.59-33.567 69.257-51.173 10.941-8.497 13.973-8.871 21.473 2.971 4.293 6.78 8.187 13.812 12.969 21.932zM301.449 533.436c1.675-2.975 2.765-5.986 4.73-8.23 15.215-17.374 30.763-34.457 45.867-51.927 8.623-9.974 13.983-9.73 20.453 2.008 8.877 16.107 18.016 32.094 26.093 48.597 1.477 3.018-.178 10.482-2.768 12.111-20.069 12.631-40.743 24.298-61.184 36.342-6.104 3.598-9.738 2.112-13.077-4.24-4.775-9.085-10.686-17.57-16-26.379-1.489-2.47-2.586-5.176-4.114-8.282z" clip-rule="evenodd"/>
</svg>
