<svg xmlns="http://www.w3.org/2000/svg" viewBox="0 0 392.47 498.11">
  <g stroke="#0a0000" stroke-width="14.4">
    <path fill="#183cd7" stroke-linecap="square" d="M17.42 24.44h178.81V196.9H24.27c-6.99-57.49-5.1-114.97-6.85-172.45z"/>
    <path fill="#fef851" stroke-linecap="square" stroke-linejoin="round" d="M24.27 196.89h171.96l.44 239.27C89.5 360.34 35.01 279.16 24.27 196.9z"/>
    <path fill="#fef851" stroke-linecap="square" d="M375.04 24.44h-178.8V196.9h171.95c7-57.49 5.1-114.97 6.85-172.45z"/>
    <path fill="#183cd7" stroke-linecap="round" stroke-linejoin="round" d="M368.2 196.89H196.22l-.44 239.27c107.18-75.82 161.66-157 172.4-239.27z"/>
  </g>
  <g stroke="#020000" stroke-linecap="round" stroke-linejoin="round" stroke-miterlimit="1.27" transform="translate(-1.96 2.09)">
    <path fill="gray" stroke-width="3.9" d="M185.49 110.56h13.14v373.51c-14.5-72.4-9.7-123.86-13.14-373.51zm26.29 0h-13.15v373.51c14.5-72.4 9.7-123.86 13.15-373.51z"/>
    <path fill="gray" stroke-width="3.9" d="M187.9 94.6c-22.31.47-19-.15-48.17 4.96l.05 3 .06 3.08c29.81 5.6 25.15 4.44 47.46 4.92h23.08c22.3-.48 17.64.68 47.46-4.92l.05-2.98.06-3.1c-29.17-5.1-25.48-4.49-47.8-4.97z"/>
    <ellipse cx="131.37" cy="102.73" fill="gray" stroke-width="3.9" rx="8.48" ry="8.25"/>
    <ellipse cx="-266.31" cy="102.73" fill="gray" stroke-width="3.9" rx="8.48" ry="8.25" transform="scale(-1 1)"/>
    <path fill="none" stroke-width="3.9" d="M140 102.34h117.69"/>
    <path fill="#fef851" stroke-width="4.21" d="M218.95 188.76H245v15.54h-26.05z" transform="skewY(-30.87) scale(.85831 1)"/>
    <path fill="#183cd7" stroke-width="4.21" d="M218.95 173.22H245v15.54h-26.05z" transform="skewY(-30.87) scale(.85831 1)"/>
    <path fill="#183cd7" stroke-width="3.9" d="M210.3 78.58l-.14 16.01H187.9l.03-2.64z"/>
    <path fill="#fef851" stroke-width="3.9" d="M210.3 47.5l-22.37 13.36-.2-24.72c7.4-2.94 14.8-3.13 22.2 0z"/>
    <path fill="gray" stroke-width="3.9" d="M191.28 14.57c-2.8 5.16-2.5 4.35-7.68 4.48-4.92.33-6.58 2.32-3.39 6.47 1.45 1.39 2.78 2.35 2.97 4.52 2.7 9.1 3.71 5.15 15.74 3.15 12.02 2.06 13.04 6.01 15.73-3.1.2-2.16 1.52-3.12 2.97-4.51 3.2-4.16 1.54-6.14-3.39-6.47-5.17-.13-4.88.68-7.67-4.48-1.76-3.37-4.53-4.87-7.7-4.77-3.17.02-5.82 1.34-7.58 4.71z"/>
  </g>
  <path fill="#1e490c" stroke="#000" d="M123.9 356.61l1.96 3.15c15.56-33.81 15.63-72.32 13.68-105.64l-1.93.27c2.7 49.75-3.5 82.98-13.7 102.22z"/>
  <path fill="#1e490c" stroke="#000" d="M134.33 323.06c-1.17-11.71-.5-25.27-10.2-28.44l1.92-1.03c7.84 4 8.87 10.3 9.69 20.68zm-3.48-26.6c.81-1.85 2.25-4.87 6.19-6.3l.6 2.04c-2.46.26-4.53 2.61-5.49 5.9zm-5.56-13.22l1.44 1.39c.3-1.58.5-3.24 2.5-3.7l-1.42-.86c-1.46.28-2.22 1.44-2.52 3.17zm-1.17 11.38c-3.76.43-5.94.41-8.03-3.48-2.95-4.88-2.14-9.77-2.4-14.12 2.14-.52 7.32 3.54 11.6 6.22l1.44 1.39c.8 3.05 1.96 6.22-.58 8.16z"/>
  <path fill="#1e490c" stroke="#000" d="M137.04 290.17c3.12-6.04 8.82-11.1 13.9-12.92 4.79 9.58-8.28 24.03-13.3 14.95zm-10.98-20.2c3.85-4.22 8.77-4.83 12.86-6.3.53 6.87-4.87 20.94-11.58 16.41-4.81-2.55-3.38-7.95-1.28-10.11zm2.41-21.08c1.97 4.37-1.41 8.48-3.36 12 2.55-1.44 5.87-3.51 6.94-5.88 4.68-3 8.93 2.6 10.74 5.74.05-2.34.72-4.67-1.13-7 5.43 2.71 9.09.49 10.8-2.23-3.63-.15-9.84 2.65-6.21-5.63-4.63 5.86-9.56 10.61-17.78 3z"/>
  <path fill="#8c1d1a" stroke="#000200" d="M128.47 248.89a19.43 19.43 0 0 1-1.6-18.2c.75-1.6-4.71-5.64.28-6.8 6.2.2 11.85-3.82 17.49-5.6-1.14 2.98-.06 6 1.09 8.8 3 6.57 3.3 13.38.52 18.8-4.7 6.24-9.89 10.38-17.78 3z"/>
  <path fill="#c42d28" stroke="#000" d="M129.46 223.82c3.85-6.58 6.56-5.55 11-4.06-5.22 1.97-5.98 3.45-11 4.06z"/>
  <path fill="#c42d28" stroke="#8c1d1a" d="M133.24 249.13c-4.4-5.88-7.49-20.64-.37-24.57a28.97 28.97 0 0 1 5.7-2.32c3.12-1.11 4.4-1.45 4.38 1.77-1.77 7 7.15 8.06-.92 23.06-2.69 5.3-5.97 5.71-8.79 2.06z"/>
  <path fill="none" stroke="#000" d="M139.1 290.85c3.57-1.99 7.81-5 9.98-8.6m-24.88 9.83c-3.45-3.03-5.75-6.24-6.75-9.68m10.29-4.3a15.6 15.6 0 0 1 7.21-9.2"/>
  <path fill="#d1d1d1" stroke="#040000" d="M279.55 101.46a174.59 174.59 0 0 0 35.02.69l-8.31 7.34c-4.78 13.96-6.8 30.45-5.69 49.83-2.1 2.99-4.2 3.73-6.3-.22.27-15.75.24-31.62-5.73-49.64-2.31-2.84-6.37-5.93-9-8z"/>
  <path fill="#b6b6b6" stroke="#b6b6b6" d="M306.26 109.49c2.63-2.56 5.88-5.73 7.48-7.25-11.21.2-21.92 1.67-34.2-.78 14.54 6.24 13.2 23.1 15.66 37.4 7.93-26.93-20.94-38.75 11.06-29.37z"/>
  <path fill="#f1813a" stroke="#f1813a" d="M297.32 62.48c-1.83-2.39-.79-4.77-.45-7.16-2.82 2.18-4.27 4.34-4.76 8.46.57 3.97 2.24 4.6-.66 7.6-1.45 1-2.35 2.25-2.17 6.08 1.5 6.5-.98 4.59-2.6 3.9-1.13-.73-3.09-2.98-2.81-4.7.25-1.55-.93 3.73-1.83 5.95-1.36 2.25-3.67-2.03-5.3-4.55-.92 3.8-.57 8.83 4.5 10.9 4.44 4.94 3.54 11.36-1.08 6.96l-4.45-3.8c-.33 2.77 1.81 6.66 2.88 9.16 12.36 1.4 24.18 1.17 35.98.87 2.02-2 5.5-10.74 3.42-7.69-.63.94-2.07 1.1-3.09.59-2.88-1.4.32-4.3.87-7.38.76-5.13-.2-9.03-2.69-14.32-2.42 2.37-4.75 5.2-3.6 11.5-.04 2.87-9.59 7.58-6.52-.44 2.04-3.22 4.39-2.12 3.58-8.8-1-2.83-2.75-9.05-1.3-11.94-4.6.5-1.59 7.75-2.06 9.77.86 2.24-.93 6.22-3.04 7.93-5.17-2.9-4.31-8.87-.87-10.64 2.8-2.8.89-6.06-1.95-8.25z"/>
  <path fill="#c42d28" stroke="#c42d28" d="M294.99 61.32c-2.02 1.95 1.05 4.19-.39 8.54-3.58 4.72-3.78 9.64.67 12.88.3-1.08-2.77-6.98.3-11.25 6.34-4.5-.33-6.7-.58-10.17zm17.63 15.92c-3.05 6.4-.49 11.63-.43 11.62 1.28-2.67 2.46-8.67.43-11.62zm-7.7-2.6c-1.53 10.09-8.43 7.5-8.5 15.95-.04 5.36 6.07 8.21 10.34 9.34-3.86-1.87.62-9.49 2.72-11.5-3.04 1.86-4.55 3.4-6.63 2.6-3.44-2.4-1.88-6.84-.17-8.45 2.02-1.91 3.77-3.98 2.24-7.94zm-27.36 7.6c4.47 4.55 6.07 3.58 6.84-.11 2.74 2.94 4.01 4.3 7.49 3.8-3.82 3.44-3.87 7.42-3.8 13.24-1.72-3.48-2.18-7.49-4.21-10.02-1.46-1.8-5-2.27-6.32-6.91zm.11 13.46c.96 3.62 2.05 3.63 5.47 4.43z"/>
  <path fill="none" stroke="#040000" d="M279.62 102.43c10.88 1.28 22.33.75 34.95-.28l-8.31 7.34c-4.78 13.96-6.8 30.45-5.69 49.83-2.1 2.99-4.2 3.73-6.3-.22.27-15.75.24-31.62-5.73-49.64-2.31-2.84-6.3-4.96-8.92-7.03z"/>
</svg>
