<svg xmlns="http://www.w3.org/2000/svg" viewBox="0 0 892.35 725.29">
  <g stroke="#0a0000" stroke-width="14.4">
    <path fill="#183cd7" stroke-linecap="square" d="M276.05 158.74h178.81V331.2H282.9c-6.99-57.48-5.1-114.97-6.85-172.45z"/>
    <path fill="#fef851" stroke-linecap="square" stroke-linejoin="round" d="M282.9 331.19h171.96l.44 239.28c-107.18-75.83-161.66-157.02-172.4-239.28z"/>
    <path fill="#fef851" stroke-linecap="square" d="M633.67 158.74h-178.8V331.2h171.95c7-57.48 5.1-114.97 6.85-172.45z"/>
    <path fill="#183cd7" stroke-linecap="round" stroke-linejoin="round" d="M626.82 331.19H454.86l-.44 239.28c107.18-75.83 161.66-157.02 172.4-239.28z"/>
  </g>
  <g stroke="#020000" stroke-linecap="round" stroke-linejoin="round" stroke-miterlimit="1.27" transform="translate(256.67 136.4)">
    <path fill="gray" stroke-width="3.9" d="M185.49 110.56h13.14v373.51c-14.5-72.4-9.7-123.86-13.14-373.51zm26.29 0h-13.15v373.51c14.5-72.4 9.7-123.86 13.15-373.51z"/>
    <path fill="gray" stroke-width="3.9" d="M187.9 94.6c-22.31.47-19-.15-48.17 4.96l.05 3 .06 3.08c29.81 5.6 25.15 4.44 47.46 4.92h23.08c22.3-.48 17.64.68 47.46-4.92l.05-2.98.06-3.1c-29.17-5.1-25.48-4.49-47.8-4.97z"/>
    <ellipse cx="131.37" cy="102.73" fill="gray" stroke-width="3.9" rx="8.48" ry="8.25"/>
    <ellipse cx="-266.31" cy="102.73" fill="gray" stroke-width="3.9" rx="8.48" ry="8.25" transform="scale(-1 1)"/>
    <path fill="none" stroke-width="3.9" d="M140 102.34h117.69"/>
    <path fill="#fef851" stroke-width="4.21" d="M218.95 188.76H245v15.54h-26.05z" transform="skewY(-30.87) scale(.85831 1)"/>
    <path fill="#183cd7" stroke-width="4.21" d="M218.95 173.22H245v15.54h-26.05z" transform="skewY(-30.87) scale(.85831 1)"/>
    <path fill="#183cd7" stroke-width="3.9" d="M210.3 78.58l-.14 16.01H187.9l.03-2.64z"/>
    <path fill="#fef851" stroke-width="3.9" d="M210.3 47.5l-22.37 13.36-.2-24.72c7.4-2.94 14.8-3.13 22.2 0z"/>
    <path fill="gray" stroke-width="3.9" d="M191.28 14.57c-2.8 5.16-2.5 4.35-7.68 4.48-4.92.33-6.58 2.32-3.39 6.47 1.45 1.39 2.78 2.35 2.97 4.52 2.7 9.1 3.71 5.15 15.74 3.15 12.02 2.06 13.04 6.01 15.73-3.1.2-2.16 1.52-3.12 2.97-4.51 3.2-4.16 1.54-6.14-3.39-6.47-5.17-.13-4.88.68-7.67-4.48-1.76-3.37-4.53-4.87-7.7-4.77-3.17.02-5.82 1.34-7.58 4.71z"/>
  </g>
  <path fill="#1e490c" stroke="#000" d="M382.53 490.91l1.96 3.15c15.56-33.81 15.63-72.32 13.68-105.64l-1.93.27c2.7 49.76-3.5 82.98-13.7 102.22z"/>
  <path fill="#1e490c" stroke="#000" d="M392.95 457.36c-1.17-11.7-.49-25.27-10.2-28.44l1.93-1.03c7.84 4 8.87 10.3 9.69 20.68zm-3.47-26.59c.81-1.86 2.25-4.88 6.19-6.3l.6 2.03c-2.46.26-4.54 2.62-5.49 5.9zm-5.57-13.23l1.44 1.4c.32-1.59.5-3.24 2.5-3.7l-1.41-.87c-1.46.28-2.22 1.45-2.53 3.17z"/>
  <path fill="#1e490c" stroke="#000" d="M382.75 428.92c-3.76.43-5.94.41-8.04-3.47-2.94-4.89-2.13-9.78-2.39-14.12 2.13-.53 7.32 3.53 11.6 6.21l1.43 1.4c.82 3.05 1.97 6.21-.57 8.15zm12.92-4.45c3.12-6.04 8.82-11.1 13.9-12.92 4.79 9.58-8.29 24.03-13.3 14.95zm-10.98-20.2c3.84-4.21 8.76-4.82 12.86-6.3.53 6.87-4.88 20.94-11.58 16.41-4.81-2.55-3.38-7.95-1.28-10.11zm2.41-21.08c1.97 4.38-1.41 8.48-3.36 12 2.55-1.44 5.87-3.51 6.94-5.88 4.67-3 8.92 2.6 10.74 5.74.05-2.34.72-4.67-1.14-7 5.44 2.71 9.1.49 10.8-2.23-3.62-.15-9.83 2.65-6.2-5.63-4.63 5.87-9.56 10.61-17.78 3z"/>
  <path fill="#8c1d1a" stroke="#000200" d="M387.1 383.19a19.43 19.43 0 0 1-1.6-18.2c.75-1.6-4.72-5.64.28-6.8 6.2.2 11.85-3.82 17.49-5.6-1.14 2.99-.06 6 1.08 8.8 3 6.57 3.32 13.39.52 18.8-4.7 6.24-9.88 10.38-17.77 3z"/>
  <path fill="#c42d28" stroke="#000" d="M388.09 358.12c3.85-6.58 6.56-5.55 11-4.05-5.23 1.96-5.98 3.44-11 4.05z"/>
  <path fill="#c42d28" stroke="#8c1d1a" d="M391.87 383.43c-4.4-5.88-7.5-20.64-.38-24.57a29.31 29.31 0 0 1 5.71-2.32c3.11-1.11 4.39-1.45 4.38 1.77-1.77 7 7.15 8.06-.92 23.06-2.69 5.3-5.98 5.71-8.8 2.06z"/>
  <path fill="none" stroke="#000" d="M397.73 425.15c3.57-1.99 7.81-5 9.98-8.6m-24.88 9.83c-3.45-3.03-5.76-6.24-6.75-9.68m10.29-4.3a15.6 15.6 0 0 1 7.21-9.2"/>
  <path fill="#d1d1d1" stroke="#040000" d="M538.17 235.76a174.59 174.59 0 0 0 35.03.7l-8.32 7.33c-4.77 13.96-6.8 30.45-5.68 49.83-2.1 2.99-4.2 3.73-6.3-.22.27-15.75.24-31.62-5.73-49.64-2.32-2.84-6.38-5.93-9-8z"/>
  <path fill="#b6b6b6" stroke="#b6b6b6" d="M564.88 243.79c2.64-2.56 5.9-5.73 7.49-7.25-11.22.2-21.92 1.68-34.2-.78 14.54 6.24 13.2 23.1 15.66 37.4 7.93-26.92-20.94-38.75 11.05-29.37z"/>
  <path fill="#f1813a" stroke="#f1813a" d="M555.94 196.78c-1.83-2.39-.78-4.77-.44-7.15-2.82 2.17-4.28 4.33-4.77 8.45.58 3.97 2.25 4.61-.65 7.6-1.45 1.01-2.35 2.25-2.17 6.08 1.5 6.5-.98 4.59-2.6 3.91-1.14-.74-3.1-3-2.82-4.7.25-1.56-.92 3.72-1.83 5.94-1.35 2.25-3.66-2.03-5.3-4.55-.9 3.8-.56 8.83 4.52 10.91 4.43 4.93 3.53 11.35-1.09 6.95l-4.45-3.8c-.34 2.77 1.81 6.66 2.88 9.16 12.36 1.4 24.18 1.17 35.98.87 2.02-2 5.5-10.74 3.42-7.69-.64.94-2.07 1.1-3.09.59-2.88-1.4.32-4.3.87-7.38.76-5.13-.21-9.03-2.69-14.31-2.42 2.36-4.75 5.2-3.6 11.48-.04 2.88-9.6 7.6-6.52-.43 2.04-3.22 4.39-2.12 3.58-8.8-1.01-2.83-2.75-9.05-1.3-11.94-4.61.5-1.6 7.75-2.06 9.77.86 2.24-.93 6.22-3.04 7.93-5.18-2.9-4.32-8.87-.87-10.64 2.8-2.8.89-6.06-1.96-8.25z"/>
  <path fill="#c42d28" stroke="#c42d28" d="M553.62 195.63c-2.02 1.94 1.05 4.18-.39 8.53-3.58 4.72-3.78 9.65.67 12.88.3-1.08-2.78-6.98.3-11.25 6.34-4.5-.33-6.7-.58-10.16zm17.63 15.91c-3.05 6.4-.49 11.63-.43 11.62 1.28-2.66 2.46-8.67.43-11.62zm-7.71-2.6c-1.52 10.09-8.42 7.5-8.49 15.95-.04 5.36 6.07 8.22 10.34 9.35-3.86-1.88.62-9.5 2.71-11.51-3.03 1.86-4.54 3.4-6.62 2.6-3.44-2.4-1.88-6.84-.17-8.45 2.02-1.9 3.77-3.98 2.23-7.94zm-27.35 7.6c4.46 4.55 6.07 3.58 6.84-.11 2.73 2.95 4.01 4.3 7.49 3.8-3.82 3.44-3.87 7.43-3.8 13.25-1.72-3.49-2.18-7.5-4.22-10.02-1.45-1.81-4.98-2.28-6.31-6.92zm.11 13.46c.96 3.62 2.05 3.63 5.47 4.43z"/>
  <path fill="none" stroke="#040000" d="M538.24 236.73c10.89 1.28 22.34.75 34.96-.28l-8.32 7.34c-4.77 13.96-6.8 30.45-5.68 49.83-2.1 2.99-4.2 3.73-6.3-.22.27-15.75.24-31.62-5.73-49.64-2.32-2.84-6.3-4.96-8.93-7.03z"/>
  <g font-weight="700" letter-spacing="0" word-spacing="0">
    <path d="M79.64 709.1q2.96 0 4.86-2.52 1.9-2.64 2.96-7.1 1.12-4.6 1.51-10.67.45-6.19.45-13.18 0-6.53-.45-12.72-.4-6.19-1.56-11-1.12-4.82-3.19-7.68-2.06-2.98-5.42-2.98-3.07 0-4.91 2.75-1.84 2.75-2.85 7.45-.95 4.58-1.28 10.66-.28 5.96-.28 12.6 0 7.23.44 13.53.45 6.3 1.57 11 1.17 4.59 3.13 7.23 1.95 2.63 5.02 2.63zm19.33-34.38q0 9.74-1.51 17.19-1.5 7.45-4.19 12.6-2.62 5.05-6.25 7.69-3.58 2.63-7.82 2.63-4.03 0-7.54-2.17-3.52-2.3-6.15-7-2.62-4.81-4.13-12.26-1.51-7.45-1.51-17.77 0-10.43 1.45-17.88 1.45-7.56 4.02-12.38 2.63-4.93 6.15-7.22 3.57-2.3 7.7-2.3 4.08 0 7.66 2.53 3.63 2.4 6.3 7.34 2.69 4.81 4.25 12.15 1.57 7.22 1.57 16.85zm20.84 38.39v-4.81q1.79 0 2.52-1.03.72-1.03.72-2.87v-18.22q0-7.22-1.11-10.9-1.07-3.66-3.58-3.66t-3.69 3.33q-1.11 3.2-1.11 9.62v19.83q0 1.84.83 2.87.9 1.03 2.85 1.03v4.81h-14.07v-4.81q3.07 0 3.07-4.36v-28.3q0-3.1-2.62-3.1h-1.07v-4.36l10.4-4q.38.9.38 3.09v4.12q1.34-3.44 3.41-5.16 2.07-1.72 4.41-1.72 1.8 0 3.47 1.04 1.67.91 2.96 2.98 1.28 1.95 2.06 4.93.79 2.86.79 6.76v24.64q0 3.44 3.51 3.44v4.81zm39.56-11.91q-1.57 6.64-4.08 10.3-2.46 3.68-5.86 3.68-2.8 0-5.09-1.6-2.23-1.61-3.85-4.7-1.62-3.22-2.51-7.8-.9-4.7-.9-10.66 0-6.3.9-11.12.95-4.93 2.57-8.25 1.61-3.33 3.8-5.05 2.17-1.71 4.69-1.71 2.73 0 4.74 1.6 2.07 1.49 3.41 4.36 1.34 2.75 2.01 6.53.67 3.78.67 8.25v1.5q0 .8-.06 1.6h-14.46q-.62 0-.62.91 0 3.9.34 7.34.33 3.44 1.06 5.96.78 2.52 1.9 4.01 1.17 1.38 2.85 1.38 2.12 0 3.74-2.75 1.68-2.75 2.96-6.42zm-8.88-17.77q.84 0 1.34-.92.56-1.03.56-2.75 0-2.06-.17-3.9-.17-1.83-.56-3.2-.4-1.38-1.12-2.18-.67-.92-1.73-.92-1.17 0-1.95 1.14-.79 1.15-1.29 2.98-.44 1.84-.67 4.25-.17 2.4-.17 4.8 0 .7.84.7zm48.71 29.68v-4.7l1.61-.45q.9-.23 1.57-.46.72-.35 1.17-.69.45-.46.45-.92 0-.57-.17-1.26-.11-.8-.28-1.72l-2.46-13.98q-.22-1.26-1.12-1.72-.89-.57-1.84-.57h-8.15q-1.8 0-2.18 2.29l-1.8 11.69q-.11.57-.17 1.26-.05.69-.05 1.5 0 4.46 4.74 4.46v5.27h-13v-5.27q3.12-.46 4.63-7.8l13.23-64.75 5.2 1.49 13.01 67.16q.23 1.27.73 2.07.5.8 1.12 1.26.67.46 1.34.8.67.23 1.28.34v4.7zm-4.48-59.03l-4.4 21.9q-.62 2.75-.62 3.44 0 .91 1.73.91h6.87q1.34 0 1.34-.46 0-.57-1.06-6.19zm26.3 59.26q.72-6.99.72-17.08v-45.04q0-8.25-3.52-8.25v-4.36l9.78-3.67v36.45q2.62-7.1 7.04-7.1 1.9 0 3.68 1.49 1.85 1.49 3.24 4.47 1.4 2.86 2.24 7.33.89 4.47.89 10.32 0 6.87-.9 12.03-.89 5.05-2.45 8.48-1.5 3.44-3.63 5.05-2.12 1.72-4.58 1.72t-4.08-1.6q-1.62-1.61-3.07-4.6-.28 1.38-.95 2.64-.67 1.26-1.62 2.87zm6.81-21.66q0 2.18.06 5.39.1 3.2.67 6.19.56 2.86 1.67 5.04 1.18 2.06 3.3 2.06 1.5 0 2.34-1.6.84-1.72 1.23-4.36.45-2.63.5-5.96.12-3.44.12-6.76t-.11-6.88q-.12-3.67-.62-6.65-.5-2.98-1.5-4.92-1.01-1.95-2.86-1.95-1.78 0-2.73 1.72t-1.45 4.35q-.45 2.52-.56 5.5-.06 2.98-.06 5.4zm45.4-2.64q0 6.88-1.12 11.81-1.12 4.93-2.96 8.14-1.79 3.1-4.08 4.58-2.23 1.6-4.58 1.6-2.62 0-4.97-1.71-2.35-1.72-4.08-4.93t-2.73-7.8q-1.01-4.58-1.01-10.31 0-7.34 1.12-12.27 1.11-5.04 2.9-8.13 1.84-3.1 4.19-4.36 2.35-1.37 4.8-1.37 2.52 0 4.8 1.71 2.3 1.72 3.97 4.93 1.73 3.21 2.74 7.8 1 4.58 1 10.31zm-12.52 20.98q1.74 0 2.68-1.83.95-1.84 1.4-4.36.5-2.64.56-5.39.11-2.75.11-4.58 0-3.56-.11-7.8-.06-4.24-.56-7.9-.45-3.67-1.45-6.08-1-2.52-2.85-2.52-1.79 0-2.8 1.95-1 1.83-1.5 4.47-.45 2.52-.56 5.27-.05 2.75-.05 4.47 0 3.55.05 7.8.11 4.23.56 7.9.5 3.67 1.5 6.2 1.07 2.4 3.02 2.4zm25.15 5.28l-9.16-41.39q-.4-1.6-1.12-2.06-.67-.57-1.84-.57v-4.82h14.4v4.82q-3.29 0-3.29 2.18 0 .68.06 1.37.05.57.16 1.15l5.09 24.18 4.47-22.58q.39-1.72.39-3.67 0-2.63-3.08-2.63v-4.82h9.56v4.82q-1.46 0-2.13 1.49-.67 1.49-1.28 4.24l-7.88 37.25zM323 701.2q-1.56 6.64-4.07 10.3-2.46 3.68-5.87 3.68-2.8 0-5.08-1.6-2.24-1.61-3.86-4.7-1.62-3.22-2.5-7.8-.9-4.7-.9-10.66 0-6.3.9-11.12.94-4.93 2.56-8.25 1.62-3.33 3.8-5.05 2.18-1.71 4.69-1.71 2.74 0 4.75 1.6 2.06 1.49 3.4 4.36 1.35 2.75 2.02 6.53.67 3.78.67 8.25v1.5q0 .8-.06 1.6h-14.47q-.61 0-.61.91 0 3.9.33 7.34.34 3.44 1.07 5.96.78 2.52 1.9 4.01 1.17 1.38 2.84 1.38 2.13 0 3.75-2.75 1.67-2.75 2.96-6.42zm-8.88-17.77q.84 0 1.34-.92.56-1.03.56-2.75 0-2.06-.17-3.9-.16-1.83-.55-3.2-.4-1.38-1.12-2.18-.67-.92-1.73-.92-1.18 0-1.96 1.14-.78 1.15-1.28 2.98-.45 1.84-.67 4.25-.17 2.4-.17 4.8 0 .7.84.7zm34.58 29.68v-4.81q5.8 0 5.8-9.63v-51.8q0-3.45-2.28-3.45-1.74 0-3.02 1.27-1.23 1.14-2.18 3.55-.9 2.4-1.56 6.07-.62 3.56-1.12 8.37l-3.46-1.03 1.56-25.45q1.45.46 3.18.7 1.74.22 2.74.22h22.06q1.23 0 3.02-.23t3.24-.69v25.1l-3.24.58q-.28-9.06-1.9-13.53-1.56-4.47-5.47-4.47-2.4 0-2.4 2.98v51.81q0 9.63 5.92 9.63v4.81zm47.45 0v-4.81q3.52 0 3.52-3.9v-16.96q0-7.45-1-11.12-.95-3.78-3.3-3.78-2.51 0-3.85 2.86-1.29 2.87-1.74 8.03v20.06q0 4.81 3.91 4.81v4.81h-14.74v-4.81q3.52 0 3.52-4.81v-52.27q0-8.25-3.3-8.25v-4.36l10.61-3.67v37.25q1.4-3.78 3.52-5.61 2.13-1.84 4.47-1.84 1.79 0 3.4 1.04 1.63.91 2.86 2.86 1.28 1.84 2 4.7.79 2.75.79 6.53v24.53q0 3.9 3.74 3.9v4.81zm39.87-11.91q-1.56 6.64-4.08 10.3-2.45 3.68-5.86 3.68-2.8 0-5.08-1.6-2.24-1.61-3.86-4.7-1.62-3.22-2.51-7.8-.9-4.7-.9-10.66 0-6.3.9-11.12.95-4.93 2.57-8.25 1.62-3.33 3.8-5.05 2.17-1.71 4.69-1.71 2.73 0 4.75 1.6 2.06 1.49 3.4 4.36 1.34 2.75 2.01 6.53.67 3.78.67 8.25v1.5q0 .8-.05 1.6H422q-.61 0-.61.91 0 3.9.33 7.34.34 3.44 1.06 5.96.79 2.52 1.9 4.01 1.18 1.38 2.85 1.38 2.12 0 3.74-2.75 1.68-2.75 2.96-6.42zm-8.88-17.77q.84 0 1.34-.92.56-1.03.56-2.75 0-2.06-.17-3.9-.17-1.83-.56-3.2-.39-1.38-1.11-2.18-.67-.92-1.74-.92-1.17 0-1.95 1.14-.78 1.15-1.29 2.98-.44 1.84-.67 4.25-.16 2.4-.16 4.8 0 .7.83.7zm46.81-12.5q1.5 0 2.68-.34 1.23-.46 2.06-1.83.9-1.5 1.34-4.36.5-2.87.5-7.8 0-4-.5-6.64-.44-2.64-1.28-4.13-.78-1.6-1.9-2.18-1.12-.68-2.4-.68h-1.12q-1.67 0-1.67 5.61v21.2q.16 1.15.89 1.15zM497 701.88q0 1.6-.5 3.78-.5 2.07-1.5 4.02-.96 1.94-2.35 3.32-1.34 1.37-3.02 1.37-3.46 0-5.08-2.17-1.62-2.18-2.18-5.5-1.17-6.77-2.07-12.27-.89-5.5-1.9-9.4-.95-4.01-2.23-6.07-1.23-2.18-3.18-2.18-1.06 0-1.34.8v24.07q0 6.65 4.97 6.65v4.81H457.4v-4.81q4.8 0 4.8-6.65v-53.07q0-6.42-5.19-6.42v-5.04h11.91l2.68-.23q1.4-.11 3.18-.11 1.85-.12 4.64-.12 2.9 0 4.97 1.5 2.07 1.48 3.35 4.12 1.34 2.52 1.9 6.07.62 3.44.62 7.57 0 7.8-2.9 12.72-2.91 4.82-7.88 6.08 2 .57 3.46 1.37 1.45.8 2.46 2.18 1 1.26 1.67 3.2.73 1.84 1.29 4.36.78 3.67 1.23 7.34.44 3.55.89 6.42.5 2.86 1.06 4.7.61 1.72 1.73 1.72 1.23 0 1.9-5.27zm22.91-.68q-1.56 6.64-4.08 10.3-2.45 3.68-5.86 3.68-2.8 0-5.08-1.6-2.24-1.61-3.86-4.7-1.62-3.22-2.51-7.8-.9-4.7-.9-10.66 0-6.3.9-11.12.95-4.93 2.57-8.25 1.62-3.33 3.8-5.05 2.17-1.71 4.69-1.71 2.74 0 4.75 1.6 2.06 1.49 3.4 4.36 1.34 2.75 2.01 6.53.67 3.78.67 8.25v1.5q0 .8-.05 1.6h-14.47q-.61 0-.61.91 0 3.9.33 7.34.34 3.44 1.06 5.96.79 2.52 1.9 4.01 1.18 1.38 2.85 1.38 2.12 0 3.74-2.75 1.68-2.75 2.96-6.42zm-8.88-17.77q.84 0 1.34-.92.56-1.03.56-2.75 0-2.06-.17-3.9-.17-1.83-.56-3.2-.39-1.38-1.11-2.18-.67-.92-1.74-.92-1.17 0-1.95 1.14-.78 1.15-1.28 2.98-.45 1.84-.67 4.25-.17 2.4-.17 4.8 0 .7.84.7zm27.64-2.87q-1.11-5.84-2.79-8.6-1.67-2.86-3.35-2.86-.78 0-1.56.34-.79.35-1.46 1.15-.61.8-1.06 2.06-.39 1.26-.39 2.98t.84 3.1q.84 1.26 2.01 2.18 1.17.91 2.4 1.6 1.23.69 2.01 1.15 1.23.91 2.4 1.95 1.23 1.03 2.13 2.63.95 1.5 1.5 3.78.56 2.3.56 5.73 0 3.9-.72 7-.67 3.1-1.9 5.38-1.17 2.18-2.8 3.33-1.56 1.26-3.34 1.26-1.8 0-2.85-.69-1.06-.57-1.96-1.95-.67 1.03-1.56 1.6-.9.58-2.52.81-.33-4.01-.44-8.83-.06-4.92-.06-10.08h2.63q.56 4.12 1.11 6.87.62 2.64 1.34 4.25.79 1.6 1.8 2.29 1 .57 2.4.57 4.13 0 4.3-5.5 0-3.21-1.01-4.93-.95-1.72-2.4-2.87-1.46-1.14-3.19-2.06-1.73-1.03-3.18-2.63-1.45-1.6-2.46-4.25-.95-2.75-.95-7.45 0-6.53 2.18-11 2.24-4.58 6.48-4.58 1.23 0 2.29.57 1.12.46 2.23 1.83.4-.57 1.07-1.26.67-.69 1.78-.92.56 4.36.67 8.26.11 3.9.11 7.8zm23.96 19.94q0 3.33-.79 5.97-.72 2.63-1.95 4.47-1.23 1.83-2.85 2.75-1.56 1.03-3.24 1.03-1.34 0-2.57-.69-1.17-.69-2.12-2.06-.95-1.5-1.5-3.67-.57-2.18-.57-5.16v-31.06h-3.57l.28-4.7q1.23-.46 2.57-1.95 1.34-1.6 2.51-3.78 1.17-2.3 2.01-5.16.9-2.86 1.23-5.96l2.29-.69v16.62h3.97q.6 0 1.4-.34.77-.34 1.44-.8v6.76h-6.81v30.94q.06 1.15.28 2.19.22.91.67 1.6.5.57 1.4.57 1.45 0 2.56-2.29 1.12-2.3 1.4-5.85zm56.13-38.62q-.45-4.59-1.12-8.37-.67-3.78-1.68-6.53-.94-2.75-2.23-4.24-1.23-1.5-2.8-1.5-3.23 0-5.02 2.76-1.79 2.63-1.79 6.99 0 3.1.62 5.04.61 1.95 1.79 3.56 1.17 1.49 2.84 2.86 1.74 1.26 3.86 2.98 2.4 1.95 4.41 3.9 2.01 1.95 3.4 4.7 1.46 2.75 2.24 6.65.78 3.9.78 9.85 0 5.73-.95 10.2-.89 4.48-2.62 7.68-1.68 3.1-4.08 4.7-2.34 1.72-5.2 1.72-2.06 0-4.01-1.03-1.9-1.03-3.36-3.67-1.11 1.6-2.34 2.87-1.17 1.26-2.46 2.06-.67-4-.95-8.02-.28-4.13-.28-8.48 0-2.98.06-5.85.11-2.86.33-5.84h3.63q0 3.78.45 7.68.5 3.9 1.56 7.22 1.07 3.2 2.74 5.27 1.73 2.06 4.13 2.06 2.18 0 3.64-.91 1.5-1.04 2.4-2.76.95-1.71 1.34-3.9.44-2.29.44-4.8 0-4.02-1-6.65-1-2.76-3.3-4.36-3.4-2.4-6.25-4.7-2.85-2.4-4.97-5.62-2.07-3.32-3.24-7.79-1.18-4.47-1.18-11 0-4.93.9-8.83.95-4.01 2.51-6.76 1.57-2.75 3.63-4.13 2.12-1.49 4.47-1.49 2.07 0 3.97 1.6 1.9 1.5 3.18 5.16.61-2.29 1.79-3.78 1.17-1.49 2.34-2.18.84 5.62 1 12.61.23 6.88.23 13.07zm9.57 51.23v-4.81q3.69 0 3.69-6.07v-22.01q0-8.14-3.3-8.14v-4.24l10.61-3.78v38.62q0 5.62 4.2 5.62v4.81zm6.98-59.6q-1.68 0-2.46-1.72-.78-1.83-.78-5.84 0-7.11 3.46-7.11 3.24 0 3.24 7.1 0 4.02-.89 5.85-.9 1.72-2.57 1.72zm28.54 59.6v-4.81q1.78 0 2.5-1.03.74-1.03.74-2.87v-18.22q0-7.22-1.12-10.9-1.06-3.66-3.58-3.66-2.51 0-3.68 3.33-1.12 3.2-1.12 9.62v19.83q0 1.84.84 2.87.9 1.03 2.85 1.03v4.81H647.2v-4.81q3.07 0 3.07-4.36v-28.3q0-3.1-2.62-3.1h-1.06v-4.36l10.39-4q.39.9.39 3.09v4.12q1.34-3.44 3.4-5.16 2.07-1.72 4.42-1.72 1.78 0 3.46 1.04 1.67.91 2.96 2.98 1.28 1.95 2.07 4.93.78 2.86.78 6.76v24.64q0 3.44 3.52 3.44v4.81zm39.05-10.31q-.62 3.32-1.73 5.61-1.06 2.3-2.4 3.9-1.29 1.5-2.8 2.18-1.45.69-2.79.69-2.51 0-4.64-1.6-2.06-1.61-3.63-4.7-1.5-3.1-2.4-7.69-.84-4.58-.84-10.43 0-12.72 3.52-19.6 3.58-6.87 9.83-6.87 1.34 0 2.68.8t2.35 2.29q1.06 1.49 1.68 3.67.67 2.06.67 4.58t-1.01 4.36q-.95 1.72-2.23 1.72-2.63 0-2.63-5.62 0-.46.11-1.49.11-1.14.11-1.95 0-1.83-.89-2.63-.9-.92-1.84-.92-1.45 0-2.35 1.72-.9 1.6-1.4 4.24-.5 2.64-.66 5.85-.17 3.09-.17 6.19 0 4.24.22 7.9.28 3.67.9 6.42.66 2.75 1.78 4.36 1.12 1.6 2.85 1.6 3.46 0 5.64-6.87zm24.28-1.6q-1.56 6.64-4.07 10.3-2.46 3.68-5.87 3.68-2.8 0-5.08-1.6-2.24-1.61-3.86-4.7-1.62-3.22-2.5-7.8-.9-4.7-.9-10.66 0-6.3.9-11.12.94-4.93 2.56-8.25 1.62-3.33 3.8-5.05 2.18-1.71 4.69-1.71 2.74 0 4.75 1.6 2.06 1.49 3.4 4.36 1.34 2.75 2.02 6.53.67 3.78.67 8.25v1.5q0 .8-.06 1.6h-14.47q-.61 0-.61.91 0 3.9.33 7.34.34 3.44 1.07 5.96.78 2.52 1.9 4.01 1.17 1.38 2.84 1.38 2.13 0 3.75-2.75 1.67-2.75 2.96-6.42zm-8.88-17.77q.84 0 1.34-.92.56-1.03.56-2.75 0-2.06-.17-3.9-.16-1.83-.56-3.2-.39-1.38-1.11-2.18-.67-.92-1.73-.92-1.18 0-1.96 1.14-.78 1.15-1.28 2.98-.45 1.84-.67 4.25-.17 2.4-.17 4.8 0 .7.84.7zm29.27 29.68v-4.81q3.3 0 4.8-1.6 1.57-1.72 1.57-4.93v-48.6q0-3.9-1.68-3.9h-4.91v-4.7q2.12-.69 3.8-1.26 1.67-.69 3.07-1.6 1.45-1.04 2.73-2.53 1.29-1.49 2.63-3.78l3.46 1.15q-.5 4.81-.5 7.8v57.42q0 6.53 6.42 6.53v4.81zm43.35-33.24q-1.34 3.33-3.35 5.16-1.96 1.72-4.08 1.72-1.73 0-3.69-1.37-1.9-1.38-3.51-4.25-1.57-2.86-2.63-7.22-1-4.47-1-10.54 0-7.34 1-12.38 1-5.16 2.74-8.25 1.78-3.21 4.19-4.59 2.4-1.37 5.25-1.37 3.12 0 5.7 1.94 2.62 1.95 4.46 5.97 1.85 3.9 2.85 9.85 1.06 5.85 1.06 13.64 0 10.66-1.28 19.37-1.29 8.6-3.63 14.68-2.35 5.96-5.59 9.28-3.24 3.2-7.15 3.2-5.42 0-5.42-8.24 0-4.82 2.3-4.82 1.9 0 1.9 3.44 0 1.5-.4 3.1.84.45 1.9.45 1.57 0 3.07-1.72 1.51-1.71 2.68-5.27 1.18-3.55 1.85-8.94.72-5.39.78-12.84zm-4.47-.57q1.45 0 2.3-1.03.88-1.15 1.33-3.32.5-2.3.67-5.62.17-3.33.17-7.8 0-5.04-.17-8.6-.17-3.66-.72-5.95-.5-2.3-1.51-3.33-1-1.03-2.68-1.03-1.46 0-2.3 1.03-.83 1.04-1.28 3.33-.39 2.18-.5 5.61-.11 3.44-.11 8.14 0 4.59.1 8.14.18 3.44.68 5.73.5 2.3 1.45 3.55.95 1.15 2.57 1.15zm24.67-3.44q-.95 0-.95-2.52 0-2.86.95-2.86 1.84 0 2.96-1.04 1.17-1.03 1.79-2.98.67-1.95.84-4.81.22-2.98.22-6.65 0-5.62-.9-8.94-.83-3.44-2.84-3.44-1.9 0-3.02 1.38-1.06 1.26-1.12 3.2.45.7.73 1.73.28 1.03.28 2.29 0 5.5-2.57 5.5-2.51 0-2.51-5.27 0-7.34 2.51-11.46 2.51-4.13 7.6-4.13 2.18 0 4.02 1.15 1.9 1.03 3.24 3.2 1.4 2.18 2.18 5.62.78 3.33.78 7.91 0 3.78-.56 6.53-.5 2.75-1.5 4.7-.96 1.95-2.35 3.21-1.34 1.26-3.02 2.07 4.3 1.37 6.81 6.41 2.52 4.93 2.52 13.87 0 6.08-1.12 10.66-1.06 4.47-3.07 7.57-2.01 2.98-4.86 4.47-2.8 1.49-6.2 1.49-8.88 0-8.88-11.7 0-6.18 3.07-6.18 1.12 0 1.68 1.03.55 1.03.55 3.44 0 3.32-.95 4.24.4 2.86 3.13 2.86 2.24 0 3.63-1.03 1.46-1.14 2.3-3.32.83-2.3 1.11-5.62.34-3.32.34-7.68 0-7.45-.9-11.12-.9-3.78-3.18-3.78zm21.02-1.49l3.13-38.17q2.34.58 4.46.92 2.18.34 4.14.34 1.34 0 2.73-.23 1.46-.22 2.69-.68 1.28-.46 2.29-1.15 1-.69 1.56-1.72h1.28q-.67 3.67-1.9 6.42-1.17 2.75-2.68 4.59-1.5 1.83-3.24 2.75-1.67.8-3.4.8-1.46 0-2.74-.23-1.28-.23-2.51-.69l-1.62 18.34q.56-.69 1.17-1.03.67-.46 1.5-.69.85-.23 1.9-.34 1.12-.12 2.58-.12 2.17 0 4.19 1.15 2.06 1.03 3.57 3.9 1.56 2.75 2.51 7.8.95 4.92.95 12.6 0 6.3-1.11 11.12-1.07 4.81-2.96 8.14-1.85 3.2-4.42 4.92-2.51 1.6-5.36 1.6-5.64 0-7.99-2.4-2.34-2.4-2.34-7.45 0-5.04 2.06-5.04 2.02 0 2.02 4.12 0 1.72-.73 2.98.67 1.27 1.73 1.72 1.12.46 2.68.46 2.24 0 3.69-1.26 1.45-1.37 2.23-3.9.84-2.63 1.12-6.3.33-3.78.33-8.71 0-4.36-.22-7.68-.17-3.44-.78-5.73-.62-2.3-1.73-3.44-1.12-1.26-2.9-1.26-3.58 0-5.42 5.62z" aria-label="One Above The Rest Since 1935" font-family="Marion" font-size="80.01" style="line-height:1.25;-inkscape-font-specification:'Marion Bold'"/>
    <g fill="#030000" stroke-width=".83" aria-label="Sigma Phi Lambda Fraternity" font-family="Marion" font-size="80.01" style="line-height:1.25;-inkscape-font-specification:'Marion Bold'">
      <path d="M40.64 197.68q-3.52-3.32-6.72-5.81-3.2-2.5-6.04-3.88-2.78-1.43-5.06-1.57-2.21-.18-3.76 1.1-3.2 2.68-3.13 6.37 0 3.6 2.92 7.1 2.08 2.49 4 3.55 1.9 1.06 4.15 1.39 2.16.23 4.74-.05 2.56-.41 5.81-.78 3.69-.41 6.98-.5 3.3-.1 6.53.96 3.28 1.02 6.67 3.51 3.39 2.5 7.38 7.29 3.85 4.6 5.9 8.99 2.12 4.33 2.56 8.35.42 3.87-.88 7.14-1.17 3.32-3.99 5.67-2.04 1.7-4.67 2.49-2.57.74-5.78-.19-.03 2.22-.4 4.24-.31 1.99-1.05 3.7-3.35-2.68-6.32-5.68-3.04-3.1-5.97-6.6-2-2.4-3.86-4.75-1.81-2.4-3.6-4.98l3.6-3q2.54 3.05 5.6 5.82 3.1 2.72 6.39 4.52 3.2 1.7 6.24 1.98 3.1.24 5.48-1.75 2.15-1.8 2.98-3.73.8-2.07.53-4.2-.22-2.16-1.29-4.24-1.1-2.21-2.79-4.24-2.69-3.23-5.45-4.52-2.84-1.38-6.18-.79-5 .88-9.35 1.38-4.43.42-8.69-.41-4.27-.97-8.43-3.6t-8.54-7.89q-3.3-3.96-5.04-7.84-1.75-4-2.05-7.51-.3-3.5.83-6.32 1.1-2.95 3.42-4.88 2.05-1.71 5-1.99 2.88-.36 6.61 1.53-.93-2.35-.77-4.52.17-2.17.87-3.69 4.6 3.83 9.45 9.32 4.83 5.35 8.99 10.33zm43.34 33l-3.15-3.95q3.72-2.96-.25-7.94l-14.37-18.02q-5.31-6.67-8.63-4.03l-2.77-3.47 8.22-11.62 25.22 31.64q3.67 4.6 7.9 1.24l3.14 3.95zM52.1 176.24q-1.7 1.34-3.6.56-1.99-.87-4.6-4.16-4.65-5.82-1.16-8.6 3.27-2.6 7.9 3.22 2.63 3.29 2.92 5.5.22 2.13-1.46 3.48zm68.87 48.8q-3.22 2.31-6.98 1.03-3.64-1.23-5.95-4.45-1.68-2.34-2.32-5.44-.56-3 .84-6.22-2.57.37-4.92-1.05-2.29-1.45-3.9-3.7-1.97-2.72-2.55-6-.53-3.32 1.2-5.6-1.61-.02-3.12-.27-1.58-.34-3.2-1.25-1.57-.94-3.25-2.54-1.7-1.74-3.6-4.37-5.18-7.21-4.81-13.1.43-5.93 5.45-9.55 2.04-1.47 4.66-2.02t5.6.26q-.85-5.6 1.9-7.58 2.69-1.94 5.56 2.06 3.09 4.29.93 5.84-1.17.84-3.04-.03-.2.45-.35 1-.08.5-.17.86 1.64 1.18 3.2 2.72 1.61 1.5 3.16 3.65 5.82 8.09 5.13 13.9-.7 5.69-6.6 9.93-.64.47-1.42.73-.78.27-1.82.43-1.92 2.27-.03 4.9 1.34 1.85 2.77 2 1.37.05 3.42-1.42l6.42-4.63q2.28-1.64 4.73-1.92 2.39-.39 4.62.37 2.29.72 4.28 2.25 2.05 1.62 3.6 3.77 1.61 2.24 2.45 4.89.98 2.7.9 5.42-.09 2.72-1.36 5.27-1.27 2.54-3.96 4.48zm-19.69-37.32q2.4-1.73 1.57-4.23-.9-2.61-3.92-6.8-4.42-6.14-7.3-8.8-2.84-2.7-5.06-1.1-2.28 1.64-1.18 4.4 1.1 2.76 4.54 7.54 2.04 2.82 3.64 4.93 1.59 1.96 2.93 3.2 1.33 1.12 2.54 1.44 1.13.22 2.24-.58zm22.98 28.59q3.27-2.36 3.11-4.91-.02-2.5-2.48-5.91-1.54-2.14-3.43-2.56-1.9-.4-5 1.82l-4.66 3.36q-.73 1.7-.53 3.34.2 1.63 1.74 3.78 2.04 2.82 4.45 3.46 2.47.73 5.16-1.2zm39.14-43.13l-2.61-4.32q1.97-1.19 2.15-2.7.12-1.62-1.18-3.77l-10.92-18.1q-3.17-5.24-5.76-7.18-2.6-2.08-4.95-.67-1.9 1.16-1.9 3.96-.05 2.7 1.5 7.08l11.54 19.13q1.74 2.88 3.47 3.93 1.73.92 3.64-.23l2.6 4.32-14.96 9.03-2.61-4.31q1.79-1.08 1.6-3.07-.2-2.13-2-5.11l-8.25-13.68q-3.9-6.47-6.87-9.17-2.98-2.7-5.32-1.28-2.77 1.67-2.27 5.44.5 3.62 3.98 9.38l10.05 16.65q2.8 4.63 6.37 2.47l2.6 4.32-15.03 9.07-2.6-4.32q3.38-2.04.78-6.36l-15.33-25.4q-1.42-2.36-5.5.1l-2.35-3.91 9.3-10.52q.98.53 2.16 2.48l2.23 3.7q-.32-3.87.79-6.78 1.16-2.95 3.56-4.4 2.35-1.4 5.43-.89 3.1.52 6.62 3.58-.5-4.6.72-7.86 1.28-3.3 4-4.94 1.97-1.19 4.25-1.58 2.34-.44 4.82.45 2.53.86 5.13 3.22 2.66 2.32 5.27 6.64l12.1 20.05q2.6 4.31 6.48 1.97l2.6 4.32zm41.66-31.82q1.1 3.61-.1 6.23-1.1 2.58-3.3 3.68-1.86.94-4.42.34-2.49-.63-4.63-3.45-.72 3.86-1.59 6.45-.93 2.48-3.37 3.71-3.47 1.75-7.08.34-3.6-1.54-6.08-6.48-2-3.97-2.5-7.35-.54-3.49.3-6.6.85-3.12 2.99-6.08 2.14-2.95 5.46-6.1l-1.73-3.44q-2.43-4.83-4.13-6.93-1.7-2.1-3.82-1.03-2.06 1.04-3.05 2.75-1 1.7.35 4.53.52.4 1.08 1.2.63.76 1.11 1.72 2.38 4.72-1.09 6.47-2.76 1.4-5.46-3.97-1.3-2.57-1.8-5.15-.47-2.72.08-5.14.55-2.43 2.31-4.53 1.71-2.2 4.92-3.82 2-1 4.3-1.09 2.24-.19 4.57.92 2.34.98 4.64 3.31 2.25 2.23 4.25 6.2l11.34 22.52q1.62 3.22 3.3 2.37.45-.22.73-.77l.55-1.48zm-21.7-10.59q-3.23 2.7-3.84 5.97-.55 3.23 2.1 8.49 1.73 3.43 3.17 4.85 1.5 1.4 3.24.52 1.68-.84 2.08-2.12.35-1.38-.03-2.94-.37-1.7-1.3-3.52-.84-1.85-1.63-3.74zm38.78 10.19l-2.02-4.62q5.87-2.57 2.74-9.72l-22.14-50.6q-2.5-5.72-8.63-3.04l-2.12-4.84 14.9-6.52q2.5-1.1 4.1-1.93 1.62-.97 3.8-1.92 8.7-3.8 15.08-.18 6.34 3.52 11.15 14.52 1.83 4.18 2.54 8.33.78 4.11-.06 7.76-.84 3.64-3.35 6.7-2.56 2.96-7.24 5-1.98.87-3.4 1.23-1.34.33-2.72.4l8.71 19.92q1.6 3.63 4.1 4.89 2.52 1.26 5.69-.13l2.02 4.62zm.18-45.03q1.55-.03 2.97-.39 1.41-.35 3.2-1.13 2.04-.9 2.63-2.6.61-1.84.22-4.16-.32-2.35-1.39-5.15-1.12-2.92-2.42-5.9-1.78-4.06-3.47-6.86-1.75-2.9-3.67-4.43-1.86-1.54-4.07-1.75-2.21-.22-4.92.97-2.37 1.04-.2 5.99z"/>
      <path d="M278.06 119.89l-1.57-4.8q4.3-1.4 3.04-5.29l-5.54-16.88q-2.44-7.42-4.87-10.67-2.4-3.38-5.27-2.44-3.07 1.01-3.78 4.4-.64 3.37.5 8.69l6.55 19.96q1.58 4.8 6.36 3.22l1.57 4.8L257 126.8l-1.57-4.8q4.3-1.4 2.73-6.2L241.1 63.78q-2.7-8.22-6.73-6.9l-1.42-4.33 11.8-7.92 12.16 37.08q.48-4.32 2.48-7 2-2.68 4.87-3.62 2.19-.72 4.5-.34 2.29.26 4.43 1.7 2.17 1.32 4 3.88 1.85 2.42 3.09 6.18l8.01 24.42q1.27 3.88 5.85 2.38l1.58 4.79zm23.19-7.45l-1.25-4.89q4.6-1.17 3.02-7.34l-5.7-22.33q-2.12-8.26-6.23-7.21l-1.1-4.3 12.26-7.23 10.03 39.2q1.45 5.7 6.68 4.37l1.25 4.88zm-6.75-62.72q-2.1.53-3.52-.96-1.45-1.61-2.5-5.69-1.84-7.2 2.49-8.31 4.04-1.04 5.89 6.17 1.04 4.08.4 6.22-.67 2.03-2.76 2.57zM336.23 103l-.8-4.99q6.11-.97 5.24-6.43l-8.75-54.9q-1.28-8.06-8.17-6.97l-.84-5.21 24.95-3.98.83 5.22q-6.4 1.02-5.1 9.08l8.74 54.9q.62 3.92 4.75 3.26l1.2-.2q3.13-.49 5.3-1.08 2.14-.7 3.5-2.74 1.33-2.16 1.98-6.28.71-4.25.9-11.7l4.24.06 1.76 25.62zm75.95-16.58q-.46 3.75-2.6 5.67-2.06 1.9-4.5 2.03-2.09.1-4.19-1.47-2.02-1.58-2.84-5.03-2.22 3.24-4.06 5.26-1.85 1.9-4.58 2.03-3.88.2-6.62-2.55-2.67-2.87-2.95-8.39-.22-4.43.7-7.73.9-3.4 2.94-5.92 2.03-2.5 5.18-4.35 3.15-1.84 7.47-3.38l-.2-3.84q-.27-5.4-.98-8-.7-2.61-3.08-2.5-2.3.12-3.9 1.29-1.6 1.16-1.5 4.28.3.59.5 1.54.27.95.32 2.03.27 5.27-3.61 5.47-3.1.16-3.4-5.84-.14-2.88.45-5.43.65-2.68 2.14-4.68 1.48-2 3.94-3.2 2.46-1.33 6.05-1.51 2.23-.12 4.36.74 2.13.73 3.82 2.69 1.75 1.83 2.91 4.9 1.16 2.95 1.38 7.39l1.28 25.18q.18 3.6 2.05 3.5.5-.02.99-.4l1.1-1.15zm-15.56-18.44q-4.05 1.16-5.93 3.9-1.8 2.74-1.5 8.62.19 3.83.93 5.72.82 1.88 2.76 1.78 1.87-.1 2.75-1.1.88-1.13 1.16-2.7.35-1.7.24-3.74-.03-2.04.01-4.09zm60.21 24.37v-5.04q2.3 0 3.24-1.2.94-1.32.94-3.84V61.13q0-6.12-1.22-9.12-1.15-3.12-3.88-3.13-2.23 0-3.67 2.4-1.44 2.29-2.38 6.85v22.33q0 3.37.93 5.17 1 1.68 3.24 1.68v5.04h-17.5V87.3q2.1 0 2.96-1.8.93-1.92.94-5.4V64.13q0-7.56-1.15-11.4-1.15-3.85-3.88-3.85-3.24 0-4.76 3.48-1.44 3.36-1.44 10.09V81.9q0 5.4 4.17 5.4v5.05H415.8V87.3q3.96 0 3.96-5.04V52.6q0-2.77-4.74-2.77v-4.56l13.39-4.2q.57.96.57 3.24v4.33q1.73-3.49 4.18-5.4 2.52-1.93 5.32-1.93 2.74 0 5.11 2.05 2.38 2.04 3.81 6.48 1.95-4.2 4.68-6.36 2.81-2.16 5.98-2.16 2.3 0 4.46.84 2.23.84 3.89 2.88 1.72 2.05 2.73 5.4 1.08 3.37 1.08 8.41v23.42q-.01 5.04 4.52 5.04v5.05zm21.83-.37q1.05-7.3 1.22-17.87l.72-47.19q.14-8.64-4.4-8.71l.07-4.56L488.93 10l-.6 38.18q3.5-7.4 9.19-7.3 2.45.03 4.72 1.63 2.36 1.6 4.1 4.75 1.76 3.03 2.77 7.73 1.08 4.7.98 10.82-.11 7.2-1.34 12.59-1.24 5.26-3.3 8.83-2 3.58-4.77 5.21-2.76 1.76-5.93 1.71-3.16-.04-5.22-1.76-2.06-1.71-3.89-4.86-.38 1.43-1.26 2.74-.89 1.3-2.14 2.97zm9.13-22.55q-.03 2.28-.01 5.64.09 3.37.76 6.5.68 3.01 2.08 5.32 1.48 2.18 4.21 2.22 1.94.03 3.05-1.63 1.1-1.79 1.65-4.54.62-2.75.75-6.23.2-3.6.25-7.09.05-3.48-.03-7.2-.09-3.85-.69-6.98-.6-3.13-1.86-5.19-1.26-2.06-3.64-2.1-2.3-.03-3.55 1.75t-1.94 4.53q-.62 2.63-.81 5.75-.12 3.13-.16 5.65zm54.89 28.17q-2.2-.32-5.2-.16-3.02.16-7.04.78l.31-6.51q-.65 1-1.63 2.18-.96 1.07-2.19 1.98-1.22.92-2.6 1.44-1.33.53-2.68.33-2.92-.43-5.27-2.24-2.28-1.8-3.69-5.04-1.4-3.24-1.79-8.03-.29-4.9.7-11.55 1.1-7.49 3.1-12.53 2-5.17 4.49-8.2 2.5-3.15 5.36-4.3 2.87-1.15 5.64-.74 2.28.34 3.96 1.8 1.69 1.34 2.53 3.53l3.45-23.28q.46-3.09-4.74-3.86l.75-4.99 13.64-1.25q-.42 4.8-1.12 9.55-.62 4.64-1.36 9.63l-6.97 46.91q-1.34 9.03 3.3 10.2zm-17.89-6.9q2.14.32 3.54-.8 1.42-1.25 2.36-3.66 1.03-2.52 1.72-6.18.7-3.78 1.43-8.65 1.43-9.62.66-14.72-.77-5.09-4.55-5.65-1.92-.28-3.23 1.22-1.3 1.39-2.26 3.92-.89 2.53-1.5 5.72-.62 3.19-1.1 6.4-.58 3.91-1.07 7.72-.43 3.83-.31 7 .1 3.17 1.03 5.25 1 2.1 3.28 2.43zm52.61 9.84q-1.47 3.48-4.04 4.74-2.51 1.27-4.9.72-2.03-.46-3.62-2.55-1.52-2.08-1.37-5.61-3.01 2.5-5.34 3.95-2.3 1.32-4.96.7-3.79-.86-5.67-4.25-1.78-3.49-.55-8.87 1-4.33 2.77-7.25 1.8-3.04 4.45-4.9 2.64-1.85 6.17-2.77 3.53-.91 8.1-1.22l.86-3.75q1.21-5.26 1.24-7.97.03-2.7-2.29-3.23-2.24-.52-4.1.17-1.85.68-2.62 3.7.15.66.07 1.63 0 .98-.24 2.03-1.18 5.15-4.97 4.29-3.02-.7-1.68-6.55.65-2.8 1.91-5.1 1.37-2.4 3.34-3.92 1.97-1.52 4.67-2.01 2.72-.6 6.23.2 2.17.5 4 1.9 1.84 1.28 2.93 3.63 1.18 2.24 1.47 5.5.3 3.16-.69 7.49l-5.63 24.58q-.8 3.5 1.02 3.93.5.11 1.06-.13l1.37-.8zm-9.95-22q-4.21.02-6.77 2.15-2.48 2.14-3.8 7.87-.86 3.75-.65 5.77.27 2.03 2.16 2.46 1.83.42 2.95-.3 1.16-.85 1.86-2.29.8-1.54 1.25-3.53.52-1.98 1.12-3.93zM585.87 110l1.32-4.87q5.97 1.61 8.26-6.85l13.31-49.26q2.48-9.16-3.98-10.9l1.38-5.1 39.04 10.54-4.83 22.58-4.77-.54q.9-5.85.63-9.53-.2-3.67-1.5-5.76-1.23-2.07-3.46-3.17-2.24-1.1-5.23-1.91-3.75-1.02-4.82 2.92l-5.38 19.94q-.97 3.6 2.5 4.53 1.74.47 2.9.3 1.27-.29 2.24-1.4 1.07-1.2 2.01-3.3.98-2.23 2.34-5.6l3.75 1.02L623.37 94l-3.82-1.03.78-2.9q.38-1.4.6-3.07.27-1.8-.12-3.4-.36-1.7-1.63-3.05-1.28-1.34-3.85-2.03-1.32-.36-1.93.22-.6.59-.95 1.86l-5.6 20.75q-2.3 8.46 4.8 10.38l-1.32 4.87z"/>
      <path d="M618.28 119.66l1.5-4.81q4.33 1.34 6.07-4.27l7.25-23.28q2.28-7.34-2.25-8.75l1.32-4.24 14.72.43-2.97 9.52q.95-1.34 2.2-2.71 1.3-1.49 2.69-2.56 1.45-1.06 2.8-1.52 1.46-.55 2.7-.17 5.5 1.71 2.89 10.08-2.22 7.11-5.72 6.02-3.16-.98-1.6-6.03l.26-.8q.18-.57.39-1.01l-.69-.21q-1.85-.58-3.6 1.14-1.7 1.6-3.25 4.4-1.51 2.67-2.72 5.81-1.17 3.04-1.84 5.21l-3.72 11.93q-1.6 5.16 3.55 6.76l-1.5 4.82zm57.28 13.87q-2 3.2-4.74 4.04-2.68.86-4.95-.06-1.93-.79-3.17-3.1-1.17-2.29-.46-5.76-3.37 2-5.9 3.05-2.47.94-5-.09-3.6-1.46-4.93-5.1-1.2-3.73.87-8.85 1.67-4.12 3.9-6.72 2.25-2.7 5.16-4.12 2.9-1.41 6.53-1.76 3.64-.34 8.2.09l1.45-3.56q2.03-5 2.49-7.67.45-2.67-1.75-3.56-2.13-.87-4.07-.49-1.94.38-3.18 3.25.04.66-.19 1.6-.16.98-.56 1.98-1.99 4.9-5.6 3.44-2.86-1.17-.6-6.73 1.08-2.67 2.7-4.74 1.72-2.15 3.91-3.33 2.19-1.19 4.93-1.24 2.79-.17 6.12 1.18 2.07.84 3.64 2.52 1.62 1.56 2.32 4.05.81 2.4.57 5.67-.2 3.16-1.86 7.28l-9.48 23.37q-1.35 3.33.38 4.04.47.19 1.07.04l1.48-.57zm-6.32-23.3q-4.16-.64-7.02 1.05-2.8 1.72-5 7.17-1.45 3.56-1.57 5.58-.06 2.05 1.75 2.78 1.73.7 2.96.17 1.27-.65 2.2-1.96 1.02-1.4 1.79-3.29.83-1.86 1.73-3.7zm32.06 25.87q-1.4 3.19-3.42 5.32-1.96 2.16-4.18 3.29-2.22 1.13-4.51 1.17-2.28.2-4.26-.67-1.59-.69-2.75-1.98-1.1-1.27-1.65-3.07-.5-1.92-.24-4.3.25-2.38 1.5-5.25l12.98-29.83-4.23-1.84 2.3-4.37q1.64.19 3.85-.55 2.25-.86 4.55-2.35 2.34-1.6 4.53-3.92 2.25-2.29 3.94-5.09l3 .52-6.95 15.96 4.68 2.04q.73.32 1.8.39t2.05-.03l-2.83 6.5-8.05-3.5-11.93 27.41-1 2.32q-.42 1.13-.59 2.23-.11 1 .13 1.89.35.8 1.4 1.27 1.72.74 4-.88 2.28-1.63 4.1-4.9zm28.18 16.06q-5.22 5.03-9.95 6.74-4.66 1.75-8.46-.44-3.12-1.8-4.84-4.73-1.65-2.9-1.84-6.74-.13-3.96 1.27-8.7 1.46-4.84 4.57-10.25 3.3-5.72 6.82-9.51 3.63-3.87 7.18-5.84 3.55-1.98 6.88-2.14 3.33-.16 6.14 1.46 3.05 1.76 4.46 4.51 1.53 2.68 1.52 6.15.06 3.36-1.17 7.22-1.23 3.87-3.57 7.92l-.77 1.36q-.42.72-.9 1.42l-16.16-9.31q-.68-.4-1.16.44-2.04 3.53-3.47 6.87-1.42 3.34-1.93 6.1-.44 2.79.02 4.86.6 2 2.46 3.08 2.37 1.36 5.62-.1 3.31-1.41 6.66-3.91zm-.62-21.84q.93.54 1.97.03 1.17-.58 2.07-2.14 1.08-1.87 1.85-3.64.77-1.78 1.05-3.28.29-1.5-.1-2.7-.27-1.25-1.46-1.94-1.3-.75-2.78-.21-1.47.53-3 1.87-1.45 1.38-2.96 3.42-1.45 2.08-2.7 4.26-.37.63.57 1.17zm-4.5 35.42l2.45-4.41q3.96 2.2 6.82-2.94l11.84-21.31q3.73-6.72-.42-9.03l2.16-3.88 14.32 3.42-4.85 8.71q1.2-1.12 2.71-2.2 1.57-1.19 3.15-1.96 1.64-.74 3.06-.91 1.53-.25 2.67.38 5.03 2.8.77 10.46-3.61 6.5-6.82 4.73-2.9-1.61-.33-6.23l.4-.73q.3-.53.6-.91l-.63-.35q-1.7-.95-3.76.38-2 1.23-4.08 3.64-2.02 2.31-3.85 5.15-1.76 2.72-2.87 4.72l-6.06 10.92q-2.63 4.72 2.1 7.34l-2.46 4.4zm43.42 25.92l2.75-4.23q1.93 1.26 3.3.86 1.38-.4 2.42-2.01l10.4-16.02q4.12-6.34 5-10.35.95-3.97-1.77-5.73-2.72-1.76-5.88.34-3.04 2.03-6.7 7.67L766 179.62q-1.06 1.61-.74 3.1.38 1.54 2.5 2.91l-2.75 4.23-15.22-9.87 2.75-4.23q3.32 2.15 5.8-1.68l16.15-24.88q1.77-2.71-1.07-4.56l-1.15-.74 2.49-3.83 13.51 3.76q-.1 1.08-1.34 3l-2.35 3.62q3.4-2.08 6.62-2.14 3.22-.06 5.75 1.59 1.93 1.25 3.16 3.33 1.28 1.98 1.5 4.7.27 2.61-.58 5.78-.8 3.06-3.01 6.49l-14.06 21.65q-1.96 3.03 1.84 5.5l-2.74 4.23zm18.23 12.78l2.94-4.1q3.86 2.77 7.56-2.4l13.42-18.76q4.96-6.93 1.5-9.4l2.6-3.61 13.42 4.73-23.55 32.9q-3.43 4.8.96 7.94l-2.93 4.1zm43.66-45.54q-1.76-1.25-1.53-3.3.3-2.15 2.74-5.57 4.34-6.06 7.97-3.46 3.39 2.43-.94 8.49-2.45 3.41-4.5 4.3-1.99.8-3.74-.46zm.47 60.93q-2.23 2.68-4.77 4.16-2.48 1.52-4.93 1.99-2.44.47-4.66-.13-2.24-.46-3.9-1.83-1.33-1.1-2.09-2.67-.7-1.52-.72-3.41.06-1.99.96-4.2.9-2.22 2.9-4.62l20.8-25.03-3.55-2.94 3.42-3.56q1.53.64 3.86.55 2.4-.2 5.02-.98 2.7-.88 5.44-2.5 2.8-1.58 5.21-3.8l2.73 1.34-11.12 13.4 3.93 3.26q.6.5 1.61.87 1 .37 1.98.55l-4.53 5.45-6.75-5.61-19.11 23-1.61 1.93q-.71.97-1.18 1.99-.4.92-.41 1.84.11.88 1 1.62 1.44 1.2 4.08.26 2.64-.92 5.3-3.56zm24.26-18.74q2.04-3.61.1-5.65l3.67-3.47 12.36 13.08-3.66 3.46-1.24-1.3q-1.38-1.47-2.62-.5l-1.66 1.56q-.64.72-1.1 1.64l-12.73 21.14 18.91-10.94q1.47-.89 2.53-1.7 1.14-.88 1.98-1.57 2-1.9-1.06-5.14l3.67-3.46 8.8 9.31-3.67 3.46q-2.22-2.35-5.3-.53l-30.15 17.4q-5.04 2.88-9.47 5.18-4.47 2.44-8.17 3.77-3.7 1.32-6.48 1.36-2.8.18-4.38-1.5-3.17-3.34 1.46-7.71 4.8-4.54 6.97-2.24.84.9.49 1.92-.3 1.08-1.03 2.06-.67 1.03-1.27 1.8-.6.76-.2 1.18.54.57 2.94-.2 2.36-.66 7.58-3.7z"/>
    </g>
    <g style="line-height:1.25;-inkscape-font-specification:'Marion Bold'">
      <path fill="#090000" d="M46.2 650.96c0 1.27-.13 2.5-.4 3.71a12.92 12.92 0 0 1-.97 2.99 6.4 6.4 0 0 1-1.57 2.06c-.57.47-1.19.7-1.87.7-.68 0-1.31-.22-1.9-.66a5.73 5.73 0 0 1-1.6-2.04c-.37-.75-.68-1.69-.92-2.8a18.71 18.71 0 0 1-.36-3.86c0-1.4.1-2.76.3-4.07.22-1.32.68-3 1.4-5a102 102 0 0 1 2.12-5.44c.8-1.9 1.48-3.48 2.02-4.73l2.71 1.92c-.45.99-1.36 3.37-1.94 4.7a991.9 991.9 0 0 0-1.42 3.22l-.4 1.54c1.74-.18 1.7-.15 2.87.48a8.9 8.9 0 0 1 1.45 3.13c.32 1.2.47 2.59.47 4.15zm12 0c0 1.27-.13 2.5-.4 3.71a12.92 12.92 0 0 1-.97 2.99 6.4 6.4 0 0 1-1.57 2.06c-.57.47-1.19.7-1.87.7-.68 0-1.31-.22-1.9-.66a5.73 5.73 0 0 1-1.6-2.04c-.37-.75-.68-1.69-.92-2.8a18.71 18.71 0 0 1-.36-3.86c0-1.4.1-2.76.3-4.07.22-1.32.68-3 1.4-5a102 102 0 0 1 2.12-5.44c.8-1.9 1.48-3.48 2.02-4.73l2.71 1.92c-.45.99-1.36 3.37-1.94 4.7a991.9 991.9 0 0 0-1.42 3.22l-.4 1.54c1.74-.18 1.7-.15 2.87.48a8.9 8.9 0 0 1 1.45 3.13c.32 1.2.47 2.59.47 4.15z" aria-label="6" font-family="Skia" font-size="96" font-stretch="condensed" style="-inkscape-font-specification:'Skia, weight=193 Condensed';font-variant-ligatures:normal;font-variant-caps:normal;font-variant-numeric:normal;font-feature-settings:normal;text-align:start"/>
    </g>
    <g style="line-height:1.25;-inkscape-font-specification:'Marion Bold'">
      <path fill="#090000" d="M571.76 641.83c0-1.27.13-2.5.38-3.7.26-1.2.59-2.2.99-3 .46-.9.99-1.6 1.56-2.06.57-.47 1.19-.7 1.87-.7.68 0 1.31.22 1.9.66.6.44 1.12 1.12 1.6 2.05.37.74.68 1.68.92 2.8.24 1.14.36 2.42.36 3.85 0 1.4-.1 2.76-.3 4.07-.21 1.32-.68 3-1.4 5.01a102 102 0 0 1-2.12 5.44c-.8 1.9-1.48 3.47-2.02 4.73l-2.71-1.92c.45-1 1.36-3.37 1.94-4.7l1.43-3.23.39-1.54c-1.74.18-1.7.15-2.87-.48a8.9 8.9 0 0 1-1.45-3.13 16.4 16.4 0 0 1-.47-4.15zm-12 0c0-1.27.13-2.5.38-3.7.26-1.2.59-2.2.99-3 .46-.9.99-1.6 1.56-2.06.57-.47 1.19-.7 1.87-.7.68 0 1.31.22 1.9.66.6.44 1.12 1.12 1.6 2.05.37.74.68 1.68.92 2.8.24 1.14.36 2.42.36 3.85 0 1.4-.1 2.76-.3 4.07-.21 1.32-.68 3-1.4 5.01a102 102 0 0 1-2.12 5.44c-.8 1.9-1.48 3.47-2.02 4.73l-2.71-1.92c.45-1 1.36-3.37 1.94-4.7l1.43-3.23.39-1.54c-1.74.18-1.7.15-2.87-.48a8.9 8.9 0 0 1-1.45-3.13 16.4 16.4 0 0 1-.47-4.15z" aria-label="6" font-family="Skia" font-size="96" font-stretch="condensed" style="-inkscape-font-specification:'Skia, weight=193 Condensed';font-variant-ligatures:normal;font-variant-caps:normal;font-variant-numeric:normal;font-feature-settings:normal;text-align:start"/>
    </g>
  </g>
</svg>
