<svg xmlns="http://www.w3.org/2000/svg" viewBox="0 0 371.19 71.31">
  <g stroke="#0a0000" stroke-width="14.4">
    <path fill="#183cd7" stroke-linecap="square" stroke-width="1.9748160000000001" d="M3.66 4.63H28.2v23.65H4.6c-.96-7.89-.7-15.77-.94-23.65z"/>
    <path fill="#fef851" stroke-linecap="square" stroke-linejoin="round" stroke-width="1.9748160000000001" d="M4.6 28.28H28.2l.06 32.81C13.55 50.69 6.08 39.56 4.6 28.28z"/>
    <path fill="#fef851" stroke-linecap="square" stroke-width="1.9748160000000001" d="M52.7 4.63H28.2v23.65h23.58c.96-7.89.7-15.77.94-23.65z"/>
    <path fill="#183cd7" stroke-linecap="round" stroke-linejoin="round" stroke-width="1.9748160000000001" d="M51.77 28.28H28.19l-.06 32.81c14.7-10.4 22.17-21.53 23.64-32.81z"/>
  </g>
  <g stroke="#020000" stroke-linecap="round" stroke-linejoin="round" stroke-miterlimit="1.27" transform="translate(1 1.56) scale(.13714)">
    <path fill="gray" stroke-width="3.9" d="M185.49 110.56h13.14v373.51c-14.5-72.4-9.7-123.86-13.14-373.51zM211.78 110.56h-13.15v373.51c14.5-72.4 9.7-123.86 13.15-373.51z"/>
    <path fill="gray" stroke-width="3.9" d="M187.9 94.6c-22.31.47-19-.15-48.17 4.96l.05 3 .06 3.08c29.81 5.6 25.15 4.44 47.46 4.92h23.08c22.3-.48 17.64.68 47.46-4.92l.05-2.98.06-3.1c-29.17-5.1-25.48-4.49-47.8-4.97z"/>
    <ellipse cx="131.37" cy="102.73" fill="gray" stroke-width="3.9" rx="8.48" ry="8.25"/>
    <ellipse cx="-266.31" cy="102.73" fill="gray" stroke-width="3.9" rx="8.48" ry="8.25" transform="scale(-1 1)"/>
    <path fill="none" stroke-width="3.9" d="M140 102.34h117.69"/>
    <path fill="#fef851" stroke-width="4.21" d="M218.95 188.76H245v15.54h-26.05z" transform="skewY(-30.87) scale(.85831 1)"/>
    <path fill="#183cd7" stroke-width="4.21" d="M218.95 173.22H245v15.54h-26.05z" transform="skewY(-30.87) scale(.85831 1)"/>
    <path fill="#183cd7" stroke-width="3.9" d="M210.3 78.58l-.14 16.01H187.9l.03-2.64z"/>
    <path fill="#fef851" stroke-width="3.9" d="M210.3 47.5l-22.37 13.36-.2-24.72c7.4-2.94 14.8-3.13 22.2 0z"/>
    <path fill="gray" stroke-width="3.9" d="M191.28 14.57c-2.8 5.16-2.5 4.35-7.68 4.48-4.92.33-6.58 2.32-3.39 6.47 1.45 1.39 2.78 2.35 2.97 4.52 2.7 9.1 3.71 5.15 15.74 3.15 12.02 2.06 13.04 6.01 15.73-3.1.2-2.16 1.52-3.12 2.97-4.51 3.2-4.16 1.54-6.14-3.39-6.47-5.17-.13-4.88.68-7.67-4.48-1.76-3.37-4.53-4.87-7.7-4.77-3.17.02-5.82 1.34-7.58 4.71z"/>
  </g>
  <path fill="#1e490c" stroke="#000" stroke-width=".13714" d="M18.27 50.18l.26.43c2.14-4.63 2.15-9.92 1.88-14.48l-.26.03c.37 6.82-.48 11.38-1.88 14.02z"/>
  <path fill="#1e490c" stroke="#000" stroke-width=".13714" d="M19.7 45.58c-.16-1.6-.07-3.47-1.4-3.9l.26-.14c1.08.55 1.22 1.4 1.33 2.83zM19.22 41.93c.11-.25.3-.67.85-.86l.08.28c-.34.03-.62.36-.75.8zM18.46 40.12l.2.19c.04-.22.06-.44.34-.5l-.2-.13c-.2.04-.3.2-.34.44zM18.3 41.68c-.52.06-.82.06-1.1-.48-.4-.67-.3-1.34-.33-1.93.29-.08 1 .48 1.59.85l.2.19c.1.42.26.85-.08 1.12zM20.07 41.07a3.83 3.83 0 0 1 1.9-1.77c.66 1.31-1.13 3.3-1.82 2.05z"/>
  <path fill="#1e490c" stroke="#000" stroke-width=".13714" d="M18.56 38.3c.53-.58 1.2-.66 1.77-.87.07.95-.67 2.88-1.6 2.26-.65-.36-.46-1.1-.17-1.4zM18.9 35.4c.26.6-.2 1.17-.47 1.65.35-.2.8-.48.95-.8.65-.42 1.23.35 1.48.78 0-.32.1-.64-.16-.96.75.38 1.25.07 1.48-.3-.5-.02-1.35.36-.85-.77-.63.8-1.3 1.45-2.44.4z"/>
  <path fill="#8c1d1a" stroke="#000200" stroke-width=".13714" d="M18.9 35.4a2.67 2.67 0 0 1-.23-2.49c.1-.22-.64-.77.04-.93.85.03 1.63-.52 2.4-.77-.16.41 0 .82.15 1.2.41.9.45 1.84.07 2.59-.64.85-1.35 1.42-2.44.4z"/>
  <path fill="#c42d28" stroke="#000" stroke-width=".13714" d="M19.03 31.97c.53-.9.9-.76 1.5-.56-.7.27-.81.48-1.5.56z"/>
  <path fill="#c42d28" stroke="#8c1d1a" stroke-width=".13714" d="M19.55 35.44c-.6-.8-1.03-2.83-.05-3.37.27-.15.47-.22.78-.32.43-.15.6-.2.6.25-.24.96.98 1.1-.13 3.16-.37.73-.82.78-1.2.28z"/>
  <path fill="none" stroke="#000" stroke-width=".13714" d="M20.35 41.16a3.77 3.77 0 0 0 1.37-1.18M18.3 41.33a2.88 2.88 0 0 1-.92-1.33M18.8 39.41c.16-.56.5-.97.98-1.26"/>
  <g>
    <path fill="#d1d1d1" stroke="#040000" stroke-width=".13714" d="M39.61 15.19c1.5.17 3.07.23 4.8.1l-1.14 1a17.86 17.86 0 0 0-.77 6.83c-.3.41-.58.51-.87-.03.04-2.16.03-4.33-.79-6.8-.31-.4-.87-.82-1.23-1.1z"/>
    <path fill="#b6b6b6" stroke="#b6b6b6" stroke-width=".13714" d="M43.27 16.29l1.03-1c-1.54.03-3 .24-4.69-.1 2 .85 1.81 3.17 2.15 5.13 1.09-3.7-2.87-5.32 1.51-4.03z"/>
    <path fill="#f1813a" stroke="#f1813a" stroke-width=".13714" d="M42.05 9.84c-.25-.32-.1-.65-.06-.98-.39.3-.59.6-.66 1.16.08.55.31.63-.09 1.04-.2.14-.32.31-.3.84.21.89-.13.63-.35.53-.16-.1-.42-.4-.39-.64.04-.22-.12.5-.25.81-.18.31-.5-.27-.72-.62-.13.52-.08 1.21.62 1.5.6.67.48 1.55-.15.95l-.61-.52c-.05.38.24.91.4 1.25 1.69.2 3.3.16 4.92.12.28-.27.76-1.47.47-1.05-.08.13-.28.15-.42.08-.4-.2.04-.59.12-1.01.1-.7-.03-1.24-.37-1.97-.33.33-.65.72-.5 1.58 0 .4-1.3 1.04-.89-.06.28-.44.6-.3.5-1.2-.14-.4-.38-1.25-.18-1.64-.64.07-.22 1.06-.29 1.34.12.3-.12.85-.41 1.08-.71-.4-.6-1.21-.12-1.46.38-.38.12-.83-.27-1.13z"/>
    <path fill="#c42d28" stroke="#c42d28" stroke-width=".13714" d="M41.73 9.68c-.28.27.14.58-.05 1.18-.5.64-.52 1.32.09 1.76.04-.15-.38-.96.04-1.54.87-.62-.05-.92-.08-1.4zM44.15 11.87c-.42.87-.07 1.6-.06 1.6.17-.37.34-1.2.06-1.6zM43.1 11.51c-.22 1.38-1.16 1.03-1.17 2.19-.01.73.83 1.12 1.41 1.28-.53-.26.09-1.3.38-1.58-.42.26-.63.47-.91.36-.47-.33-.26-.94-.03-1.16.28-.26.52-.55.31-1.09zM39.34 12.55c.61.63.83.5.94-.01.37.4.55.59 1.02.52-.52.47-.53 1.02-.52 1.82-.23-.48-.3-1.03-.57-1.38-.2-.25-.69-.31-.87-.95zM39.35 14.4c.14.5.29.5.75.6z"/>
    <path fill="none" stroke="#040000" stroke-width=".13714" d="M39.62 15.32c1.5.18 3.06.1 4.8-.04l-1.15 1a17.86 17.86 0 0 0-.77 6.84c-.3.41-.58.51-.87-.03.04-2.16.03-4.33-.79-6.8-.31-.4-.86-.68-1.22-.97z"/>
  </g>
  <g stroke-width=".89" aria-label="NEWSLETTER" font-family="Bangla MN" font-size="85.71" font-weight="400" letter-spacing="0" style="line-height:1.25;-inkscape-font-specification:'Marion Bold'" word-spacing="0">
    <path d="M60.62 32.17h3.02l20.99 26.08h.24V32.17h2.36v36.5h-1.25l-22.73-29h-.2v28.16h-2.43zM118.2 32.17v2.31h-16.87v12.75h11.3v2.31h-11.3v15.97h16.88v2.32H95.94V32.17zM125.6 32.17l9.56 27.1 8.4-24.47 8.67 24.58 9.35-27.21h2.6l-12.31 35.95h-1.6l-7.92-22.24-7.58 22.24h-1.83L120.2 32.17zM179.1 66.4q1.19 0 2.35-.35 1.16-.37 2.07-1.07.92-.73 1.48-1.75.55-1.05.55-2.42 0-1.64-.77-2.9-.75-1.3-1.98-2.35-1.23-1.07-2.83-2.01-1.57-.94-3.2-1.88-1.65-.95-3.25-1.97-1.57-1.05-2.8-2.31-1.23-1.3-2-2.85-.75-1.59-.75-3.63t.68-3.8q.7-1.74 2.02-3 1.33-1.3 3.27-2.02 1.95-.73 4.46-.73 2.27 0 4.06.54 1.79.54 3.14 1.59t2.3 2.58q.94 1.53 1.52 3.55l-2.76 1.4q-.48-1.64-1.23-2.99-.75-1.37-1.79-2.34-1.03-.97-2.41-1.48-1.35-.53-3.07-.53-1.52 0-2.65.48-1.14.46-1.91 1.24-.75.75-1.14 1.72-.36.94-.36 1.93 0 1.4.77 2.59.78 1.15 2.06 2.2 1.28 1.02 2.9 1.99l3.33 1.96q1.69 1 3.3 2.07 1.65 1.08 2.93 2.37 1.28 1.26 2.05 2.8.77 1.5.77 3.39 0 2.12-.72 4-.73 1.86-2.17 3.26-1.45 1.37-3.6 2.17-2.15.81-5 .81-2.32 0-4.13-.56-1.81-.57-3.21-1.64-1.38-1.08-2.37-2.61-1-1.56-1.62-3.55l2.87-1.32q.51 1.75 1.36 3.12.87 1.37 2 2.34 1.14.94 2.51 1.45 1.4.51 2.97.51zM197.66 32.17h5.39V65.5h16.13v2.32h-21.52zM246.25 32.17v2.31h-16.88v12.75h11.3v2.31h-11.3v15.97h16.88v2.32h-22.27V32.17zM277.76 32.17v2.31h-11.6v33.35h-5.38V34.48H249.2v-2.31zM308.16 32.17v2.31h-11.6v33.35h-5.38V34.48h-11.6v-2.31zM335.66 32.17v2.31h-16.89v12.75h11.3v2.31h-11.3v15.97h16.89v2.32h-22.27V32.17zM342 32.17h11.11q2.88 0 5.05.7 2.17.67 3.62 1.9 1.45 1.24 2.18 2.97.74 1.69.74 3.7 0 1.67-.58 3.13-.55 1.45-1.59 2.63-1.01 1.16-2.46 2.02-1.45.83-3.19 1.32l11.66 17.29h-6.25l-11.13-16.76h-3.77v16.76H342zm5.39 17.1h3.11q1.81 0 3.34-.54 1.54-.53 2.65-1.5 1.14-1 1.77-2.4.62-1.4.62-3.14 0-1.61-.5-2.96-.49-1.34-1.4-2.28-.9-.97-2.15-1.51-1.24-.54-2.7-.54h-4.74z" style="-inkscape-font-specification:'Bangla MN, Normal';font-variant-ligatures:normal;font-variant-caps:normal;font-variant-numeric:normal;font-feature-settings:normal;text-align:start"/>
  </g>
  <g stroke-width=".52" aria-label="Sigma Phi Lambda" font-family="Marion" font-size="49.61" font-weight="400" letter-spacing="0" style="line-height:1.25;-inkscape-font-specification:'Marion Bold'" word-spacing="0">
    <path d="M69.45 9.44q-.5-2.27-1.69-3.61-1.18-1.38-2.92-1.38-1.43 0-2.29.84-.85.84-.85 2.13 0 1.01.6 1.77.63.73 1.86 1.32 1.54.72 2.8 1.23 1.25.47 2.14 1.12.9.64 1.38 1.62.5.98.5 2.66 0 1.04-.3 2.05-.28 1-.88 1.82-.6.79-1.59 1.29-.95.48-2.31.48-.88 0-1.53-.14-.63-.14-1.09-.34-.42-.2-.68-.4l-.35-.27q-.48.39-.95.7-.48.3-.96.45-.28-2.1-.43-3.73-.12-1.65-.12-2.89h.83q0 1.24.45 2.27.45 1.01 1.16 1.74.7.73 1.58 1.15.88.4 1.71.4.53 0 1.16-.2.65-.2 1.2-.62.59-.42.96-1.07.4-.64.4-1.54 0-1.12-.55-1.96-.53-.84-1.7-1.31-1.4-.56-2.68-1.04-1.25-.48-2.23-1.12-.96-.67-1.54-1.65-.58-1.01-.58-2.64 0-1.17.38-2.13.38-.95 1-1.62.66-.7 1.52-1.07.85-.39 1.78-.39 1.08 0 1.84.45l1.43.76q.78-.7 1.64-.98.35 1.28.5 2.74.15 1.43.15 3.11zM72.9 22.36v-.84q1.73 0 1.73-1.71v-5.58q0-2.21-1.53-2.21v-.76l3.62-.87v9.53q0 1.6 1.91 1.6v.84zM75.48 7.3q-1.34 0-1.34-1.7 0-1.6 1.44-1.6 1.36 0 1.36 1.6 0 1.7-1.46 1.7zM83.48 27.45q-1.53 0-2.51-.61-.98-.59-.98-1.82 0-1.6 2.19-2.36-1.61-.42-1.61-2.13 0-.44.15-.86t.42-.76q.28-.34.63-.53.38-.2.8-.2-1.9-1.12-1.9-3.61 0-.84.27-1.6.28-.76.8-1.32.56-.58 1.37-.92.8-.34 1.86-.34 1.69 0 2.97 1.2.43-.72.95-1 .53-.3 1.14-.3 1.05 0 1.05 1 0 1.1-.8 1.1-.53 0-.83-.43-.58.09-.93.56.35.45.5 1.01.15.56.15 1.04 0 2.18-1.13 3.22-1.1 1.04-3.62 1.04-.28 0-.58-.06l-.6-.14Q82 18.71 82 19.75q0 .62.43.87.43.22 1.43.22h2.87q.73 0 1.36.2.65.17 1.13.56.48.4.76.98.27.62.27 1.46 0 .78-.32 1.4-.3.64-.88 1.09-.56.45-1.34.67-.78.25-1.7.25zm1.31-9.69q2.3 0 2.3-2.63 0-3.87-2.22-3.87-2.19 0-2.19 2.97 0 3.53 2.11 3.53zm.7 8.85q3.13 0 3.13-2.24 0-1.48-3-1.48h-2.08q-.84.17-1.29.53-.45.36-.45 1.1 0 1.03.78 1.56.8.53 2.19.53zM104.88 22.36v-.84q1.6 0 1.6-1.4v-5.1q0-3.11-2.08-3.11-1.81 0-2.5 2.32v5.46q0 1.83 1.64 1.83v.84h-5.28v-.84q1.53 0 1.53-1.94v-3.84q0-3.83-2.08-3.83-2.52 0-2.52 3.41V20q0 1.52 1.63 1.52v.84h-5.15v-.84q1.4 0 1.4-1.4v-7.15q0-.87-1.7-.87v-.73l3.62-.98q.1.12.1.56v1.68q.4-.84 1.3-1.54.91-.7 2.15-.7.45 0 .95.2.53.2.96.53.45.31.75.73.33.42.43.9.48-1.07 1.46-1.71 1-.65 2.09-.65 1.5 0 2.41 1.07.9 1.06.9 3v5.65q0 1.4 1.64 1.4v.85zM122.08 21.18q-.38 1.48-2.01 1.48-1.44 0-1.81-1.82-1.82 1.82-3.85 1.82-1.34 0-1.97-.61-.62-.65-.62-2.02 0-3.45 6.24-4.7v-1.1q0-2.74-1.92-2.74-.83 0-1.43.3-.6.31-.6 1.18.15.11.22.36.08.23.08.48 0 1.07-1.16 1.07-.43 0-.73-.31t-.3-.96q0-.64.35-1.23t.9-1q.58-.45 1.31-.7.76-.29 1.54-.29 2.09 0 2.97.87.88.87.88 2.89v6.08q0 1.03.85 1.03.4 0 .78-.3zm-3.92-4.9q-.78.08-1.54.3-.75.2-1.36.6-.58.36-.95.95-.36.58-.36 1.45 0 1.82 1.59 1.82.7 0 1.16-.22.47-.25.75-.65.3-.39.45-.86.18-.48.26-.96zM131.02 22.36v-.84q2.29 0 2.29-2.02V6.33q0-1.68-2.4-1.68v-.87h5.5q.47-.03.82-.03l.73-.02q.38-.03 1-.03 5.64 0 5.64 5.43 0 1.07-.35 2-.33.92-1.03 1.62-.7.7-1.79 1.09-1.08.4-2.56.4-.8 0-1.59-.06-.75-.09-1.48-.26v5.47q0 2.13 2.49 2.13v.84zm5.83-17.71q-1.05 0-1.05 1.48v6.76q.63.14 1.38.22.76.08 1.69.08.83 0 1.4-.33.61-.37.99-.93.4-.58.58-1.34.17-.76.17-1.57 0-4.37-4.5-4.37zM153.63 22.36v-.84q1.64 0 1.64-1.18v-4.29q0-3.95-2.29-3.95-2.54 0-2.9 2.92v5.1q0 1.4 1.84 1.4v.84h-5.56v-.84q1.64 0 1.64-1.4V6.88q0-2.24-1.54-2.24v-.76l3.63-.84v9.7q1.58-2.24 3.64-2.24.91 0 1.59.28t1.1.78q.43.5.64 1.18.22.64.22 1.4v6.19q0 1.18 1.74 1.18v.84zM160.71 22.36v-.84q1.74 0 1.74-1.71v-5.58q0-2.21-1.54-2.21v-.76l3.63-.87v9.53q0 1.6 1.9 1.6v.84zm2.6-15.05q-1.34 0-1.34-1.7 0-1.6 1.43-1.6 1.36 0 1.36 1.6 0 1.7-1.46 1.7zM176.36 22.36v-.84q2.2 0 2.2-1.52V6.78q0-2.13-2.48-2.13v-.87h7.27v.87q-2.32 0-2.32 2.13V20q0 1.18 1.64 1.18h1.16q1.16 0 2.01-.17.86-.2 1.46-.53 1.1-.67 1.99-4l.68.1-.76 5.78zM200.8 21.18q-.37 1.48-2 1.48-1.44 0-1.82-1.82-1.8 1.82-3.85 1.82-1.33 0-1.96-.61-.63-.65-.63-2.02 0-3.45 6.24-4.7v-1.1q0-2.74-1.91-2.74-.83 0-1.43.3-.6.31-.6 1.18.14.11.22.36.07.23.07.48 0 1.07-1.15 1.07-.43 0-.73-.31t-.3-.96q0-.64.35-1.23t.9-1q.58-.45 1.31-.7.76-.29 1.54-.29 2.08 0 2.96.87.89.87.89 2.89v6.08q0 1.03.85 1.03.4 0 .78-.3zm-3.92-4.9q-.78.08-1.53.3-.76.2-1.36.6-.58.36-.96.95-.35.58-.35 1.45 0 1.82 1.59 1.82.7 0 1.15-.22.48-.25.76-.65.3-.39.45-.86.18-.48.25-.96zM214.9 22.36v-.84q1.62 0 1.62-1.4v-5.1q0-3.11-2.1-3.11-1.8 0-2.48 2.32v5.46q0 1.83 1.63 1.83v.84h-5.28v-.84q1.53 0 1.53-1.94v-3.84q0-3.83-2.08-3.83-2.52 0-2.52 3.41V20q0 1.52 1.64 1.52v.84h-5.16v-.84q1.4 0 1.4-1.4v-7.15q0-.87-1.7-.87v-.73l3.62-.98q.1.12.1.56v1.68q.4-.84 1.3-1.54.91-.7 2.15-.7.45 0 .95.2.53.2.96.53.45.31.75.73.33.42.43.9.48-1.07 1.46-1.71 1-.65 2.09-.65 1.5 0 2.41 1.07.91 1.06.91 3v5.65q0 1.4 1.64 1.4v.85zM222.53 22.47q.15-.87.2-1.88.07-1.04.07-2.3V6.9q0-2.24-1.6-2.24v-.76l3.72-.84v9.58q1.28-2.24 3.27-2.24 1 0 1.86.45.85.45 1.48 1.23.63.79.98 1.85.36 1.04.36 2.24 0 1.38-.38 2.61-.35 1.2-1 2.13-.66.92-1.6 1.46-.9.53-1.98.53-1.18 0-2.09-.5-.9-.48-1.56-1.21-.17.67-1.16 1.48zm2.28-5.33q0 .62.08 1.46.1.84.4 1.63.33.75.93 1.29.63.53 1.69.53.73 0 1.26-.42.55-.45.9-1.15.36-.7.5-1.57.18-.9.18-1.77 0-.86-.15-1.82-.12-.95-.5-1.73-.35-.79-.98-1.3-.63-.5-1.61-.5-.88 0-1.44.45-.53.42-.8 1.1-.28.67-.38 1.45-.08.79-.08 1.49zM245.75 22.13q-.4.11-1.3.23-.89.08-2.25.3l-.27-1.82q-.45.93-1.31 1.49-.86.53-1.96.53-.93 0-1.79-.36-.83-.34-1.46-1.04-.63-.73-1-1.82-.38-1.12-.38-2.64 0-1.4.4-2.6.4-1.23 1.1-2.1.71-.9 1.67-1.4.98-.5 2.11-.5.9 0 1.56.41.68.4 1.06.87V5.6q0-.95-1.94-.95v-.87l4.03-.73q.05 1.04.07 2.41.03 1.37.03 2.92v10.56q0 2.35 1.73 2.46zm-6.34-.67q.83 0 1.34-.34.5-.33.78-.98.27-.67.37-1.6.1-.95.1-2.15 0-4.9-2.86-4.9-.73 0-1.29.42-.53.39-.88 1.06-.35.64-.53 1.46-.17.81-.17 1.62 0 .98.15 1.94.17.95.53 1.73.37.79.98 1.26.6.48 1.48.48zM257.17 21.18q-.37 1.48-2 1.48-1.44 0-1.82-1.82-1.81 1.82-3.85 1.82-1.33 0-1.96-.61-.63-.65-.63-2.02 0-3.45 6.24-4.7v-1.1q0-2.74-1.91-2.74-.83 0-1.44.3-.6.31-.6 1.18.15.11.22.36.08.23.08.48 0 1.07-1.16 1.07-.42 0-.73-.31-.3-.31-.3-.96 0-.64.35-1.23.36-.59.9-1 .59-.45 1.32-.7.75-.29 1.53-.29 2.1 0 2.97.87.88.87.88 2.89v6.08q0 1.03.86 1.03.4 0 .78-.3zm-3.92-4.9q-.78.08-1.54.3-.75.2-1.35.6-.58.36-.96.95-.35.58-.35 1.45 0 1.82 1.58 1.82.7 0 1.16-.22.48-.25.75-.65.3-.39.46-.86.17-.48.25-.96z" style="-inkscape-font-specification:'Marion, Normal';font-variant-ligatures:normal;font-variant-caps:normal;font-variant-numeric:normal;font-feature-settings:normal;text-align:start"/>
  </g>
</svg>
