<svg xmlns="http://www.w3.org/2000/svg" viewBox="0 0 302.52 70.86">
  <g stroke="#0a0000" stroke-width="14.4">
    <path fill="#183cd7" stroke-linecap="square" stroke-width="1.9748160000000001" d="M3.66 4.63H28.2v23.65H4.6c-.96-7.89-.7-15.77-.94-23.65z"/>
    <path fill="#fef851" stroke-linecap="square" stroke-linejoin="round" stroke-width="1.9748160000000001" d="M4.6 28.28H28.2l.06 32.81C13.55 50.69 6.08 39.56 4.6 28.28z"/>
    <path fill="#fef851" stroke-linecap="square" stroke-width="1.9748160000000001" d="M52.7 4.63H28.2v23.65h23.58c.96-7.89.7-15.77.94-23.65z"/>
    <path fill="#183cd7" stroke-linecap="round" stroke-linejoin="round" stroke-width="1.9748160000000001" d="M51.77 28.28H28.19l-.06 32.81c14.7-10.4 22.17-21.53 23.64-32.81z"/>
  </g>
  <g stroke="#020000" stroke-linecap="round" stroke-linejoin="round" stroke-miterlimit="1.27" transform="translate(1 1.56) scale(.13714)">
    <path fill="gray" stroke-width="3.9" d="M185.49 110.56h13.14v373.51c-14.5-72.4-9.7-123.86-13.14-373.51zM211.78 110.56h-13.15v373.51c14.5-72.4 9.7-123.86 13.15-373.51z"/>
    <path fill="gray" stroke-width="3.9" d="M187.9 94.6c-22.31.47-19-.15-48.17 4.96l.05 3 .06 3.08c29.81 5.6 25.15 4.44 47.46 4.92h23.08c22.3-.48 17.64.68 47.46-4.92l.05-2.98.06-3.1c-29.17-5.1-25.48-4.49-47.8-4.97z"/>
    <ellipse cx="131.37" cy="102.73" fill="gray" stroke-width="3.9" rx="8.48" ry="8.25"/>
    <ellipse cx="-266.31" cy="102.73" fill="gray" stroke-width="3.9" rx="8.48" ry="8.25" transform="scale(-1 1)"/>
    <path fill="none" stroke-width="3.9" d="M140 102.34h117.69"/>
    <path fill="#fef851" stroke-width="4.21" d="M218.95 188.76H245v15.54h-26.05z" transform="skewY(-30.87) scale(.85831 1)"/>
    <path fill="#183cd7" stroke-width="4.21" d="M218.95 173.22H245v15.54h-26.05z" transform="skewY(-30.87) scale(.85831 1)"/>
    <path fill="#183cd7" stroke-width="3.9" d="M210.3 78.58l-.14 16.01H187.9l.03-2.64z"/>
    <path fill="#fef851" stroke-width="3.9" d="M210.3 47.5l-22.37 13.36-.2-24.72c7.4-2.94 14.8-3.13 22.2 0z"/>
    <path fill="gray" stroke-width="3.9" d="M191.28 14.57c-2.8 5.16-2.5 4.35-7.68 4.48-4.92.33-6.58 2.32-3.39 6.47 1.45 1.39 2.78 2.35 2.97 4.52 2.7 9.1 3.71 5.15 15.74 3.15 12.02 2.06 13.04 6.01 15.73-3.1.2-2.16 1.52-3.12 2.97-4.51 3.2-4.16 1.54-6.14-3.39-6.47-5.17-.13-4.88.68-7.67-4.48-1.76-3.37-4.53-4.87-7.7-4.77-3.17.02-5.82 1.34-7.58 4.71z"/>
  </g>
  <path fill="#1e490c" stroke="#000" stroke-width=".13714" d="M18.27 50.18l.26.43c2.14-4.63 2.15-9.92 1.88-14.48l-.26.03c.37 6.82-.48 11.38-1.88 14.02z"/>
  <path fill="#1e490c" stroke="#000" stroke-width=".13714" d="M19.7 45.58c-.16-1.6-.07-3.47-1.4-3.9l.26-.14c1.08.55 1.22 1.4 1.33 2.83zM19.22 41.93c.11-.25.3-.67.85-.86l.08.28c-.34.03-.62.36-.75.8zM18.46 40.12l.2.19c.04-.22.06-.44.34-.5l-.2-.13c-.2.04-.3.2-.34.44zM18.3 41.68c-.52.06-.82.06-1.1-.48-.4-.67-.3-1.34-.33-1.93.29-.08 1 .48 1.59.85l.2.19c.1.42.26.85-.08 1.12zM20.07 41.07a3.83 3.83 0 0 1 1.9-1.77c.66 1.31-1.13 3.3-1.82 2.05z"/>
  <path fill="#1e490c" stroke="#000" stroke-width=".13714" d="M18.56 38.3c.53-.58 1.2-.66 1.77-.87.07.95-.67 2.88-1.6 2.26-.65-.36-.46-1.1-.17-1.4zM18.9 35.4c.26.6-.2 1.17-.47 1.65.35-.2.8-.48.95-.8.65-.42 1.23.35 1.48.78 0-.32.1-.64-.16-.96.75.38 1.25.07 1.48-.3-.5-.02-1.35.36-.85-.77-.63.8-1.3 1.45-2.44.4z"/>
  <path fill="#8c1d1a" stroke="#000200" stroke-width=".13714" d="M18.9 35.4a2.67 2.67 0 0 1-.23-2.49c.1-.22-.64-.77.04-.93.85.03 1.63-.52 2.4-.77-.16.41 0 .82.15 1.2.41.9.45 1.84.07 2.59-.64.85-1.35 1.42-2.44.4z"/>
  <path fill="#c42d28" stroke="#000" stroke-width=".13714" d="M19.03 31.97c.53-.9.9-.76 1.5-.56-.7.27-.81.48-1.5.56z"/>
  <path fill="#c42d28" stroke="#8c1d1a" stroke-width=".13714" d="M19.55 35.44c-.6-.8-1.03-2.83-.05-3.37.27-.15.47-.22.78-.32.43-.15.6-.2.6.25-.24.96.98 1.1-.13 3.16-.37.73-.82.78-1.2.28z"/>
  <path fill="none" stroke="#000" stroke-width=".13714" d="M20.35 41.16a3.77 3.77 0 0 0 1.37-1.18M18.3 41.33a2.88 2.88 0 0 1-.92-1.33M18.8 39.41c.16-.56.5-.97.98-1.26"/>
  <g>
    <path fill="#d1d1d1" stroke="#040000" stroke-width=".13714" d="M39.61 15.19c1.5.17 3.07.23 4.8.1l-1.14 1a17.86 17.86 0 0 0-.77 6.83c-.3.41-.58.51-.87-.03.04-2.16.03-4.33-.79-6.8-.31-.4-.87-.82-1.23-1.1z"/>
    <path fill="#b6b6b6" stroke="#b6b6b6" stroke-width=".13714" d="M43.27 16.29l1.03-1c-1.54.03-3 .24-4.69-.1 2 .85 1.81 3.17 2.15 5.13 1.09-3.7-2.87-5.32 1.51-4.03z"/>
    <path fill="#f1813a" stroke="#f1813a" stroke-width=".13714" d="M42.05 9.84c-.25-.32-.1-.65-.06-.98-.39.3-.59.6-.66 1.16.08.55.31.63-.09 1.04-.2.14-.32.31-.3.84.21.89-.13.63-.35.53-.16-.1-.42-.4-.39-.64.04-.22-.12.5-.25.81-.18.31-.5-.27-.72-.62-.13.52-.08 1.21.62 1.5.6.67.48 1.55-.15.95l-.61-.52c-.05.38.24.91.4 1.25 1.69.2 3.3.16 4.92.12.28-.27.76-1.47.47-1.05-.08.13-.28.15-.42.08-.4-.2.04-.59.12-1.01.1-.7-.03-1.24-.37-1.97-.33.33-.65.72-.5 1.58 0 .4-1.3 1.04-.89-.06.28-.44.6-.3.5-1.2-.14-.4-.38-1.25-.18-1.64-.64.07-.22 1.06-.29 1.34.12.3-.12.85-.41 1.08-.71-.4-.6-1.21-.12-1.46.38-.38.12-.83-.27-1.13z"/>
    <path fill="#c42d28" stroke="#c42d28" stroke-width=".13714" d="M41.73 9.68c-.28.27.14.58-.05 1.18-.5.64-.52 1.32.09 1.76.04-.15-.38-.96.04-1.54.87-.62-.05-.92-.08-1.4zM44.15 11.87c-.42.87-.07 1.6-.06 1.6.17-.37.34-1.2.06-1.6zM43.1 11.51c-.22 1.38-1.16 1.03-1.17 2.19-.01.73.83 1.12 1.41 1.28-.53-.26.09-1.3.38-1.58-.42.26-.63.47-.91.36-.47-.33-.26-.94-.03-1.16.28-.26.52-.55.31-1.09zM39.34 12.55c.61.63.83.5.94-.01.37.4.55.59 1.02.52-.52.47-.53 1.02-.52 1.82-.23-.48-.3-1.03-.57-1.38-.2-.25-.69-.31-.87-.95zM39.35 14.4c.14.5.29.5.75.6z"/>
    <path fill="none" stroke="#040000" stroke-width=".13714" d="M39.62 15.32c1.5.18 3.06.1 4.8-.04l-1.15 1a17.86 17.86 0 0 0-.77 6.84c-.3.41-.58.51-.87-.03.04-2.16.03-4.33-.79-6.8-.31-.4-.86-.68-1.22-.97z"/>
  </g>
  <g stroke-width="2.17" aria-label="Sky Patrol Life" font-family="Marion" font-size="208.48" font-weight="400" letter-spacing="0" style="line-height:1.25;-inkscape-font-specification:'Marion Bold'" word-spacing="-21.8">
    <path d="M78.95 21.02q-.8-5.94-2.68-9.46-1.87-3.59-4.63-3.59-2.27 0-3.63 2.2-1.35 2.2-1.35 5.57 0 2.64.95 4.62 1 1.9 2.96 3.45Q73 25.7 75 27.03q2 1.25 3.39 2.94 1.43 1.68 2.2 4.25.79 2.57.79 6.97 0 2.7-.48 5.35-.44 2.64-1.4 4.76-.95 2.06-2.5 3.38-1.53 1.24-3.68 1.24-1.4 0-2.43-.36-1-.37-1.72-.88-.68-.52-1.08-1.03l-.56-.73q-.75 1.02-1.51 1.83-.76.8-1.52 1.17-.44-5.5-.68-9.75-.2-4.32-.2-7.55h1.32q0 3.23.72 5.94.72 2.64 1.83 4.54 1.12 1.91 2.52 3.01 1.4 1.03 2.71 1.03.84 0 1.84-.52 1.03-.5 1.91-1.6.92-1.1 1.52-2.8.64-1.68.64-4.03 0-2.93-.88-5.13-.84-2.2-2.71-3.45-2.2-1.46-4.23-2.71-2-1.25-3.56-2.93-1.51-1.76-2.43-4.33-.92-2.64-.92-6.9 0-3.07.6-5.56.6-2.5 1.6-4.26 1.03-1.83 2.4-2.78 1.35-1.03 2.82-1.03 1.72 0 2.92 1.17 1.23 1.1 2.27 1.98 1.24-1.83 2.6-2.56.55 3.37.8 7.18.23 3.74.23 8.14zM95.66 54.82v-2.2q1.4 0 1.4-1.17l-4.43-11.73q-.44.59-1 1.17-.52.52-1.31 1.1v7.26q0 3.37 2.9 3.37v2.2h-8.8v-2.2q2.58 0 2.58-3.66V12.08q0-3.6-2.75-3.6V6.21l6.07-1.9v34.31q.75-.8 1.75-2.2 1-1.4 1.88-2.93.92-1.54 1.51-2.94.64-1.39.64-2.27 0-1.4-2.23-1.4v-1.9h8.62v1.9q-.56 0-1.48.6-.92.58-2.31 1.6-1.2 2.35-2.2 3.9-.96 1.46-1.75 2.27l5.5 13.7q1.4 3.67 2.87 3.67h.92v2.2zM105.63 30.04q-.56-2.86-2.28-2.86v-2.2h8.22v2.2h-.8q-1.47 0-1.47 1.69l.08.58.08.88q.04.44.12 1.03l4.1 16.2 3.2-15.1.24-2.05q.08-.74.08-1.03 0-2.2-2.6-2.2v-2.2h6.83v2.2q-1.68 0-2.27 2.5l-4.83 22.28q-.2.74-.56 2.2-.36 1.4-.84 3.16-.48 1.76-1.08 3.59-.6 1.83-1.35 3.3-.76 1.54-1.64 2.5-.88.94-1.87.94-2.12 0-2.12-3.59 0-3.66 1.52-3.66.72 0 .95.58.24.66.32 1.4.12.73.24 1.32.16.66.64.66.28 0 .76-.96.48-.95.96-2.42.52-1.39.96-3.15.43-1.69.63-3.3zM130.72 54.82v-2.2q3.63 0 3.63-5.28V12.88q0-4.4-3.8-4.4V6.21h8.71q.75-.07 1.31-.07.6-.08 1.16-.08.6-.07 1.6-.07 8.93 0 8.93 14.23 0 2.78-.56 5.2-.51 2.42-1.63 4.25-1.12 1.84-2.83 2.86-1.72 1.03-4.07 1.03-1.28 0-2.52-.15-1.2-.22-2.35-.66v14.3q0 5.57 3.95 5.57v2.2zm9.25-46.34q-1.67 0-1.67 3.89v17.67q1 .37 2.2.59 1.19.22 2.67.22 1.31 0 2.23-.88.96-.96 1.56-2.42.63-1.54.91-3.52t.28-4.1q0-11.45-7.14-11.45zM171.33 51.74q-.6 3.89-3.19 3.89-2.27 0-2.87-4.77-2.88 4.77-6.1 4.77-2.12 0-3.12-1.61-1-1.69-1-5.28 0-9.02 9.9-12.32v-2.86q0-7.19-3.03-7.19-1.32 0-2.28.81-.96.8-.96 3.08.24.3.36.95.12.6.12 1.25 0 2.79-1.83 2.79-.68 0-1.16-.81-.48-.8-.48-2.5 0-1.68.56-3.22.56-1.54 1.44-2.64.91-1.17 2.07-1.83 1.2-.73 2.43-.73 3.32 0 4.71 2.27 1.4 2.27 1.4 7.55v15.91q0 2.71 1.36 2.71.63 0 1.23-.8zm-6.22-12.83q-1.24.22-2.44.8-1.2.52-2.15 1.55-.92.95-1.52 2.5-.56 1.53-.56 3.8 0 4.77 2.52 4.77 1.12 0 1.83-.59.76-.66 1.2-1.68.48-1.03.72-2.28.28-1.24.4-2.49zM183.44 47.34q-.24 1.91-.6 3.52-.36 1.54-.96 2.72-.6 1.1-1.52 1.68-.87.66-2.11.66-1.96 0-3.11-1.68-1.12-1.76-1.12-5.58v-20.9h-2.6l.17-2.2q1.83-.65 2.95-3.8 1.12-3.23 1.6-7.41l1.23-.3v10.93h3.15q.56 0 1-.14.48-.22.84-.44v3.37h-4.99v19.28q0 .88.04 1.76.04.8.2 1.54.2.73.6 1.17.4.44 1.12.44 1.15 0 2.07-1.46.92-1.47 1.12-3.74zM184.59 54.82v-2.2q2.6 0 2.6-4.18v-15.4q0-5.27-2.76-5.27v-1.98q1.52-.59 3.03-1.1 1.56-.59 3.03-1.17v7.03l.2.3q.12-.96.52-2.2.44-1.25 1.04-2.35.64-1.17 1.4-1.98.75-.8 1.6-.8 3.02 0 3.02 5.05 0 4.18-1.83 4.18-1.64 0-1.64-2.7 0-1.18.12-1.77h-.72q-1.2 0-1.91 1.4-.72 1.39-1.12 3.37-.36 1.98-.52 4.18-.12 2.12-.16 3.59v7.84q0 3.96 3.08 3.96v2.2zM207.77 56.22q-1.88 0-3.44-1.32-1.55-1.25-2.67-3.38-1.08-2.2-1.67-5.06-.6-2.93-.6-6.15 0-3.82.67-6.9.68-3.15 1.84-5.35 1.16-2.2 2.71-3.37 1.56-1.17 3.32-1.17 1.8 0 3.3 1.32 1.52 1.24 2.6 3.44 1.12 2.13 1.72 5.06.6 2.86.6 6.09 0 3.88-.68 7.03-.68 3.08-1.84 5.28-1.16 2.13-2.67 3.3-1.52 1.18-3.2 1.18zm.16-2.5q1.55 0 2.43-1.24.92-1.32 1.4-3.08.47-1.76.6-3.67.15-1.9.15-3.15 0-2.42-.16-5.28-.16-2.93-.67-5.35-.48-2.5-1.44-4.18-.92-1.69-2.47-1.69-1.6 0-2.52 1.32-.92 1.25-1.4 3-.47 1.77-.63 3.67-.12 1.91-.12 3.16 0 2.42.16 5.35.16 2.86.64 5.35.51 2.42 1.47 4.1.96 1.7 2.56 1.7zM218.41 54.82v-2.2q2.71 0 2.71-3.37V12.08q0-3.6-3.07-3.6V6.5l6.43-2.2v45.24q0 3.08 3.03 3.08v2.2zM239.04 54.82v-2.2q3.52 0 3.52-3.96v-34.6q0-5.58-3.95-5.58V6.21h11.53v2.27q-3.67 0-3.67 5.58v34.6q0 3.08 2.59 3.08h1.84q1.83 0 3.19-.44 1.35-.5 2.31-1.39 1.76-1.76 3.15-10.48l1.08.29-1.2 15.1zM261.54 54.82v-2.2q2.76 0 2.76-4.47V33.56q0-5.8-2.44-5.8V25.8l5.75-2.27v24.92q0 4.18 3.03 4.18v2.2zm4.11-39.37q-2.11 0-2.11-4.47 0-4.18 2.27-4.18 2.16 0 2.16 4.18 0 4.47-2.32 4.47zM273.31 54.82v-2.2q2.6 0 2.6-3.66v-20.1q0-.87-.48-.87h-3.2v-3h3.08q.6 0 .6-1.99 0-4.1.35-7.55.36-3.45 1.2-5.87.84-2.49 2.2-3.88 1.4-1.4 3.39-1.4 3.19 0 3.19 4.84 0 1.4-.52 2.35-.52.88-1.24.88-1.43 0-1.43-2.13 0-1.17.32-1.76-.48-1.17-1.24-1.17-.92 0-1.48 1.4-.56 1.39-.88 3.3-.31 1.9-.43 3.95-.12 2.06-.12 3.45V23q0 1.97.63 1.97l3.68-.3-.16 3.09h-3.52q-.63 0-.63.8v20.39q0 3.66 3.55 3.66v2.2zM299.88 47.56q-1.04 4.11-2.8 6.38-1.75 2.28-4.14 2.28-2 0-3.52-1.25-1.51-1.25-2.55-3.37-1-2.13-1.52-5.06-.51-2.93-.51-6.23 0-3.3.55-6.31.56-3 1.56-5.35 1.04-2.35 2.47-3.74 1.44-1.4 3.2-1.4 1.07 0 2.23.52 1.2.44 2.23 1.83 1.04 1.4 1.8 4.03.76 2.57 1 6.82 0 .88-.12 1.62h-10.62q-.75 0-.75 1.1 0 2.64.4 4.98.4 2.35 1.11 4.1.72 1.77 1.76 2.8 1.04.95 2.31.95 1.68 0 2.88-1.76 1.23-1.76 2.15-4.1zm-5.43-11.43q1.64 0 1.64-3.08-.12-2.79-1.04-4.84-.88-2.13-2.6-2.13-.91 0-1.67.8-.76.74-1.32 2.06-.51 1.25-.8 2.93-.27 1.62-.27 3.38 0 .88.87.88z" style="-inkscape-font-specification:Marion"/>
  </g>
</svg>
