<svg xmlns="http://www.w3.org/2000/svg" viewBox="0 0 369.79 70.86">
  <g stroke="#0a0000" stroke-width="14.4">
    <path fill="#183cd7" stroke-linecap="square" stroke-width="1.9748160000000001" d="M3.66 4.63H28.2v23.65H4.6c-.96-7.89-.7-15.77-.94-23.65z"/>
    <path fill="#fef851" stroke-linecap="square" stroke-linejoin="round" stroke-width="1.9748160000000001" d="M4.6 28.28H28.2l.06 32.81C13.55 50.69 6.08 39.56 4.6 28.28z"/>
    <path fill="#fef851" stroke-linecap="square" stroke-width="1.9748160000000001" d="M52.7 4.63H28.2v23.65h23.58c.96-7.89.7-15.77.94-23.65z"/>
    <path fill="#183cd7" stroke-linecap="round" stroke-linejoin="round" stroke-width="1.9748160000000001" d="M51.77 28.28H28.19l-.06 32.81c14.7-10.4 22.17-21.53 23.64-32.81z"/>
  </g>
  <g stroke="#020000" stroke-linecap="round" stroke-linejoin="round" stroke-miterlimit="1.27" transform="translate(1 1.56) scale(.13714)">
    <path fill="gray" stroke-width="3.9" d="M185.49 110.56h13.14v373.51c-14.5-72.4-9.7-123.86-13.14-373.51zM211.78 110.56h-13.15v373.51c14.5-72.4 9.7-123.86 13.15-373.51z"/>
    <path fill="gray" stroke-width="3.9" d="M187.9 94.6c-22.31.47-19-.15-48.17 4.96l.05 3 .06 3.08c29.81 5.6 25.15 4.44 47.46 4.92h23.08c22.3-.48 17.64.68 47.46-4.92l.05-2.98.06-3.1c-29.17-5.1-25.48-4.49-47.8-4.97z"/>
    <ellipse cx="131.37" cy="102.73" fill="gray" stroke-width="3.9" rx="8.48" ry="8.25"/>
    <ellipse cx="-266.31" cy="102.73" fill="gray" stroke-width="3.9" rx="8.48" ry="8.25" transform="scale(-1 1)"/>
    <path fill="none" stroke-width="3.9" d="M140 102.34h117.69"/>
    <path fill="#fef851" stroke-width="4.21" d="M218.95 188.76H245v15.54h-26.05z" transform="skewY(-30.87) scale(.85831 1)"/>
    <path fill="#183cd7" stroke-width="4.21" d="M218.95 173.22H245v15.54h-26.05z" transform="skewY(-30.87) scale(.85831 1)"/>
    <path fill="#183cd7" stroke-width="3.9" d="M210.3 78.58l-.14 16.01H187.9l.03-2.64z"/>
    <path fill="#fef851" stroke-width="3.9" d="M210.3 47.5l-22.37 13.36-.2-24.72c7.4-2.94 14.8-3.13 22.2 0z"/>
    <path fill="gray" stroke-width="3.9" d="M191.28 14.57c-2.8 5.16-2.5 4.35-7.68 4.48-4.92.33-6.58 2.32-3.39 6.47 1.45 1.39 2.78 2.35 2.97 4.52 2.7 9.1 3.71 5.15 15.74 3.15 12.02 2.06 13.04 6.01 15.73-3.1.2-2.16 1.52-3.12 2.97-4.51 3.2-4.16 1.54-6.14-3.39-6.47-5.17-.13-4.88.68-7.67-4.48-1.76-3.37-4.53-4.87-7.7-4.77-3.17.02-5.82 1.34-7.58 4.71z"/>
  </g>
  <path fill="#1e490c" stroke="#000" stroke-width=".13714" d="M18.27 50.18l.26.43c2.14-4.63 2.15-9.92 1.88-14.48l-.26.03c.37 6.82-.48 11.38-1.88 14.02z"/>
  <path fill="#1e490c" stroke="#000" stroke-width=".13714" d="M19.7 45.58c-.16-1.6-.07-3.47-1.4-3.9l.26-.14c1.08.55 1.22 1.4 1.33 2.83zM19.22 41.93c.11-.25.3-.67.85-.86l.08.28c-.34.03-.62.36-.75.8zM18.46 40.12l.2.19c.04-.22.06-.44.34-.5l-.2-.13c-.2.04-.3.2-.34.44zM18.3 41.68c-.52.06-.82.06-1.1-.48-.4-.67-.3-1.34-.33-1.93.29-.08 1 .48 1.59.85l.2.19c.1.42.26.85-.08 1.12zM20.07 41.07a3.83 3.83 0 0 1 1.9-1.77c.66 1.31-1.13 3.3-1.82 2.05z"/>
  <path fill="#1e490c" stroke="#000" stroke-width=".13714" d="M18.56 38.3c.53-.58 1.2-.66 1.77-.87.07.95-.67 2.88-1.6 2.26-.65-.36-.46-1.1-.17-1.4zM18.9 35.4c.26.6-.2 1.17-.47 1.65.35-.2.8-.48.95-.8.65-.42 1.23.35 1.48.78 0-.32.1-.64-.16-.96.75.38 1.25.07 1.48-.3-.5-.02-1.35.36-.85-.77-.63.8-1.3 1.45-2.44.4z"/>
  <path fill="#8c1d1a" stroke="#000200" stroke-width=".13714" d="M18.9 35.4a2.67 2.67 0 0 1-.23-2.49c.1-.22-.64-.77.04-.93.85.03 1.63-.52 2.4-.77-.16.41 0 .82.15 1.2.41.9.45 1.84.07 2.59-.64.85-1.35 1.42-2.44.4z"/>
  <path fill="#c42d28" stroke="#000" stroke-width=".13714" d="M19.03 31.97c.53-.9.9-.76 1.5-.56-.7.27-.81.48-1.5.56z"/>
  <path fill="#c42d28" stroke="#8c1d1a" stroke-width=".13714" d="M19.55 35.44c-.6-.8-1.03-2.83-.05-3.37.27-.15.47-.22.78-.32.43-.15.6-.2.6.25-.24.96.98 1.1-.13 3.16-.37.73-.82.78-1.2.28z"/>
  <path fill="none" stroke="#000" stroke-width=".13714" d="M20.35 41.16a3.77 3.77 0 0 0 1.37-1.18M18.3 41.33a2.88 2.88 0 0 1-.92-1.33M18.8 39.41c.16-.56.5-.97.98-1.26"/>
  <g>
    <path fill="#d1d1d1" stroke="#040000" stroke-width=".13714" d="M39.61 15.19c1.5.17 3.07.23 4.8.1l-1.14 1a17.86 17.86 0 0 0-.77 6.83c-.3.41-.58.51-.87-.03.04-2.16.03-4.33-.79-6.8-.31-.4-.87-.82-1.23-1.1z"/>
    <path fill="#b6b6b6" stroke="#b6b6b6" stroke-width=".13714" d="M43.27 16.29l1.03-1c-1.54.03-3 .24-4.69-.1 2 .85 1.81 3.17 2.15 5.13 1.09-3.7-2.87-5.32 1.51-4.03z"/>
    <path fill="#f1813a" stroke="#f1813a" stroke-width=".13714" d="M42.05 9.84c-.25-.32-.1-.65-.06-.98-.39.3-.59.6-.66 1.16.08.55.31.63-.09 1.04-.2.14-.32.31-.3.84.21.89-.13.63-.35.53-.16-.1-.42-.4-.39-.64.04-.22-.12.5-.25.81-.18.31-.5-.27-.72-.62-.13.52-.08 1.21.62 1.5.6.67.48 1.55-.15.95l-.61-.52c-.05.38.24.91.4 1.25 1.69.2 3.3.16 4.92.12.28-.27.76-1.47.47-1.05-.08.13-.28.15-.42.08-.4-.2.04-.59.12-1.01.1-.7-.03-1.24-.37-1.97-.33.33-.65.72-.5 1.58 0 .4-1.3 1.04-.89-.06.28-.44.6-.3.5-1.2-.14-.4-.38-1.25-.18-1.64-.64.07-.22 1.06-.29 1.34.12.3-.12.85-.41 1.08-.71-.4-.6-1.21-.12-1.46.38-.38.12-.83-.27-1.13z"/>
    <path fill="#c42d28" stroke="#c42d28" stroke-width=".13714" d="M41.73 9.68c-.28.27.14.58-.05 1.18-.5.64-.52 1.32.09 1.76.04-.15-.38-.96.04-1.54.87-.62-.05-.92-.08-1.4zM44.15 11.87c-.42.87-.07 1.6-.06 1.6.17-.37.34-1.2.06-1.6zM43.1 11.51c-.22 1.38-1.16 1.03-1.17 2.19-.01.73.83 1.12 1.41 1.28-.53-.26.09-1.3.38-1.58-.42.26-.63.47-.91.36-.47-.33-.26-.94-.03-1.16.28-.26.52-.55.31-1.09zM39.34 12.55c.61.63.83.5.94-.01.37.4.55.59 1.02.52-.52.47-.53 1.02-.52 1.82-.23-.48-.3-1.03-.57-1.38-.2-.25-.69-.31-.87-.95zM39.35 14.4c.14.5.29.5.75.6z"/>
    <path fill="none" stroke="#040000" stroke-width=".13714" d="M39.62 15.32c1.5.18 3.06.1 4.8-.04l-1.15 1a17.86 17.86 0 0 0-.77 6.84c-.3.41-.58.51-.87-.03.04-2.16.03-4.33-.79-6.8-.31-.4-.86-.68-1.22-.97z"/>
  </g>
  <g stroke-width=".52" aria-label="Sigma Phi Lambda" font-family="Marion" font-size="49.61" font-weight="400" letter-spacing="0" style="line-height:1.25;-inkscape-font-specification:'Marion Bold'" word-spacing="0">
    <path d="M74.83 20.06q-.78-6-2.62-9.55-1.85-3.63-4.55-3.63-2.23 0-3.56 2.22-1.34 2.23-1.34 5.63 0 2.67.94 4.67.98 1.92 2.9 3.48 2.4 1.92 4.35 3.26 1.96 1.26 3.33 2.96 1.41 1.7 2.16 4.3.78 2.59.78 7.03 0 2.74-.47 5.4-.43 2.67-1.37 4.82-.94 2.07-2.47 3.4-1.49 1.26-3.6 1.26-1.37 0-2.4-.37-.97-.37-1.68-.88-.66-.52-1.06-1.04l-.54-.74q-.75 1.03-1.5 1.85-.74.81-1.48 1.18-.43-5.55-.67-9.85-.2-4.36-.2-7.62h1.3q0 3.26.7 6 .7 2.66 1.8 4.59 1.1 1.92 2.47 3.03 1.38 1.04 2.67 1.04.82 0 1.8-.52 1.02-.52 1.88-1.63.9-1.1 1.49-2.81.63-1.7.63-4.07 0-2.97-.86-5.19-.83-2.22-2.67-3.48-2.15-1.48-4.15-2.74-1.96-1.26-3.49-2.96-1.49-1.78-2.39-4.37-.9-2.67-.9-6.96 0-3.11.59-5.63t1.56-4.3Q63.23 6 64.57 5.03q1.33-1.04 2.78-1.04 1.68 0 2.86 1.19 1.21 1.1 2.23 2 1.22-1.85 2.55-2.6.55 3.41.78 7.26.24 3.78.24 8.22zM80.2 54.2v-2.22q2.7 0 2.7-4.52V32.73q0-5.85-2.39-5.85v-2l5.64-2.3v25.18q0 4.22 2.98 4.22v2.22zm4.03-39.76q-2.07 0-2.07-4.52 0-4.22 2.23-4.22 2.11 0 2.11 4.22 0 4.52-2.27 4.52zM96.69 67.68q-2.4 0-3.92-1.63-1.53-1.55-1.53-4.81 0-4.22 3.41-6.22-2.5-1.11-2.5-5.63 0-1.19.23-2.3.23-1.1.66-2 .44-.88.98-1.4.6-.52 1.26-.52-2.98-2.96-2.98-9.55 0-2.23.43-4.23.43-2 1.25-3.48.87-1.55 2.12-2.44 1.25-.89 2.9-.89 2.62 0 4.62 3.19.67-1.93 1.5-2.67.81-.81 1.75-.81 1.65 0 1.65 2.66 0 2.89-1.25 2.89-.83 0-1.3-1.11-.9.22-1.45 1.48.55 1.18.79 2.67.23 1.48.23 2.74 0 5.77-1.76 8.51-1.72 2.74-5.64 2.74-.43 0-.9-.15-.43-.14-.94-.37-1.92.23-1.92 2.97 0 1.63.66 2.3.67.58 2.24.58h4.46q1.14 0 2.12.52 1.02.45 1.76 1.48.75 1.04 1.18 2.6.43 1.63.43 3.85 0 2.07-.51 3.7-.47 1.7-1.37 2.89-.87 1.18-2.08 1.78-1.21.66-2.66.66zm2.04-25.62q3.56 0 3.56-6.96 0-10.22-3.45-10.22-3.4 0-3.4 7.85 0 9.33 3.29 9.33zm1.1 23.4q4.85 0 4.85-5.92 0-3.93-4.66-3.93h-3.25q-1.3.44-2 1.4-.7.97-.7 2.9 0 2.74 1.2 4.14 1.26 1.41 3.42 1.41zM130 54.2v-2.22q2.5 0 2.5-3.7V34.8q0-8.22-3.25-8.22-2.82 0-3.88 6.15v14.44q0 4.81 2.55 4.81v2.22h-8.23v-2.22q2.4 0 2.4-5.1V36.72q0-10.15-3.26-10.15-3.92 0-3.92 9.04v12.36q0 4 2.55 4v2.22h-8.03v-2.22q2.2 0 2.2-3.7V29.39q0-2.3-2.67-2.3v-1.92l5.64-2.59q.16.3.16 1.48v4.45q.62-2.23 2.03-4.08 1.41-1.85 3.33-1.85.7 0 1.5.52.82.52 1.48 1.4.7.82 1.18 1.93.5 1.11.66 2.37.75-2.81 2.27-4.52 1.57-1.7 3.26-1.7 2.35 0 3.76 2.82 1.4 2.81 1.4 7.92v14.96q0 3.7 2.55 3.7v2.22zM156.79 51.1q-.6 3.92-3.14 3.92-2.23 0-2.82-4.82-2.82 4.82-6 4.82-2.07 0-3.05-1.63-.98-1.7-.98-5.33 0-9.11 9.72-12.44v-2.9q0-7.25-2.98-7.25-1.3 0-2.23.81-.94.82-.94 3.11.23.3.35.97.12.59.12 1.26 0 2.81-1.8 2.81-.67 0-1.14-.81-.47-.82-.47-2.52 0-1.7.55-3.26.55-1.56 1.4-2.67.9-1.18 2.04-1.85 1.18-.74 2.4-.74 3.25 0 4.62 2.3t1.37 7.63v16.07q0 2.74 1.33 2.74.63 0 1.22-.82zm-6.12-12.97q-1.21.23-2.39.82-1.17.52-2.11 1.55-.9.97-1.49 2.52-.55 1.56-.55 3.85 0 4.82 2.47 4.82 1.1 0 1.8-.6.75-.66 1.18-1.7.47-1.04.7-2.3.28-1.25.4-2.51zM170.7 54.2v-2.22q3.57 0 3.57-5.33v-34.8q0-4.45-3.73-4.45V5.1h8.55q.74-.07 1.29-.07.58-.07 1.13-.07.6-.08 1.57-.08 8.78 0 8.78 14.37 0 2.81-.55 5.26-.51 2.44-1.6 4.3-1.1 1.84-2.79 2.88-1.68 1.04-4 1.04-1.25 0-2.46-.15-1.18-.22-2.32-.67v14.44q0 5.63 3.88 5.63v2.22zm9.09-46.8q-1.65 0-1.65 3.93v17.84q.98.37 2.16.6 1.17.22 2.62.22 1.3 0 2.2-.9.94-.95 1.53-2.44.62-1.55.9-3.55.27-2 .27-4.15 0-11.55-7.01-11.55zM205.92 54.2v-2.22q2.54 0 2.54-3.1V37.53q0-10.44-3.56-10.44-3.96 0-4.5 7.7v13.48q0 3.7 2.85 3.7v2.22h-8.65v-2.22q2.54 0 2.54-3.7V13.32q0-5.92-2.39-5.92v-2l5.64-2.22V28.8q2.47-5.92 5.68-5.92 1.42 0 2.47.74 1.06.74 1.73 2.07.66 1.33.98 3.11.35 1.7.35 3.7v16.37q0 3.11 2.7 3.11v2.22zM216.94 54.2v-2.22q2.7 0 2.7-4.52V32.73q0-5.85-2.39-5.85v-2l5.64-2.3v25.18q0 4.22 2.98 4.22v2.22zm4.03-39.76q-2.07 0-2.07-4.52 0-4.22 2.23-4.22 2.12 0 2.12 4.22 0 4.52-2.28 4.52zM241.3 54.2v-2.22q3.44 0 3.44-4V13.03q0-5.63-3.87-5.63V5.1h11.32v2.3q-3.6 0-3.6 5.63v34.95q0 3.11 2.54 3.11h1.8q1.8 0 3.14-.44 1.33-.52 2.27-1.4 1.72-1.79 3.1-10.6l1.05.3-1.17 15.25zM279.37 51.1q-.59 3.92-3.13 3.92-2.23 0-2.82-4.82-2.82 4.82-6 4.82-2.07 0-3.05-1.63-.98-1.7-.98-5.33 0-9.11 9.71-12.44v-2.9q0-7.25-2.97-7.25-1.3 0-2.24.81-.94.82-.94 3.11.24.3.36.97.11.59.11 1.26 0 2.81-1.8 2.81-.67 0-1.14-.81-.47-.82-.47-2.52 0-1.7.55-3.26.55-1.56 1.41-2.67.9-1.18 2.04-1.85 1.18-.74 2.4-.74 3.24 0 4.61 2.3t1.37 7.63v16.07q0 2.74 1.34 2.74.62 0 1.21-.82zm-6.1-12.97q-1.22.23-2.4.82-1.17.52-2.11 1.55-.9.97-1.5 2.52-.54 1.56-.54 3.85 0 4.82 2.47 4.82 1.1 0 1.8-.6.74-.66 1.17-1.7.47-1.04.7-2.3.28-1.25.4-2.51zM301.33 54.2v-2.22q2.5 0 2.5-3.7V34.8q0-8.22-3.25-8.22-2.82 0-3.88 6.15v14.44q0 4.81 2.55 4.81v2.22h-8.23v-2.22q2.4 0 2.4-5.1V36.72q0-10.15-3.26-10.15-3.92 0-3.92 9.04v12.36q0 4 2.55 4v2.22h-8.03v-2.22q2.2 0 2.2-3.7V29.39q0-2.3-2.67-2.3v-1.92l5.64-2.59q.16.3.16 1.48v4.45q.62-2.23 2.03-4.08 1.41-1.85 3.33-1.85.7 0 1.5.52.82.52 1.48 1.4.7.82 1.18 1.93.5 1.11.66 2.37.75-2.81 2.27-4.52 1.57-1.7 3.26-1.7 2.35 0 3.76 2.82 1.4 2.81 1.4 7.92v14.96q0 3.7 2.56 3.7v2.22zM313.19 54.5q.23-2.3.31-4.96.12-2.74.12-6.07V13.32q0-5.92-2.5-5.92v-2l5.8-2.22V28.5q1.99-5.93 5.08-5.93 1.57 0 2.9 1.19 1.34 1.18 2.32 3.25.97 2.08 1.52 4.9.55 2.73.55 5.92 0 3.63-.59 6.88-.54 3.19-1.56 5.63-1.02 2.45-2.47 3.85-1.41 1.41-3.1 1.41-1.84 0-3.25-1.33-1.4-1.26-2.43-3.19-.27 1.78-1.8 3.93zm3.56-14.07q0 1.63.12 3.85.16 2.22.63 4.3.5 2 1.45 3.4.98 1.4 2.62 1.4 1.14 0 1.96-1.1.86-1.19 1.41-3.04.55-1.85.79-4.15.27-2.37.27-4.66 0-2.3-.23-4.81-.2-2.52-.79-4.6-.55-2.07-1.53-3.4-.98-1.34-2.5-1.34-1.37 0-2.24 1.19-.82 1.11-1.25 2.89-.43 1.77-.59 3.85-.12 2.07-.12 3.92zM349.36 53.61q-.63.3-2.04.6-1.37.22-3.49.8l-.43-4.8q-.7 2.44-2.04 3.92-1.33 1.4-3.05 1.4-1.45 0-2.78-.96-1.3-.89-2.28-2.74-.98-1.92-1.56-4.81-.6-2.96-.6-6.96 0-3.7.64-6.89.62-3.26 1.72-5.55 1.1-2.37 2.59-3.7 1.52-1.34 3.29-1.34 1.4 0 2.43 1.11 1.05 1.04 1.64 2.3V9.92q0-2.52-3.02-2.52V5.1l6.27-1.92q.08 2.74.12 6.37.04 3.63.04 7.7v27.92q0 6.22 2.7 6.52zm-9.88-1.78q1.3 0 2.08-.89.78-.88 1.21-2.59.44-1.77.6-4.22.15-2.52.15-5.7 0-12.96-4.47-12.96-1.13 0-2 1.11-.82 1.04-1.37 2.81-.55 1.7-.82 3.86-.27 2.14-.27 4.3 0 2.58.23 5.1.28 2.52.82 4.6.6 2.07 1.53 3.32.94 1.26 2.31 1.26zM367.14 51.1q-.59 3.92-3.13 3.92-2.24 0-2.82-4.82-2.82 4.82-6 4.82-2.07 0-3.05-1.63-.98-1.7-.98-5.33 0-9.11 9.71-12.44v-2.9q0-7.25-2.97-7.25-1.3 0-2.24.81-.94.82-.94 3.11.24.3.35.97.12.59.12 1.26 0 2.81-1.8 2.81-.67 0-1.14-.81-.47-.82-.47-2.52 0-1.7.55-3.26.55-1.56 1.41-2.67.9-1.18 2.04-1.85 1.18-.74 2.39-.74 3.25 0 4.62 2.3t1.37 7.63v16.07q0 2.74 1.34 2.74.62 0 1.21-.82zm-6.11-12.97q-1.21.23-2.39.82-1.18.52-2.12 1.55-.9.97-1.48 2.52-.55 1.56-.55 3.85 0 4.82 2.47 4.82 1.1 0 1.8-.6.74-.66 1.17-1.7.47-1.04.7-2.3.28-1.25.4-2.51z" style="-inkscape-font-specification:'Marion, Normal';font-variant-ligatures:normal;font-variant-caps:normal;font-variant-numeric:normal;font-feature-settings:normal;text-align:start"/>
  </g>
</svg>
