<svg xmlns="http://www.w3.org/2000/svg" viewBox="0 0 1000 1000">
  <path fill="none" d="M501 1001c-165.167 0-330.333-.016-495.5.096-3.766.003-4.596-.83-4.595-4.596.103-330.333.103-660.667 0-991 0-3.766.83-4.597 4.595-4.595 330.333.103 660.667.103 991 0 3.766-.002 4.597.83 4.596 4.595-.104 330.333-.104 660.667 0 991 0 3.766-.83 4.6-4.596 4.596-165.167-.112-330.333-.096-495.5-.096zm41.772-287.29c-1.34.757-.43.242.48-.272-.478-.816-.8-1.806-1.466-2.42-3.18-2.934-6.928-5.38-9.614-8.696-16.935-20.908-34.186-41.595-50.248-63.163-12.777-17.157-24.36-35.243-35.83-53.323-12.542-19.77-24.665-39.82-36.383-60.09-11.54-19.962-22.84-40.095-33.32-60.625-9.48-18.566-18.29-37.528-26.3-56.772-5.84-14.037-9.884-28.82-14.77-43.255-.395-1.163-1.115-2.217-1.683-3.32-.92.872-2.216 1.573-2.702 2.643-3.788 8.33-7.104 16.885-11.154 25.08-16.906 34.207-33.13 68.797-51.362 102.29-12.643 23.224-26.274 46.406-42.817 66.9-26.772 33.17-59.97 59.85-95.406 83.642-2.497 1.677-4.6 7.92-3.433 10.45 10.095 21.896 19.994 43.993 31.97 64.872 8.28 14.44 19.587 27.185 29.99 40.332 1.458 1.842 5.897 2.928 8.22 2.153 4.946-1.65 9.33-4.913 14.083-7.23 16.058-7.825 31.582-17.35 48.414-22.843 24.688-8.06 50.014-16.172 75.637-18.872 35.61-3.752 71.76-3.582 107.65-3.1 32.56.438 65.086 3.545 100.048 5.618zm-279.17 69.98c-4.143-8.21-6.994-15.55-11.416-21.774-1.716-2.415-7.908-4.252-10.482-3.03-15.64 7.433-30.66 16.16-46.277 23.643-3.67 1.758-8.84.365-13.32.466-2.543.058-5.24-.302-7.585.432-3.23 1.01-6.546 2.422-9.194 4.476-4.574 3.547-14.136 3.536-11.646 12.66 5.44 19.935 11.587 39.677 17.592 59.452 2.21 7.278 4.513 14.56 7.337 21.614 5.35 13.36 11.34 26.462 16.638 39.84 8.63 21.788 18.796 42.746 34.85 60.057 5.472 5.9 11.746 12.98 21.972 8.544 8.82-3.824 17.796-7.28 26.666-10.99 19.853-8.305 38.03-19.388 52.67-35.214 3.31-3.575 4.733-10.64 4.103-15.737-1.208-9.76-17.194-21.477-29.086-22.725-7.473-.784-10.575-4.32-9.548-11.96 2.274-16.917-1.947-25.29-17.457-32.237-8.362-3.745-10.044-8.688-7.49-17.005 3.61-11.76-4.89-27.795-15.467-30.5-10.74-2.744-11.66-6.725-4.11-15.014 4.088-4.494 7.35-9.74 11.25-15zm315.273-304.813c9.152-3.042 18.057-5.563 26.625-8.937 20.022-7.882 39.8-16.387 59.84-24.225 13.74-5.374 27.834-9.833 41.626-15.082 32.895-12.52 65.73-25.203 98.498-38.05 2.43-.954 5.594-3.605 5.804-5.727.247-2.493-1.705-6.085-3.833-7.796-20.866-16.78-42.143-33.056-62.945-49.915-14.873-12.053-15.033-12.93.385-23.703 21.252-14.848 43.104-28.848 64.856-42.97 21.994-14.277 44.226-28.188 66.268-42.393 19.55-12.6 39.015-25.326 58.413-38.153 2.106-1.393 3.525-3.824 5.263-5.774-2.72.33-5.675.08-8.117 1.084-13.283 5.46-26.357 11.433-39.664 16.835-15.01 6.094-30.227 11.68-45.285 17.656-12.977 5.15-25.806 10.675-38.795 15.792-14.335 5.647-28.86 10.812-43.152 16.564-17.38 6.995-34.525 14.57-51.91 21.554-21.828 8.767-43.85 17.05-65.676 25.823-8.432 3.39-8.78 7.012-2.527 13.58 18.368 19.297 36.725 38.607 54.87 58.114 5.43 5.84 5.645 11.698-1.645 16.852-4.056 2.866-7.44 6.66-11.374 9.723-26.35 20.524-52.816 40.9-79.134 61.467-9.818 7.674-19.354 15.712-28.956 23.66-.785.65-1.082 1.888-1.604 2.853.804.434 1.61.866 2.17 1.167zm-2.19-435.796c-.647-.878-1.507-2.57-1.882-2.468-1.63.44-3.558 1.03-4.59 2.237-7.786 9.1-15.308 18.424-23.058 27.555-22.397 26.39-44.987 52.62-67.27 79.11-21.308 25.33-42.324 50.908-63.468 76.38-3.846 4.63-2.042 7.617 2.935 9.373 24.1 8.5 48.203 16.99 72.35 25.35 7.197 2.49 8.158 7.11 5.168 13.31-1.507 3.127-3.603 5.99-4.914 9.187-5.277 12.86-10.295 25.826-15.52 38.708-4.185 10.32-8.583 20.555-12.734 30.888-.476 1.186.032 2.765.083 4.16 1.332-.345 2.84-.408 3.953-1.102 1.53-.952 2.847-2.3 4.107-3.62 18.27-19.145 36.447-38.383 54.79-57.46 18.81-19.563 37.798-38.954 56.657-58.47 3.52-3.642 4.297-7.498-1.828-8.69-25.254-4.924-50.538-9.71-75.89-14.1-10.435-1.806-13.268-5.624-8.635-15.136 6.935-14.238 14.377-28.23 21.613-42.32 18.063-35.18 36.13-70.357 54.204-105.532 1.217-2.36 2.498-4.684 3.927-7.36zm349.85 526.22l.076 1.02c9.643-.49 19.288-.915 28.92-1.547 1.372-.09 2.678-1.183 4.014-1.81-1.193-.683-2.322-1.79-3.59-1.98-17.224-2.606-34.45-5.204-51.71-7.57-28.158-3.857-56.348-7.488-84.51-11.32-21.035-2.863-42.04-5.963-63.076-8.81-7.408-1.004-14.91-1.342-22.31-2.397-9.364-1.335-18.626-3.485-28.017-4.515-5.4-.59-8.81 2.61-7.304 8.403 5.143 19.78 10.723 39.45 15.775 59.254 1.34 5.253 2.35 10.965 1.65 16.22-.402 3.046-4.152 7.56-7 8.075-27.42 4.96-54.974 9.176-82.467 13.74-1.896.315-3.614 1.716-5.414 2.61 1.683 1.33 3.223 2.94 5.098 3.893 1.408.717 3.262.515 4.89.85 22.8 4.7 45.637 9.224 68.377 14.19 27.173 5.935 54.257 12.272 81.396 18.365 2.09.47 5.01 1.315 6.31.34 2.33-1.745 5.795-5.562 5.19-7.096-8.588-21.756-17.123-43.582-27.054-64.742-6.855-14.608-4.278-20.87 11.59-21.733 1.494-.083 2.98-.32 4.473-.453 48.232-4.33 96.464-8.658 144.696-12.986zM353.98 347.357c.708 4.935.687 9.055 1.944 12.737 3.73 10.936 7.633 21.837 12.088 32.493 5.417 12.96 11.31 25.73 17.29 38.44 4.437 9.428 9.35 18.63 14.038 27.938 7.5 14.894 14.557 30.03 22.604 44.622 7.805 14.153 16.573 27.778 25.007 41.58 9.247 15.133 18.15 30.502 28.01 45.225 12.278 18.33 25.202 36.234 38.177 54.08 16.162 22.23 32.788 44.116 55.074 60.795 1.722 1.288 4.74 2.084 6.61 1.466 1.12-.37 2.126-4.226 1.577-6.024-6.29-20.632-11.62-41.687-19.745-61.594-8.886-21.77-20.756-42.307-30.647-63.694-3.748-8.104-7.42-7.667-14.17-3.728-5.592 3.264-12.352 6.37-18.58 6.34-15.562-.073-24.66-11.398-32.41-22.992-9.016-13.49-17.422-27.44-25.275-41.642-11.883-21.492-17.247-44.447 13.602-60.282 1.06-.544 1.907-4.09 1.21-5.093-14.484-20.807-28.363-42.12-44.148-61.91-12.446-15.602-27.18-29.4-41.202-43.702-2.143-2.187-5.927-2.764-8.953-4.085l-2.1 9.033zM36.903 714.43c1.702 7.27 1.838 12.036 3.862 15.784 9.912 18.36 19.72 36.828 30.813 54.473 5.728 9.112 12.606 19.7 26.354 15.956 8.156-2.22 16.146-5.62 23.64-9.57 14.032-7.396 27.76-15.396 41.293-23.67 1.663-1.018 2.815-6.248 1.73-7.86-12.085-17.97-25.62-35.03-36.76-53.542-7.378-12.254-11.445-26.49-17.26-39.72-.384-.875-3.473-1.55-4.566-.957-5.82 3.15-11.387 6.764-17.07 10.168-14.324 8.58-28.992 16.647-42.81 25.977-4.475 3.02-6.74 9.318-9.227 12.963zm408.58-228.72c1.343 4.197 2.067 8.73 4.135 12.53 8.143 14.968 16.5 29.828 25.184 44.49 7.087 11.965 19.387 17.498 29.255 13.872 15-5.51 24.38-23.81 19.587-39.05-3-9.538-6.375-18.992-10.213-28.222-6.332-15.23-31.102-28.132-47.162-25.023-9.814 1.9-19.92 12.643-20.784 21.404zM33.11 794.497l18.14-13.245c-5.126-6.96-9.328-15.026-15.768-20.42-3.22-2.696-19.033 10.758-18.975 15.133.12 9.182 7.045 18.73 16.603 18.533z"/>
  <path fill-rule="evenodd" clip-rule="evenodd" d="M542.772 713.71c-34.963-2.073-67.487-5.18-100.048-5.618-35.892-.482-72.04-.652-107.65 3.1-25.623 2.7-50.95 10.812-75.637 18.872-16.832 5.494-32.355 15.018-48.414 22.844-4.753 2.315-9.137 5.58-14.083 7.23-2.322.773-6.762-.313-8.22-2.154-10.403-13.147-21.71-25.89-29.99-40.332-11.976-20.88-21.876-42.976-31.97-64.872-1.165-2.53.937-8.773 3.434-10.45 35.437-23.793 68.634-50.47 95.407-83.64 16.544-20.496 30.175-43.68 42.818-66.903 18.232-33.492 34.456-68.082 51.363-102.29 4.05-8.194 7.368-16.75 11.155-25.08.486-1.068 1.782-1.77 2.702-2.642.568 1.104 1.288 2.157 1.682 3.32 4.886 14.436 8.93 29.218 14.77 43.255 8.01 19.244 16.82 38.206 26.3 56.772 10.48 20.53 21.782 40.663 33.32 60.624 11.72 20.27 23.842 40.322 36.384 60.09 11.47 18.08 23.053 36.167 35.83 53.323 16.062 21.567 33.313 42.254 50.248 63.162 2.687 3.316 6.436 5.763 9.614 8.696.666.614.987 1.604 1.467 2.42-.91.514-1.82 1.03-.48.272zM297.225 589.652c-4.782-8.12-8.676-15.152-12.97-21.932-7.5-11.842-10.532-11.468-21.473-2.97-22.667 17.604-45.594 34.948-69.257 51.172-17.598 12.065-36.514 22.212-54.857 33.188-7.026 4.204-8.47 9.73-4.405 16.878 1.64 2.883 2.833 6.018 4.253 9.026 3.298 6.982 9.542 8.705 16.11 4.657 16.14-9.946 32.19-20.046 48.533-29.647 28.588-16.796 57.45-33.125 85.96-50.055 3.368-2 5.23-6.54 8.105-10.316zm4.224-56.216c1.526 3.106 2.624 5.812 4.114 8.28 5.314 8.81 11.224 17.295 16 26.38 3.34 6.353 6.973 7.838 13.077 4.24 20.44-12.044 41.115-23.71 61.185-36.342 2.59-1.63 4.244-9.094 2.768-12.11-8.077-16.504-17.215-32.49-26.093-48.598-6.47-11.738-11.83-11.98-20.453-2.008-15.104 17.47-30.652 34.553-45.867 51.927-1.966 2.244-3.056 5.256-4.73 8.23zM263.602 783.69c-3.9 5.26-7.16 10.506-11.25 14.997-7.55 8.29-6.63 12.27 4.11 15.015 10.576 2.704 19.076 18.738 15.465 30.5-2.553 8.315-.87 13.26 7.49 17.004 15.51 6.946 19.73 15.32 17.457 32.236-1.027 7.64 2.076 11.177 9.548 11.96 11.893 1.25 27.878 12.967 29.085 22.725.63 5.098-.794 12.162-4.102 15.737-14.642 15.826-32.818 26.91-52.67 35.213-8.87 3.71-17.848 7.167-26.667 10.992-10.226 4.435-16.5-2.645-21.973-8.545-16.053-17.31-26.22-38.27-34.85-60.057-5.298-13.378-11.288-26.48-16.636-39.84-2.825-7.055-5.128-14.336-7.338-21.614-6.005-19.775-12.15-39.518-17.592-59.45-2.49-9.126 7.07-9.115 11.646-12.662 2.648-2.054 5.963-3.465 9.194-4.476 2.345-.733 5.042-.374 7.584-.432 4.48-.1 9.65 1.292 13.32-.467 15.618-7.48 30.64-16.21 46.278-23.642 2.574-1.223 8.767.614 10.482 3.03 4.424 6.226 7.275 13.566 11.418 21.775zM578.875 478.877l-2.173-1.166c.522-.964.82-2.202 1.604-2.852 9.602-7.948 19.138-15.986 28.956-23.66 26.317-20.567 52.784-40.942 79.134-61.468 3.933-3.062 7.318-6.856 11.374-9.723 7.29-5.153 7.075-11.013 1.644-16.852-18.145-19.507-36.5-38.817-54.87-58.114-6.252-6.567-5.903-10.19 2.528-13.578 21.825-8.772 43.848-17.057 65.676-25.823 17.385-6.983 34.53-14.56 51.91-21.555 14.29-5.752 28.817-10.917 43.152-16.564 12.99-5.116 25.818-10.64 38.795-15.79 15.06-5.98 30.275-11.563 45.285-17.657 13.307-5.402 26.38-11.376 39.664-16.835 2.442-1.004 5.398-.755 8.117-1.084-1.736 1.95-3.155 4.382-5.26 5.774-19.4 12.827-38.865 25.555-58.414 38.152-22.042 14.204-44.273 28.115-66.267 42.394-21.753 14.12-43.605 28.12-64.857 42.97-15.418 10.77-15.258 11.65-.385 23.702 20.803 16.86 42.08 33.134 62.945 49.915 2.128 1.712 4.08 5.304 3.833 7.797-.21 2.12-3.373 4.772-5.804 5.726-32.77 12.848-65.604 25.53-98.498 38.05-13.792 5.25-27.887 9.71-41.626 15.083-20.04 7.838-39.817 16.343-59.84 24.225-8.566 3.373-17.47 5.895-26.623 8.937zM576.684 43.08c-1.43 2.676-2.71 5-3.923 7.36-18.072 35.175-36.14 70.353-54.203 105.53-7.236 14.093-14.68 28.084-21.614 42.322-4.633 9.512-1.8 13.33 8.636 15.137 25.35 4.388 50.634 9.174 75.888 14.097 6.125 1.193 5.348 5.05 1.828 8.69-18.86 19.517-37.848 38.907-56.657 58.47-18.344 19.078-36.52 38.316-54.79 57.462-1.26 1.32-2.58 2.666-4.108 3.618-1.114.693-2.62.757-3.953 1.102-.052-1.396-.56-2.975-.084-4.16 4.15-10.332 8.55-20.566 12.734-30.887 5.225-12.882 10.243-25.848 15.52-38.708 1.31-3.195 3.407-6.06 4.914-9.186 2.99-6.2 2.03-10.822-5.168-13.313-24.147-8.36-48.25-16.848-72.35-25.35-4.977-1.755-6.78-4.74-2.935-9.373 21.145-25.47 42.16-51.048 63.47-76.38 22.28-26.488 44.87-52.72 67.27-79.11 7.75-9.13 15.27-18.455 23.056-27.555 1.033-1.21 2.96-1.797 4.59-2.238.372-.1 1.23 1.59 1.878 2.47zM926.536 569.3c-48.232 4.33-96.464 8.656-144.696 12.987-1.492.134-2.98.37-4.473.452-15.868.862-18.445 7.124-11.59 21.732 9.93 21.16 18.466 42.986 27.054 64.742.605 1.533-2.86 5.35-5.19 7.097-1.3.976-4.218.13-6.308-.34-27.14-6.093-54.223-12.43-81.396-18.365-22.74-4.967-45.577-9.49-68.376-14.19-1.63-.335-3.482-.133-4.89-.85-1.876-.953-3.416-2.563-5.1-3.892 1.8-.896 3.518-2.296 5.414-2.61 27.493-4.565 55.047-8.78 82.466-13.74 2.85-.517 6.6-5.03 7.002-8.076.697-5.255-.31-10.967-1.65-16.22-5.053-19.804-10.633-39.473-15.775-59.254-1.506-5.793 1.904-8.994 7.305-8.402 9.39 1.03 18.652 3.18 28.018 4.516 7.4 1.055 14.9 1.393 22.31 2.396 21.036 2.848 42.04 5.947 63.075 8.81 28.162 3.833 56.352 7.464 84.51 11.322 17.26 2.365 34.486 4.963 51.71 7.57 1.268.19 2.396 1.297 3.59 1.978-1.336.628-2.642 1.72-4.013 1.81-9.633.633-19.278 1.058-28.92 1.548l-.076-1.02zM353.98 347.356l2.1-9.032c3.025 1.32 6.81 1.898 8.953 4.085 14.02 14.3 28.756 28.1 41.202 43.702 15.785 19.79 29.664 41.103 44.147 61.91.698 1.002-.148 4.55-1.21 5.093-30.847 15.835-25.484 38.79-13.6 60.282 7.852 14.202 16.258 28.152 25.275 41.642 7.75 11.593 16.847 22.918 32.41 22.99 6.227.03 12.987-3.075 18.58-6.34 6.75-3.938 10.42-4.375 14.17 3.73 9.89 21.387 21.76 41.922 30.646 63.693 8.124 19.907 13.455 40.962 19.745 61.594.55 1.8-.457 5.655-1.576 6.025-1.872.618-4.89-.178-6.61-1.466-22.286-16.68-38.912-38.564-55.074-60.794-12.976-17.847-25.9-35.752-38.176-54.08-9.862-14.723-18.764-30.092-28.01-45.224-8.434-13.803-17.202-27.428-25.007-41.58-8.047-14.593-15.104-29.73-22.604-44.623-4.687-9.31-9.6-18.51-14.036-27.938-5.98-12.712-11.874-25.48-17.29-38.44-4.456-10.656-8.358-21.558-12.09-32.493-1.257-3.683-1.236-7.803-1.944-12.738zM36.903 714.43c2.487-3.645 4.75-9.942 9.228-12.964 13.818-9.33 28.485-17.396 42.81-25.976 5.683-3.404 11.25-7.017 17.07-10.168 1.093-.593 4.18.082 4.565.956 5.815 13.23 9.882 27.467 17.26 39.722 11.14 18.51 24.674 35.573 36.76 53.54 1.085 1.614-.067 6.845-1.73 7.86-13.532 8.276-27.26 16.275-41.292 23.672-7.495 3.95-15.485 7.35-23.64 9.57-13.75 3.743-20.627-6.844-26.355-15.956-11.093-17.645-20.9-36.113-30.813-54.473-2.023-3.747-2.16-8.515-3.862-15.783z"/>
  <path fill-rule="evenodd" clip-rule="evenodd" d="M445.484 485.71c.863-8.76 10.97-19.504 20.784-21.402 16.06-3.108 40.83 9.792 47.163 25.023 3.84 9.23 7.215 18.685 10.214 28.222 4.794 15.24-4.588 33.54-19.587 39.05-9.868 3.627-22.168-1.906-29.255-13.872-8.682-14.66-17.04-29.52-25.184-44.488-2.068-3.803-2.792-8.335-4.134-12.53zM33.11 794.496c-9.558.196-16.48-9.352-16.603-18.533-.058-4.375 15.754-17.83 18.975-15.132 6.44 5.394 10.64 13.46 15.767 20.42l-18.14 13.246z"/>
  <path clip-rule="evenodd" fill="none" d="M297.225 589.652c-2.875 3.776-4.737 8.315-8.105 10.316-28.508 16.93-57.372 33.26-85.96 50.055-16.343 9.602-32.394 19.7-48.533 29.648-6.568 4.05-12.812 2.326-16.11-4.656-1.42-3.01-2.614-6.144-4.253-9.026-4.065-7.146-2.62-12.674 4.405-16.878 18.343-10.976 37.258-21.122 54.856-33.188 23.663-16.224 46.59-33.567 69.257-51.173 10.94-8.498 13.973-8.872 21.473 2.97 4.293 6.78 8.187 13.812 12.97 21.932zM301.45 533.436c1.674-2.975 2.764-5.986 4.73-8.23 15.214-17.374 30.762-34.457 45.866-51.927 8.623-9.975 13.983-9.73 20.453 2.007 8.876 16.107 18.015 32.094 26.092 48.597 1.477 3.018-.178 10.482-2.768 12.11-20.07 12.632-40.743 24.3-61.184 36.343-6.104 3.598-9.738 2.112-13.077-4.24-4.775-9.085-10.686-17.57-16-26.38-1.49-2.47-2.586-5.175-4.114-8.28z"/>
</svg>