<svg xmlns="http://www.w3.org/2000/svg" viewBox="0 0 1000 1000">
  <path fill="none" d="M501 1001c-165.167 0-330.333-.016-495.5.096-3.766.003-4.596-.83-4.595-4.596.103-330.333.103-660.667 0-991 0-3.766.83-4.597 4.595-4.595 330.333.103 660.667.103 991 0 3.766-.002 4.597.83 4.596 4.595-.104 330.333-.104 660.667 0 991 0 3.766-.83 4.6-4.596 4.596-165.167-.112-330.333-.096-495.5-.096zm41.77-287.29c-1.34.757-.43.242.482-.27-.48-.817-.8-1.808-1.467-2.422-3.18-2.934-6.928-5.38-9.614-8.695-16.934-20.908-34.185-41.596-50.247-63.163-12.776-17.156-24.358-35.242-35.83-53.322-12.542-19.77-24.665-39.82-36.383-60.09-11.54-19.962-22.84-40.095-33.322-60.625-9.48-18.566-18.29-37.528-26.298-56.772-5.84-14.035-9.885-28.817-14.772-43.254-.394-1.163-1.114-2.217-1.682-3.32-.92.873-2.216 1.573-2.702 2.644-3.788 8.33-7.104 16.885-11.154 25.08-16.907 34.207-33.13 68.797-51.363 102.29-12.643 23.224-26.274 46.406-42.817 66.9-26.773 33.17-59.97 59.85-95.407 83.642-2.497 1.677-4.6 7.92-3.433 10.45 10.094 21.896 19.993 43.993 31.968 64.872 8.282 14.44 19.588 27.185 29.99 40.332 1.46 1.842 5.898 2.928 8.22 2.152 4.947-1.648 9.33-4.913 14.084-7.23 16.058-7.825 31.582-17.35 48.414-22.843 24.688-8.06 50.014-16.173 75.637-18.872 35.61-3.752 71.76-3.582 107.65-3.1 32.562.437 65.087 3.544 100.048 5.617zm-279.168 69.98c-4.143-8.21-6.994-15.55-11.416-21.774-1.716-2.415-7.908-4.252-10.482-3.03-15.64 7.434-30.66 16.16-46.277 23.644-3.67 1.76-8.84.366-13.32.467-2.543.058-5.24-.302-7.585.432-3.23 1.01-6.546 2.42-9.194 4.476-4.574 3.547-14.136 3.536-11.646 12.66 5.44 19.935 11.587 39.677 17.592 59.45 2.21 7.28 4.513 14.562 7.337 21.615 5.35 13.36 11.34 26.463 16.638 39.84 8.63 21.79 18.796 42.747 34.85 60.06 5.472 5.898 11.746 12.978 21.972 8.543 8.82-3.825 17.796-7.282 26.666-10.992 19.853-8.303 38.03-19.386 52.67-35.212 3.31-3.575 4.733-10.64 4.103-15.737-1.208-9.757-17.194-21.475-29.086-22.723-7.473-.784-10.575-4.32-9.548-11.96 2.274-16.917-1.947-25.29-17.457-32.237-8.362-3.745-10.044-8.688-7.49-17.005 3.61-11.76-4.89-27.795-15.467-30.5-10.74-2.744-11.66-6.725-4.11-15.014 4.088-4.494 7.35-9.74 11.25-15zm315.273-304.813c9.152-3.042 18.057-5.562 26.625-8.937 20.02-7.883 39.8-16.388 59.84-24.226 13.74-5.374 27.834-9.833 41.626-15.082 32.896-12.52 65.73-25.203 98.498-38.05 2.43-.954 5.594-3.605 5.804-5.727.247-2.493-1.705-6.085-3.833-7.797-20.865-16.78-42.143-33.056-62.944-49.915-14.872-12.053-15.032-12.93.386-23.703 21.252-14.848 43.104-28.848 64.856-42.97 21.992-14.277 44.225-28.188 66.267-42.393 19.548-12.598 39.014-25.325 58.412-38.152 2.104-1.393 3.524-3.824 5.262-5.774-2.72.33-5.675.08-8.117 1.085-13.282 5.46-26.356 11.433-39.663 16.835-15.01 6.094-30.228 11.68-45.285 17.656-12.98 5.15-25.808 10.675-38.796 15.792-14.335 5.647-28.86 10.812-43.152 16.564-17.38 6.995-34.525 14.57-51.91 21.554-21.828 8.767-43.85 17.05-65.676 25.823-8.432 3.388-8.78 7.01-2.527 13.578 18.367 19.297 36.725 38.607 54.868 58.114 5.433 5.84 5.646 11.697-1.644 16.852-4.057 2.866-7.44 6.66-11.374 9.723-26.35 20.525-52.816 40.9-79.135 61.47-9.817 7.673-19.354 15.71-28.955 23.66-.785.647-1.082 1.887-1.604 2.852.802.434 1.608.866 2.17 1.167zm-2.19-435.796c-.647-.878-1.507-2.57-1.882-2.468-1.63.44-3.558 1.03-4.59 2.237-7.786 9.1-15.308 18.424-23.058 27.555-22.397 26.39-44.987 52.62-67.27 79.11-21.31 25.33-42.325 50.908-63.47 76.38-3.845 4.63-2.04 7.617 2.936 9.373 24.1 8.5 48.204 16.99 72.352 25.35 7.197 2.49 8.158 7.11 5.168 13.31-1.507 3.127-3.604 5.99-4.914 9.187-5.277 12.86-10.295 25.826-15.52 38.708-4.186 10.32-8.583 20.555-12.734 30.888-.477 1.187.032 2.765.083 4.16 1.332-.345 2.84-.408 3.953-1.103 1.528-.95 2.847-2.3 4.106-3.618 18.27-19.147 36.447-38.386 54.79-57.462 18.81-19.563 37.798-38.954 56.657-58.47 3.522-3.642 4.298-7.498-1.827-8.69-25.254-4.924-50.538-9.71-75.89-14.1-10.436-1.806-13.27-5.624-8.635-15.136 6.936-14.238 14.378-28.23 21.613-42.32 18.064-35.18 36.132-70.357 54.205-105.532 1.22-2.36 2.5-4.684 3.93-7.36zm349.85 526.22c.024.34.05.68.076 1.02 9.643-.49 19.288-.914 28.92-1.546 1.372-.09 2.678-1.184 4.014-1.812-1.193-.682-2.322-1.788-3.59-1.98-17.224-2.605-34.45-5.203-51.71-7.568-28.158-3.858-56.35-7.49-84.51-11.322-21.035-2.86-42.04-5.962-63.076-8.81-7.408-1.003-14.91-1.34-22.31-2.396-9.364-1.335-18.627-3.484-28.018-4.515-5.4-.59-8.812 2.61-7.305 8.403 5.143 19.78 10.723 39.45 15.774 59.254 1.34 5.253 2.348 10.965 1.65 16.22-.404 3.046-4.154 7.56-7.003 8.075-27.42 4.96-54.974 9.176-82.466 13.74-1.895.314-3.613 1.716-5.413 2.61 1.684 1.328 3.224 2.938 5.1 3.893 1.407.717 3.26.515 4.89.85 22.8 4.7 45.637 9.224 68.376 14.19 27.173 5.935 54.258 12.27 81.396 18.364 2.09.47 5.008 1.314 6.308.34 2.33-1.745 5.795-5.562 5.19-7.097-8.588-21.756-17.123-43.582-27.054-64.742-6.855-14.606-4.278-20.868 11.59-21.73 1.494-.083 2.98-.32 4.473-.453 48.235-4.33 96.467-8.658 144.7-12.986zM353.98 347.357c.708 4.935.687 9.055 1.944 12.736 3.73 10.937 7.633 21.837 12.088 32.493 5.417 12.96 11.31 25.73 17.29 38.44 4.437 9.428 9.35 18.63 14.038 27.938 7.5 14.895 14.558 30.03 22.604 44.622 7.805 14.153 16.572 27.778 25.007 41.58 9.247 15.133 18.148 30.502 28.01 45.225 12.278 18.328 25.202 36.233 38.177 54.08 16.162 22.23 32.788 44.115 55.074 60.794 1.722 1.288 4.74 2.084 6.61 1.467 1.12-.37 2.126-4.227 1.576-6.024-6.29-20.632-11.62-41.688-19.744-61.594-8.887-21.77-20.756-42.308-30.647-63.694-3.748-8.104-7.42-7.667-14.17-3.73-5.592 3.266-12.352 6.37-18.58 6.342-15.56-.073-24.66-11.398-32.41-22.992-9.016-13.49-17.422-27.44-25.274-41.642-11.883-21.492-17.246-44.447 13.603-60.282 1.062-.544 1.907-4.09 1.21-5.093-14.483-20.808-28.363-42.12-44.147-61.91-12.446-15.603-27.18-29.4-41.202-43.702-2.143-2.188-5.927-2.765-8.953-4.085l-2.1 9.033zM36.903 714.43c1.702 7.27 1.838 12.036 3.862 15.784 9.912 18.36 19.72 36.828 30.813 54.474 5.728 9.11 12.606 19.698 26.354 15.955 8.156-2.22 16.146-5.62 23.64-9.57 14.032-7.395 27.76-15.395 41.293-23.67 1.663-1.018 2.815-6.247 1.73-7.86-12.085-17.968-25.62-35.03-36.76-53.54-7.378-12.256-11.445-26.49-17.26-39.723-.384-.874-3.473-1.55-4.566-.956-5.82 3.15-11.387 6.764-17.07 10.168-14.324 8.58-28.992 16.646-42.81 25.976-4.475 3.02-6.74 9.317-9.227 12.962zm408.58-228.72c1.343 4.197 2.066 8.73 4.135 12.53 8.143 14.968 16.5 29.828 25.184 44.488 7.087 11.967 19.388 17.5 29.255 13.873 15-5.51 24.38-23.81 19.587-39.05-3-9.537-6.375-18.99-10.213-28.22-6.332-15.232-31.102-28.133-47.162-25.024-9.814 1.9-19.92 12.644-20.784 21.405zM33.11 794.497l18.14-13.245c-5.126-6.96-9.328-15.026-15.768-20.42-3.22-2.696-19.033 10.758-18.975 15.133.12 9.182 7.045 18.73 16.603 18.533z"/>
  <path fill="#FFF" d="M542.77 713.71c-34.962-2.073-67.485-5.18-100.047-5.618-35.892-.48-72.04-.65-107.65 3.1-25.622 2.7-50.948 10.813-75.636 18.873-16.832 5.493-32.355 15.018-48.414 22.844-4.753 2.313-9.137 5.578-14.083 7.228-2.322.774-6.762-.312-8.22-2.152-10.403-13.147-21.71-25.892-29.99-40.332-11.976-20.88-21.876-42.977-31.97-64.872-1.165-2.53.937-8.773 3.434-10.45 35.437-23.793 68.634-50.47 95.407-83.64 16.544-20.496 30.175-43.68 42.818-66.903 18.232-33.493 34.456-68.083 51.363-102.29 4.05-8.195 7.368-16.75 11.155-25.08.486-1.07 1.782-1.77 2.702-2.643.568 1.104 1.288 2.156 1.682 3.32 4.886 14.436 8.93 29.217 14.77 43.254 8.01 19.245 16.82 38.207 26.3 56.773 10.48 20.53 21.782 40.663 33.32 60.624 11.72 20.27 23.842 40.322 36.384 60.09 11.472 18.08 23.053 36.167 35.83 53.323 16.062 21.567 33.313 42.255 50.248 63.163 2.688 3.315 6.436 5.763 9.614 8.695.666.614.987 1.604 1.467 2.42-.91.514-1.82 1.03-.482.272zM297.226 589.652c-4.782-8.12-8.676-15.152-12.97-21.933-7.5-11.843-10.532-11.47-21.473-2.972-22.667 17.604-45.594 34.95-69.257 51.173-17.598 12.066-36.514 22.213-54.857 33.19-7.026 4.202-8.47 9.73-4.405 16.877 1.64 2.883 2.833 6.018 4.253 9.025 3.298 6.982 9.542 8.705 16.11 4.657 16.14-9.948 32.19-20.048 48.533-29.65 28.588-16.795 57.45-33.124 85.96-50.054 3.368-1.998 5.23-6.537 8.105-10.314zm4.224-56.216c1.526 3.106 2.624 5.812 4.114 8.28 5.314 8.81 11.224 17.295 16 26.38 3.34 6.354 6.973 7.838 13.077 4.24 20.44-12.044 41.115-23.71 61.185-36.342 2.59-1.63 4.244-9.094 2.768-12.11-8.077-16.504-17.215-32.49-26.093-48.598-6.47-11.738-11.83-11.98-20.453-2.008-15.104 17.47-30.652 34.553-45.867 51.927-1.966 2.244-3.056 5.256-4.73 8.23zM263.602 783.69c-3.9 5.26-7.16 10.506-11.25 14.997-7.55 8.288-6.63 12.27 4.11 15.015 10.576 2.704 19.076 18.738 15.465 30.5-2.553 8.314-.87 13.26 7.49 17.004 15.51 6.946 19.73 15.32 17.457 32.236-1.027 7.64 2.076 11.177 9.548 11.96 11.893 1.25 27.878 12.967 29.085 22.725.63 5.098-.794 12.162-4.102 15.737-14.642 15.826-32.818 26.91-52.67 35.213-8.87 3.71-17.848 7.167-26.667 10.992-10.226 4.435-16.5-2.646-21.973-8.545-16.053-17.312-26.22-38.27-34.85-60.058-5.298-13.378-11.288-26.48-16.636-39.84-2.825-7.055-5.128-14.336-7.338-21.614-6.005-19.774-12.15-39.518-17.592-59.45-2.49-9.125 7.07-9.114 11.646-12.66 2.648-2.056 5.963-3.466 9.194-4.478 2.345-.732 5.042-.374 7.584-.432 4.48-.102 9.65 1.292 13.32-.467 15.618-7.48 30.64-16.21 46.278-23.643 2.574-1.223 8.767.614 10.482 3.03 4.424 6.228 7.275 13.568 11.418 21.777zM578.875 478.877l-2.173-1.166c.52-.964.82-2.202 1.604-2.852 9.603-7.948 19.14-15.986 28.956-23.66 26.317-20.567 52.784-40.942 79.135-61.468 3.933-3.062 7.317-6.856 11.373-9.724 7.29-5.152 7.075-11.013 1.645-16.852-18.146-19.507-36.5-38.817-54.87-58.114-6.252-6.568-5.903-10.19 2.528-13.58 21.824-8.77 43.848-17.056 65.676-25.822 17.384-6.982 34.53-14.56 51.91-21.554 14.29-5.752 28.815-10.917 43.15-16.564 12.99-5.117 25.818-10.642 38.795-15.792 15.06-5.978 30.275-11.562 45.285-17.656 13.308-5.402 26.38-11.376 39.664-16.835 2.442-1.004 5.398-.755 8.117-1.084-1.736 1.95-3.155 4.382-5.26 5.774-19.4 12.827-38.865 25.555-58.414 38.152-22.042 14.203-44.273 28.114-66.268 42.393-21.752 14.12-43.604 28.12-64.855 42.97-15.418 10.77-15.258 11.65-.385 23.703 20.803 16.858 42.078 33.134 62.944 49.915 2.128 1.712 4.08 5.304 3.833 7.797-.21 2.12-3.373 4.77-5.804 5.726-32.768 12.848-65.603 25.53-98.497 38.05-13.792 5.25-27.887 9.71-41.626 15.083-20.04 7.838-39.817 16.343-59.84 24.226-8.565 3.37-17.47 5.893-26.622 8.935zM576.684 43.08c-1.43 2.676-2.71 5-3.923 7.36-18.07 35.175-36.14 70.353-54.203 105.53-7.235 14.093-14.68 28.084-21.613 42.322-4.633 9.512-1.8 13.33 8.636 15.137 25.35 4.388 50.635 9.174 75.89 14.097 6.124 1.193 5.348 5.05 1.827 8.69-18.858 19.517-37.848 38.907-56.657 58.47-18.343 19.078-36.52 38.316-54.79 57.462-1.26 1.318-2.577 2.666-4.106 3.617-1.114.693-2.62.758-3.953 1.103-.05-1.396-.558-2.976-.082-4.16 4.15-10.332 8.55-20.566 12.734-30.887 5.225-12.882 10.242-25.848 15.52-38.708 1.312-3.195 3.407-6.06 4.914-9.186 2.99-6.2 2.03-10.822-5.168-13.313-24.147-8.36-48.25-16.848-72.35-25.35-4.978-1.755-6.78-4.74-2.936-9.373 21.145-25.47 42.16-51.048 63.47-76.38 22.28-26.488 44.87-52.72 67.27-79.11 7.75-9.13 15.27-18.455 23.056-27.555 1.033-1.21 2.96-1.797 4.59-2.238.37-.1 1.23 1.59 1.876 2.47zM926.536 569.3c-48.232 4.33-96.464 8.656-144.696 12.987-1.492.134-2.98.37-4.473.452-15.868.86-18.445 7.124-11.59 21.73 9.93 21.16 18.466 42.987 27.054 64.743.605 1.533-2.86 5.352-5.19 7.097-1.3.976-4.218.13-6.308-.34-27.14-6.094-54.223-12.432-81.396-18.365-22.74-4.968-45.576-9.49-68.376-14.19-1.63-.335-3.48-.133-4.89-.85-1.876-.953-3.416-2.563-5.1-3.893 1.8-.896 3.518-2.296 5.414-2.61 27.492-4.564 55.047-8.78 82.466-13.74 2.85-.517 6.6-5.03 7.002-8.075.697-5.255-.312-10.967-1.65-16.22-5.053-19.805-10.633-39.474-15.774-59.254-1.506-5.794 1.903-8.994 7.305-8.402 9.39 1.03 18.652 3.18 28.018 4.516 7.4 1.056 14.9 1.394 22.31 2.396 21.038 2.848 42.042 5.946 63.077 8.81 28.16 3.833 56.352 7.464 84.51 11.322 17.26 2.365 34.486 4.963 51.71 7.57 1.268.19 2.396 1.297 3.59 1.978-1.336.628-2.642 1.72-4.013 1.812-9.633.632-19.278 1.057-28.92 1.547-.028-.34-.053-.68-.078-1.02zM353.98 347.356c.582-2.5 1.34-5.768 2.1-9.032 3.025 1.32 6.81 1.897 8.953 4.085 14.02 14.3 28.756 28.1 41.202 43.702 15.784 19.79 29.664 41.103 44.146 61.91.7 1.002-.146 4.55-1.208 5.093-30.848 15.835-25.485 38.79-13.602 60.28 7.853 14.203 16.26 28.153 25.275 41.644 7.75 11.593 16.848 22.918 32.41 22.99 6.228.03 12.987-3.075 18.58-6.34 6.75-3.938 10.42-4.376 14.17 3.73 9.892 21.387 21.76 41.922 30.646 63.693 8.125 19.906 13.456 40.962 19.746 61.594.55 1.8-.457 5.655-1.576 6.025-1.872.617-4.89-.18-6.61-1.467-22.286-16.68-38.912-38.563-55.074-60.794-12.976-17.846-25.898-35.75-38.176-54.08-9.862-14.722-18.764-30.09-28.01-45.223-8.435-13.803-17.202-27.428-25.007-41.58-8.047-14.593-15.104-29.73-22.604-44.623-4.69-9.31-9.602-18.51-14.038-27.938-5.98-12.713-11.874-25.48-17.29-38.44-4.456-10.656-8.358-21.558-12.09-32.493-1.255-3.682-1.234-7.802-1.942-12.737zM36.903 714.43c2.487-3.645 4.75-9.94 9.228-12.964 13.818-9.33 28.485-17.396 42.81-25.976 5.683-3.404 11.25-7.018 17.07-10.168 1.093-.594 4.18.082 4.565.956 5.815 13.23 9.882 27.467 17.26 39.722 11.14 18.51 24.674 35.573 36.76 53.54 1.085 1.614-.067 6.845-1.73 7.86-13.532 8.275-27.26 16.274-41.292 23.672-7.495 3.95-15.485 7.35-23.64 9.57-13.75 3.742-20.627-6.845-26.355-15.957-11.093-17.645-20.9-36.112-30.813-54.473-2.023-3.746-2.16-8.514-3.862-15.782z"/>
  <path fill="#FFF" d="M445.484 485.71c.862-8.76 10.97-19.504 20.783-21.402 16.062-3.107 40.83 9.792 47.163 25.023 3.84 9.23 7.214 18.685 10.214 28.222 4.794 15.24-4.59 33.54-19.588 39.052-9.867 3.625-22.168-1.907-29.255-13.873-8.68-14.66-17.04-29.52-25.183-44.487-2.067-3.804-2.79-8.336-4.133-12.532zM33.11 794.496c-9.558.196-16.48-9.353-16.603-18.533-.058-4.375 15.754-17.83 18.975-15.132 6.44 5.394 10.64 13.46 15.767 20.42l-18.14 13.246z"/>
  <path fill="none" d="M297.225 589.652c-2.875 3.775-4.737 8.314-8.105 10.315-28.508 16.93-57.372 33.26-85.96 50.056-16.343 9.602-32.394 19.7-48.533 29.647-6.568 4.048-12.812 2.325-16.11-4.657-1.42-3.01-2.614-6.144-4.253-9.025-4.065-7.146-2.62-12.674 4.405-16.878 18.343-10.977 37.258-21.122 54.856-33.188 23.663-16.224 46.59-33.566 69.257-51.173 10.94-8.498 13.973-8.872 21.473 2.97 4.293 6.78 8.187 13.812 12.97 21.932zM301.45 533.436c1.674-2.975 2.764-5.985 4.73-8.23 15.214-17.373 30.762-34.456 45.866-51.926 8.623-9.975 13.983-9.73 20.453 2.008 8.876 16.106 18.015 32.094 26.092 48.597 1.478 3.02-.178 10.482-2.768 12.11-20.07 12.632-40.743 24.3-61.184 36.343-6.104 3.598-9.738 2.112-13.077-4.24-4.775-9.085-10.686-17.57-16-26.38-1.49-2.47-2.586-5.176-4.114-8.282z"/>
</svg>