<svg xmlns="http://www.w3.org/2000/svg" xmlns:xlink="http://www.w3.org/1999/xlink" viewBox="0 0 138.318 138.415" height="523.142" width="522.775">
  <defs>
    <pattern xlink:href="#a" id="d" patternTransform="scale(10)"/>
    <pattern id="a" patternTransform="scale(10)" height="1.732" width="1" patternUnits="userSpaceOnUse">
      <circle r=".5" cy=".5"/>
      <circle r=".5" cy=".5" cx="1"/>
      <circle r=".5" cy="1.366" cx=".5"/>
      <circle r=".5" cy="-.366" cx=".5"/>
    </pattern>
    <linearGradient id="b">
      <stop offset="0"/>
      <stop offset="1" stop-opacity="0"/>
    </linearGradient>
    <linearGradient id="c">
      <stop offset="0" stop-color="#9ba3a8"/>
      <stop offset="1" stop-color="#9ba3a8" stop-opacity="0"/>
    </linearGradient>
    <linearGradient gradientTransform="translate(53.602 -40.33) scale(.64352)" xlink:href="#b" id="h" x1="118.271" y1="197.247" x2="132.568" y2="156.377" gradientUnits="userSpaceOnUse"/>
    <linearGradient xlink:href="#c" id="e" gradientUnits="userSpaceOnUse" x1="29.796" y1="77.052" x2="108.176" y2="31.302" gradientTransform="translate(-1.4 -65.386) scale(.63908)"/>
    <linearGradient xlink:href="#c" id="f" gradientUnits="userSpaceOnUse" x1="29.796" y1="77.052" x2="108.176" y2="31.302" gradientTransform="translate(-1.4 -65.386) scale(.63908)"/>
    <linearGradient xlink:href="#b" id="g" gradientUnits="userSpaceOnUse" x1="2158.063" y1="1116.481" x2="2647.713" y2="2461.407"/>
  </defs>
  <g stroke-linecap="round" stroke-linejoin="round">
    <path d="M-14.75-4.035c-1.15 21.926-.162 44.24-.492 66.314.277 21.846-.554 43.931.414 65.627 5.227 2.532 12.562.374 18.586 1.09h112.719c4.41-3.595.855-11.648 2-17V-2.72c-3.596-4.41-11.648-.855-17-2h-114.72l-.91.414z" opacity=".198" fill="url(#d)" stroke="#001" stroke-width="1.587" transform="translate(17.443 7.119)"/>
    <path fill="none" stroke="#00000e" stroke-width="1.62" d="M2.2 2.397h133.72v133.718H2.2z"/>
  </g>
  <g stroke="#000" stroke-width="1.287">
    <path d="M83.028 42.92V22.762c-.183-10.435-4.833-13.56-9.993-15.85-13.38-4.283-25.64-5.623-40.832-1.723C27.017 7.77 21.038 9.552 19.797 21.9v20.674c-.392.089-.213.284-.72.661-.04.535.09 1.002.375 1.407-.034 1.265-.298 1.38-.517 1.723 25.177 3.459 46.575 3.717 65.987.517-.494 1.39-1.83-3.655-1.895-3.963z" fill="url(#e)" transform="translate(17.443 7.119)"/>
    <path d="M18.936 46.538c-5.854-2.732-12.67-7.526-15.506-3.79-1.415 9.104 8.016 9.395 15.162 11.543 22.448 5.412 43.618 5.087 65.125.69 8.826-1.551 15.567-3.995 14.817-9.649-3.225-4.073-8.647-.46-13.61 1.55-21.656 3.292-43.433 5.36-65.988-.344z" fill="url(#f)" transform="translate(17.443 7.119)"/>
    <path d="M36.728 49.242c15.911 4.835 35.432 5.463 63.743.797l1.895 3.963c-21.14 4.11-42.719 4.38-65.466-.97z"/>
  </g>
  <path d="M2690 1480c-121-19-230-80-324-181l-55-60-54 54c-71 73-165 133-252 160-99 31-251 31-355-2-100-30-230-100-314-167-227-182-448-281-602-271-43 3-87 13-111 26-46 23-109 83-118 112-10 32 3 84 26 105 28 25 101 23 164-5 58-26 77-26 98-3 30 33 21 62-36 118-153 147-340 114-491-87-45-60-46-62-46-139 0-94 26-185 72-255 118-178 357-310 637-352 161-24 528-24 658 0 196 37 362 99 488 182 60 40 177 154 203 197 9 15 22 28 29 28 6 0 32-27 57-59 195-253 578-385 1061-368 398 15 625 91 813 271 106 102 162 224 162 357 0 55-5 72-29 110-40 63-142 156-198 182-104 47-226 20-322-71-34-32-41-46-41-76 0-56 31-66 110-36 75 28 143 32 165 9 25-24 34-81 20-115-20-48-88-101-152-120-100-29-236-3-389 74-66 33-237 147-319 213-64 51-233 134-310 153-82 19-179 26-245 16z" fill="url(#g)" transform="matrix(.02114 0 0 -.02114 19.704 99.88)" stroke-width="75.596" stroke="#000004"/>
  <path d="M100.06 81.23c13.66 2.32 21.022-2.675 26.452-7.176 7.052 4.888 11.42 8.622 26.209 7.054-11.542 7.802-21.366 18.736-26.12 34.297-4.93-15.227-13.691-26.364-26.54-34.175z" fill="url(#h)" stroke="#000" stroke-width="1.609" transform="translate(-57.267 10.772) scale(.9931)"/>
  <path d="M82.963 95.704c-6.78 5.25-12.872 11.27-14.577 18.311-2.373-7.256-8.56-13.611-14.51-18.185M33.378 71.459c-5.33-1.411-7.578 3.508-6.45 6.098 4.471 10.25 28.952 9.156 36 .64m41.277-6.962c4.965-.958 6.833 4.373 4.882 7.106-7.546 10.567-27.608 8.26-34.657-.256" fill="none" stroke="#9ba3a8" stroke-width="1.051" stroke-linecap="round"/>
</svg>